SplineFontDB: 3.0
FontName: sadhguru-2.04
FullName: sadhguru-2.04
FamilyName: sadhguru-2.04
Weight: Book
Copyright: Sadhguru Font Copyright (c) 2013 SIL OFL; by Mohammed Asif Ali Rizvan, <fast.rizwaan@gmail.com>.
Version: 2.004 2012
ItalicAngle: 0
UnderlinePosition: -123
UnderlineWidth: 20
Ascent: 1638
Descent: 410
sfntRevision: 0x00020106
LayerCount: 2
Layer: 0 1 "Back"  1
Layer: 1 1 "Fore"  0
XUID: [1021 527 842388927 15128116]
FSType: 0
OS2Version: 3
OS2_WeightWidthSlopeOnly: 0
OS2_UseTypoMetrics: 1
CreationTime: 1338147379
ModificationTime: 1422053899
PfmFamily: 17
TTFWeight: 400
TTFWidth: 5
LineGap: 0
VLineGap: 0
Panose: 2 0 4 0 0 0 0 0 0 0
OS2TypoAscent: 2150
OS2TypoAOffset: 0
OS2TypoDescent: -1043
OS2TypoDOffset: 0
OS2TypoLinegap: 0
OS2WinAscent: 2344
OS2WinAOffset: 0
OS2WinDescent: 1048
OS2WinDOffset: 0
HheadAscent: 2150
HheadAOffset: 0
HheadDescent: -1043
HheadDOffset: 0
OS2SubXSize: 1434
OS2SubYSize: 1331
OS2SubXOff: 0
OS2SubYOff: 293
OS2SupXSize: 1434
OS2SupYSize: 1331
OS2SupXOff: 0
OS2SupYOff: 928
OS2StrikeYSize: 102
OS2StrikeYPos: 530
OS2Vendor: 'FONT'
OS2CodePages: 00000001.00000000
OS2UnicodeRanges: 00008003.00000000.00000000.00000000
Lookup: 4 0 0 "'nukt' Nukta Forms in Devanagari lookup 0"  {"'nukt' Nukta Forms in Devanagari lookup 0 subtable"  } ['nukt' ('deva' <'dflt' > ) ]
Lookup: 4 0 0 "'akhn' Akhand in Devanagari lookup 1"  {"'akhn' Akhand in Devanagari lookup 1 subtable"  } ['akhn' ('deva' <'dflt' > ) ]
Lookup: 4 0 0 "'rphf' Reph Form in Devanagari lookup 2"  {"'rphf' Reph Form in Devanagari lookup 2 subtable"  } ['rphf' ('deva' <'dflt' > ) ]
Lookup: 4 0 0 "'half' Half Forms in Devanagari lookup 3"  {"'half' Half Forms in Devanagari lookup 3 subtable"  } ['half' ('deva' <'dflt' > ) ]
Lookup: 4 0 0 "'vatu' Vattu Variants in Devanagari lookup 4"  {"'vatu' Vattu Variants in Devanagari lookup 4 subtable"  } ['vatu' ('deva' <'dflt' > ) ]

StartChar: .notdef
Encoding: 65536 -1 0
Width: 1024
GlyphClass: 2
Flags: W
LayerCount: 2
Fore
SplineSet
128 0 m 1,0,-1
 128 2150 l 1,1,-1
 896 2150 l 1,2,-1
 896 0 l 1,3,-1
 128 0 l 1,0,-1
256 128 m 1,4,-1
 768 128 l 1,5,-1
 768 2022 l 1,6,-1
 256 2022 l 1,7,-1
 256 128 l 1,4,-1
EndSplineSet
Validated: 1
EndChar

StartChar: exclam
Encoding: 33 33 4
Width: 761
GlyphClass: 2
Flags: W
LayerCount: 2
Fore
SplineSet
548 642 m 1,0,-1
 432 642 l 1,1,-1
 368 1638 l 1,2,3
 365 1640 365 1640 365 1659 c 0,4,5
 365 1711 365 1711 432 1750 c 1,6,-1
 477 1760 l 1,7,8
 559 1760 559 1760 597 1679 c 1,9,-1
 608 1635 l 1,10,-1
 548 642 l 1,0,-1
619 205 m 1,11,-1
 608 160 l 1,12,-1
 474 139 l 1,13,-1
 400 155 l 1,14,15
 342 165 342 165 325 251 c 1,16,17
 325 281 325 281 350.5 316.5 c 128,-1,18
 376 352 376 352 421 373 c 1,19,-1
 474 383 l 1,20,21
 530 383 530 383 579.5 341 c 128,-1,22
 629 299 629 299 629 262.5 c 128,-1,23
 629 226 629 226 619 205 c 1,11,-1
EndSplineSet
Validated: 1
EndChar

StartChar: quotedbl
Encoding: 34 34 5
Width: 973
GlyphClass: 2
Flags: W
LayerCount: 2
Fore
SplineSet
806 1600 m 2,0,-1
 725 1128 l 1,1,-1
 676 1128 l 1,2,-1
 594 1600 l 2,3,4
 587 1642 587 1642 621.5 1675 c 128,-1,5
 656 1708 656 1708 702 1708 c 0,6,7
 744 1708 744 1708 775.5 1679.5 c 128,-1,8
 807 1651 807 1651 807 1614 c 0,9,10
 807 1607 807 1607 806 1600 c 2,0,-1
378 1600 m 2,11,-1
 300 1128 l 1,12,-1
 245 1130 l 1,13,-1
 161 1600 l 1,14,15
 153 1639 153 1639 188.5 1673.5 c 128,-1,16
 224 1708 224 1708 271 1708 c 0,17,18
 316 1708 316 1708 350.5 1673.5 c 128,-1,19
 385 1639 385 1639 378 1600 c 2,11,-1
EndSplineSet
Validated: 33
EndChar

StartChar: numbersign
Encoding: 35 35 6
Width: 1192
GlyphClass: 2
Flags: W
LayerCount: 2
Fore
SplineSet
1186 1028 m 1,0,-1
 937 1028 l 1,1,-1
 889 722 l 1,2,-1
 1124 722 l 1,3,-1
 1124 582 l 1,4,-1
 869 582 l 1,5,-1
 791 65 l 1,6,-1
 644 65 l 1,7,-1
 718 582 l 1,8,-1
 411 582 l 1,9,-1
 330 65 l 1,10,-1
 179 65 l 1,11,-1
 258 582 l 1,12,-1
 3 582 l 1,13,-1
 3 722 l 1,14,-1
 280 722 l 1,15,-1
 330 1028 l 1,16,-1
 68 1028 l 1,17,-1
 68 1176 l 1,18,-1
 350 1176 l 1,19,-1
 425 1657 l 1,20,-1
 572 1657 l 1,21,-1
 499 1176 l 1,22,-1
 804 1176 l 1,23,-1
 879 1657 l 1,24,-1
 1025 1657 l 1,25,-1
 957 1176 l 1,26,-1
 1186 1176 l 1,27,-1
 1186 1028 l 1,0,-1
784 1028 m 1,28,-1
 481 1028 l 1,29,-1
 431 722 l 1,30,-1
 738 722 l 1,31,-1
 784 1028 l 1,28,-1
EndSplineSet
Validated: 1
EndChar

StartChar: dollar
Encoding: 36 36 7
Width: 1192
GlyphClass: 2
Flags: W
LayerCount: 2
Fore
SplineSet
1094 493 m 0,0,1
 1094 302 1094 302 959 186 c 0,2,3
 836 80 836 80 637 62 c 1,4,-1
 637 -141 l 1,5,-1
 542 -141 l 1,6,-1
 542 62 l 1,7,8
 310 67 310 67 101 189 c 1,9,-1
 101 506 l 1,10,-1
 138 503 l 1,11,12
 205 154 205 154 542 144 c 1,13,-1
 542 806 l 1,14,15
 346 918 346 918 263 997 c 0,16,17
 121 1130 121 1130 121 1287 c 0,18,19
 121 1456 121 1456 250 1559 c 0,20,21
 366 1651 366 1651 542 1660 c 1,22,-1
 542 1810 l 1,23,-1
 637 1810 l 1,24,-1
 637 1660 l 1,25,26
 852 1649 852 1649 1016 1529 c 1,27,-1
 1020 1261 l 1,28,-1
 977 1261 l 1,29,30
 953 1398 953 1398 861 1485 c 128,-1,31
 769 1572 769 1572 637 1584 c 1,32,-1
 637 1006 l 1,33,34
 868 882 868 882 945 812 c 0,35,36
 1094 679 1094 679 1094 493 c 0,0,1
539 1058 m 1,37,-1
 539 1584 l 1,38,39
 466 1578 466 1578 393 1514 c 0,40,41
 307 1439 307 1439 307 1343 c 0,42,43
 307 1248 307 1248 384 1175 c 1,44,45
 461 1116 461 1116 539 1058 c 1,37,-1
899 431 m 0,46,47
 899 614 899 614 637 755 c 1,48,-1
 637 144 l 1,49,50
 755 162 755 162 827 238 c 128,-1,51
 899 314 899 314 899 431 c 0,46,47
EndSplineSet
Validated: 1
EndChar

StartChar: percent
Encoding: 37 37 8
Width: 1507
GlyphClass: 2
Flags: W
LayerCount: 2
Fore
SplineSet
1505 459 m 0,0,1
 1505 238 1505 238 1399 120 c 1,2,3
 1319 35 1319 35 1224 35 c 0,4,5
 1128 35 1128 35 1070 101 c 1,6,7
 981 196 981 196 980 399 c 1,8,9
 980 609 980 609 1078 720 c 1,10,11
 1158 808 1158 808 1270 809 c 1,12,13
 1505 809 1505 809 1505 459 c 0,0,1
1308 1445 m 1,14,-1
 482 35 l 1,15,-1
 364 35 l 1,16,-1
 1190 1445 l 1,17,-1
 1308 1445 l 1,14,-1
694 1095 m 0,18,19
 694 874 694 874 588 757 c 1,20,21
 508 672 508 672 413 671 c 0,22,23
 318 671 318 671 258 736 c 0,24,25
 169 832 169 832 169 1035 c 0,26,27
 169 1245 169 1245 266 1357 c 1,28,29
 346 1445 346 1445 459 1445 c 0,30,31
 694 1445 694 1445 694 1095 c 0,18,19
1390 321 m 0,32,33
 1390 665 1390 665 1187 665 c 0,34,35
 1095 665 1095 665 1095 507 c 0,36,37
 1095 176 1095 176 1294 178 c 0,38,39
 1390 178 1390 178 1390 321 c 0,32,33
580 958 m 0,40,41
 580 1302 580 1302 375 1302 c 0,42,43
 283 1302 283 1302 284 1144 c 1,44,45
 284 813 284 813 482 815 c 0,46,47
 580 815 580 815 580 958 c 0,40,41
EndSplineSet
Validated: 33
EndChar

StartChar: ampersand
Encoding: 38 38 9
Width: 1855
GlyphClass: 2
Flags: W
LayerCount: 2
Fore
SplineSet
1796 310 m 1,0,1
 1704 160 1704 160 1634 101 c 1,2,3
 1550 33 1550 33 1434 33 c 0,4,5
 1232 33 1232 33 1025 245 c 1,6,7
 803 33 803 33 522 33 c 0,8,9
 320 33 320 33 209 131 c 128,-1,10
 98 229 98 229 98 411 c 256,11,12
 98 593 98 593 260 760 c 0,13,14
 378 883 378 883 556 974 c 1,15,16
 481 1174 481 1174 481 1304 c 0,17,18
 481 1467 481 1467 584.5 1577.5 c 128,-1,19
 688 1688 688 1688 849 1688 c 0,20,21
 987 1688 987 1688 1078 1615 c 1,22,23
 1176 1534 1176 1534 1176 1398 c 0,24,25
 1176 1153 1176 1153 810 983 c 1,26,27
 984 672 984 672 1118 499 c 1,28,29
 1330 759 1330 759 1330 924 c 0,30,31
 1330 1031 1330 1031 1179 1038 c 1,32,-1
 1179 1091 l 1,33,-1
 1702 1091 l 1,34,-1
 1702 1038 l 1,35,36
 1597 1025 1597 1025 1541 978 c 0,37,38
 1498 943 1498 943 1444 843 c 0,39,40
 1422 804 1422 804 1186 421 c 1,41,42
 1375 212 1375 212 1539 212 c 0,43,44
 1659 212 1659 212 1754 340 c 1,45,-1
 1796 310 l 1,0,1
1042 1408 m 0,46,47
 1042 1486 1042 1486 988.5 1545 c 128,-1,48
 935 1604 935 1604 856 1604 c 0,49,50
 676 1604 676 1604 676 1382 c 0,51,52
 676 1265 676 1265 768 1075 c 1,53,54
 879 1125 879 1125 953 1206 c 0,55,56
 1042 1302 1042 1302 1042 1408 c 0,46,47
954 317 m 1,57,58
 788 522 788 522 597 879 c 1,59,60
 463 798 463 798 402 718 c 1,61,62
 323 618 323 618 323 481 c 0,63,64
 323 362 323 362 417.5 264 c 128,-1,65
 512 166 512 166 630 166 c 0,66,67
 695 166 695 166 790 211 c 0,68,69
 881 254 881 254 954 317 c 1,57,58
EndSplineSet
Validated: 1
EndChar

StartChar: quotesingle
Encoding: 39 39 10
Width: 614
GlyphClass: 2
Flags: W
LayerCount: 2
Fore
SplineSet
498 1600 m 2,0,-1
 420 1128 l 1,1,-1
 365 1130 l 1,2,-1
 281 1600 l 1,3,4
 273 1639 273 1639 308.5 1673.5 c 128,-1,5
 344 1708 344 1708 391 1708 c 0,6,7
 436 1708 436 1708 470.5 1673.5 c 128,-1,8
 505 1639 505 1639 498 1600 c 2,0,-1
EndSplineSet
Validated: 33
EndChar

StartChar: parenleft
Encoding: 40 40 11
Width: 1272
GlyphClass: 2
Flags: W
LayerCount: 2
Fore
SplineSet
903 -232 m 1,0,-1
 843 -295 l 1,1,2
 241 146 241 146 241 760 c 0,3,4
 241 1373 241 1373 843 1814 c 1,5,-1
 903 1751 l 1,6,7
 430 1379 430 1379 430 760 c 0,8,9
 430 140 430 140 903 -232 c 1,0,-1
EndSplineSet
Validated: 1
EndChar

StartChar: parenright
Encoding: 41 41 12
Width: 1272
GlyphClass: 2
Flags: W
LayerCount: 2
Fore
SplineSet
1015 760 m 256,0,1
 1015 147 1015 147 413 -295 c 1,2,-1
 353 -232 l 1,3,4
 826 140 826 140 826 760 c 0,5,6
 826 1379 826 1379 353 1751 c 1,7,-1
 413 1814 l 1,8,9
 1015 1373 1015 1373 1015 760 c 256,0,1
EndSplineSet
Validated: 1
EndChar

StartChar: asterisk
Encoding: 42 42 13
Width: 1272
GlyphClass: 2
Flags: W
LayerCount: 2
Fore
SplineSet
1273 1288 m 1,0,-1
 1144 1179 l 1,1,-1
 872 1368 l 1,2,-1
 911 969 l 1,3,-1
 742 1021 l 1,4,-1
 785 1365 l 1,5,-1
 462 1130 l 1,6,-1
 427 1296 l 1,7,-1
 739 1434 l 1,8,-1
 353 1576 l 1,9,-1
 496 1700 l 1,10,-1
 774 1497 l 1,11,-1
 722 1904 l 1,12,-1
 897 1830 l 1,13,-1
 860 1502 l 1,14,-1
 1182 1751 l 1,15,-1
 1207 1576 l 1,16,-1
 897 1442 l 1,17,-1
 1273 1288 l 1,0,-1
EndSplineSet
Validated: 1
EndChar

StartChar: plus
Encoding: 43 43 14
Width: 1272
GlyphClass: 2
Flags: W
LayerCount: 2
Fore
SplineSet
1103 689 m 1,0,-1
 689 689 l 1,1,-1
 689 263 l 1,2,-1
 585 263 l 1,3,-1
 585 689 l 1,4,-1
 169 689 l 1,5,-1
 169 791 l 1,6,-1
 585 791 l 1,7,-1
 585 1215 l 1,8,-1
 689 1215 l 1,9,-1
 689 791 l 1,10,-1
 1103 791 l 1,11,-1
 1103 689 l 1,0,-1
EndSplineSet
Validated: 1
EndChar

StartChar: comma
Encoding: 44 44 15
Width: 627
GlyphClass: 2
Flags: W
LayerCount: 2
Fore
SplineSet
446 389 m 1,0,1
 446 269 446 269 349.5 145 c 128,-1,2
 253 21 253 21 106 21 c 0,3,4
 24 21 24 21 19 51 c 1,5,6
 19 66 19 66 26 74 c 1,7,-1
 58 87 l 1,8,9
 205 111 205 111 263 186 c 1,10,-1
 298 242 l 1,11,-1
 309 298 l 1,12,-1
 306 333 l 1,13,-1
 298 354 l 1,14,-1
 296 341 l 1,15,16
 229 341 229 341 182.5 363.5 c 128,-1,17
 136 386 136 386 136 451 c 128,-1,18
 136 516 136 516 175 564 c 1,19,-1
 215 590 l 1,20,-1
 266 602 l 1,21,22
 426 602 426 602 446 389 c 1,0,1
EndSplineSet
Validated: 1
EndChar

StartChar: hyphen
Encoding: 45 45 16
Width: 1052
GlyphClass: 2
Flags: W
LayerCount: 2
Fore
SplineSet
-63 744 m 1,0,-1
 -63 915 l 1,1,-1
 943 915 l 1,2,-1
 943 744 l 1,3,-1
 -63 744 l 1,0,-1
EndSplineSet
Validated: 1
EndChar

StartChar: period
Encoding: 46 46 17
Width: 635
GlyphClass: 2
Flags: W
LayerCount: 2
Fore
SplineSet
473 167 m 1,0,-1
 304 0 l 1,1,-1
 134 167 l 1,2,-1
 304 333 l 1,3,-1
 473 167 l 1,0,-1
EndSplineSet
Validated: 1
EndChar

StartChar: slash
Encoding: 47 47 18
Width: 684
GlyphClass: 2
Flags: W
LayerCount: 2
Fore
SplineSet
131 95 m 1,0,-1
 19 95 l 1,1,-1
 525 1419 l 1,2,-1
 632 1419 l 1,3,-1
 131 95 l 1,0,-1
EndSplineSet
Validated: 1
EndChar

StartChar: zero
Encoding: 48 48 19
Width: 1291
GlyphClass: 2
Flags: W
LayerCount: 2
Fore
SplineSet
920 370 m 1,0,1
 805 151 805 151 560 151 c 0,2,3
 347 151 347 151 219 370 c 1,4,-1
 171 466 l 1,5,-1
 142 575 l 1,6,-1
 123 694 l 1,7,-1
 118 830 l 1,8,9
 118 1109 118 1109 240 1298 c 1,10,11
 362 1485 362 1485 555 1485 c 0,12,13
 872 1485 872 1485 977 1125 c 0,14,15
 1013 1001 1013 1001 1012 830 c 1,16,17
 1013 550 1013 550 920 370 c 1,0,1
560 293 m 0,18,19
 847 293 847 293 847 830 c 0,20,21
 847 1056 847 1056 789 1177 c 1,22,23
 712 1344 712 1344 549 1344 c 0,24,25
 480 1344 480 1344 424.5 1299 c 128,-1,26
 369 1254 369 1254 341 1177 c 1,27,-1
 318 1104 l 1,28,-1
 293 971 l 1,29,30
 293 931 293 931 291 926 c 1,31,-1
 288 830 l 1,32,33
 288 471 288 471 431 341 c 0,34,35
 483 293 483 293 560 293 c 0,18,19
EndSplineSet
Validated: 33
EndChar

StartChar: one
Encoding: 49 49 20
Width: 1318
GlyphClass: 2
Flags: W
LayerCount: 2
Fore
SplineSet
510 145 m 1,0,-1
 510 1217 l 1,1,-1
 486 1229 l 1,2,-1
 460 1231 l 1,3,-1
 310 1164 l 1,4,-1
 279 1276 l 1,5,-1
 670 1465 l 1,6,-1
 670 145 l 1,7,-1
 510 145 l 1,0,-1
EndSplineSet
Validated: 1
EndChar

StartChar: two
Encoding: 50 50 21
Width: 1301
GlyphClass: 2
Flags: W
LayerCount: 2
Fore
SplineSet
56 144 m 1,0,-1
 402 493 l 1,1,-1
 709 826 l 2,2,3
 844 972 844 972 844 1114 c 128,-1,4
 844 1256 844 1256 712 1309 c 0,5,6
 661 1329 661 1329 581 1329 c 128,-1,7
 501 1329 501 1329 440 1285.5 c 128,-1,8
 379 1242 379 1242 337.5 1182 c 128,-1,9
 296 1122 296 1122 275.5 1061.5 c 128,-1,10
 255 1001 255 1001 255 970 c 1,11,-1
 112 1004 l 1,12,13
 112 1167 112 1167 253 1318 c 0,14,15
 394 1468 394 1468 592.5 1468 c 128,-1,16
 791 1468 791 1468 896 1362.5 c 128,-1,17
 1001 1257 1001 1257 1001 1109.5 c 128,-1,18
 1001 962 1001 962 900 820 c 1,19,-1
 869 775 l 1,20,-1
 717 599 l 1,21,-1
 420 302 l 1,22,-1
 1007 302 l 1,23,-1
 1007 144 l 1,24,-1
 56 144 l 1,0,-1
EndSplineSet
Validated: 1
EndChar

StartChar: three
Encoding: 51 51 22
Width: 1291
GlyphClass: 2
Flags: W
LayerCount: 2
Fore
SplineSet
869 205 m 1,0,-1
 803 172 l 1,1,-1
 725 146 l 1,2,-1
 638 128 l 1,3,-1
 550 123 l 1,4,5
 299 123 299 123 187 309 c 1,6,-1
 161 354 l 1,7,-1
 134 420 l 1,8,-1
 110 511 l 1,9,-1
 270 535 l 1,10,-1
 275 471 l 1,11,-1
 283 444 l 1,12,13
 316 319 316 319 453 279 c 1,14,-1
 550 268 l 1,15,16
 694 268 694 268 770.5 340.5 c 128,-1,17
 847 413 847 413 847 523.5 c 128,-1,18
 847 634 847 634 787.5 689.5 c 128,-1,19
 728 745 728 745 634 756 c 1,20,-1
 366 758 l 1,21,-1
 366 894 l 1,22,-1
 547 900 l 1,23,24
 626 900 626 900 694 972 c 1,25,26
 763 1043 763 1043 763 1139.5 c 128,-1,27
 763 1236 763 1236 699 1291 c 1,28,-1
 619 1323 l 1,29,-1
 522 1336 l 1,30,-1
 453 1330 l 1,31,32
 392 1320 392 1320 359 1280 c 1,33,-1
 299 1211 l 1,34,-1
 245 1109 l 1,35,-1
 118 1195 l 1,36,-1
 169 1302 l 1,37,-1
 196 1336 l 2,38,39
 244 1397 244 1397 329 1437 c 128,-1,40
 414 1477 414 1477 515 1477 c 0,41,42
 698 1477 698 1477 809 1396 c 128,-1,43
 920 1315 920 1315 920 1170 c 128,-1,44
 920 1025 920 1025 859 931 c 1,45,-1
 808 878 l 1,46,-1
 789 865 l 1,47,48
 819 857 819 857 855 835 c 1,49,-1
 908 796 l 1,50,51
 1018 709 1018 709 1018.5 515.5 c 128,-1,52
 1019 322 1019 322 869 205 c 1,0,-1
EndSplineSet
Validated: 33
EndChar

StartChar: four
Encoding: 52 52 23
Width: 1295
GlyphClass: 2
Flags: W
LayerCount: 2
Fore
SplineSet
848 458 m 1,0,-1
 848 146 l 1,1,-1
 681 146 l 1,2,-1
 681 458 l 1,3,-1
 -36 458 l 1,4,-1
 711 1454 l 1,5,-1
 841 1454 l 1,6,-1
 841 601 l 1,7,-1
 1140 601 l 1,8,-1
 1140 458 l 1,9,-1
 848 458 l 1,0,-1
678 1182 m 1,10,-1
 249 601 l 1,11,-1
 678 601 l 1,12,-1
 678 1182 l 1,10,-1
EndSplineSet
Validated: 1
EndChar

StartChar: five
Encoding: 53 53 24
Width: 1289
GlyphClass: 2
Flags: W
LayerCount: 2
Fore
SplineSet
893 221 m 1,0,-1
 826 182 l 1,1,-1
 750 147 l 1,2,-1
 664 126 l 1,3,-1
 562 117 l 1,4,-1
 461 126 l 1,5,-1
 374 150 l 1,6,7
 328 171 328 171 291 189.5 c 128,-1,8
 254 208 254 208 232 238 c 2,9,-1
 201 280 l 1,10,-1
 153 392 l 1,11,-1
 120 515 l 1,12,-1
 286 515 l 1,13,-1
 302 437 l 1,14,-1
 323 386 l 1,15,16
 392 269 392 269 545.5 269 c 128,-1,17
 699 269 699 269 774.5 352 c 128,-1,18
 850 435 850 435 850 567.5 c 128,-1,19
 850 700 850 700 819.5 752.5 c 128,-1,20
 789 805 789 805 746.5 831.5 c 128,-1,21
 704 858 704 858 631 874 c 1,22,-1
 568 879 l 1,23,-1
 504 874 l 1,24,-1
 435 853 l 1,25,-1
 371 810 l 1,26,-1
 356 786 l 1,27,-1
 352 762 l 1,28,-1
 206 845 l 1,29,-1
 291 1458 l 1,30,-1
 1021 1458 l 1,31,-1
 1021 1313 l 1,32,-1
 440 1313 l 1,33,-1
 395 999 l 1,34,-1
 491 1026 l 1,35,-1
 621 1036 l 1,36,37
 902 1036 902 1036 997 770 c 0,38,39
 1027 688 1027 688 1027 584 c 0,40,41
 1025 346 1025 346 893 221 c 1,0,-1
EndSplineSet
Validated: 1
EndChar

StartChar: six
Encoding: 54 54 25
Width: 1291
GlyphClass: 2
Flags: W
LayerCount: 2
Fore
SplineSet
1029 574 m 0,0,1
 1029 486 1029 486 994 383 c 128,-1,2
 959 280 959 280 862 205 c 128,-1,3
 765 130 765 130 636 130 c 0,4,5
 397 130 397 130 249.5 294.5 c 128,-1,6
 102 459 102 459 102 748.5 c 128,-1,7
 102 1038 102 1038 294.5 1248 c 128,-1,8
 487 1458 487 1458 778 1458 c 2,9,-1
 879 1458 l 1,10,-1
 879 1314 l 1,11,-1
 778 1317 l 2,12,13
 596 1322 596 1322 455.5 1185 c 128,-1,14
 315 1048 315 1048 283 826 c 1,15,-1
 283 800 l 1,16,-1
 259 806 l 1,17,-1
 298 864 l 2,18,19
 361 959 361 959 528 997 c 1,20,-1
 603 1002 l 1,21,22
 788 1002 788 1002 908.5 879 c 128,-1,23
 1029 756 1029 756 1029 574 c 0,0,1
597 280 m 0,24,25
 859 280 859 280 859 566 c 0,26,27
 859 648 859 648 839 686 c 1,28,29
 826 758 826 758 761 800.5 c 128,-1,30
 696 843 696 843 603 843 c 1,31,-1
 528 834 l 1,32,33
 410 802 410 802 354 728 c 1,34,-1
 336 707 l 1,35,-1
 293 608 l 1,36,-1
 313 513 l 1,37,38
 333 407 333 407 409.5 343.5 c 128,-1,39
 486 280 486 280 597 280 c 0,24,25
EndSplineSet
Validated: 37
EndChar

StartChar: seven
Encoding: 55 55 26
Width: 1287
GlyphClass: 2
Flags: W
LayerCount: 2
Fore
SplineSet
1088 1454 m 1,0,-1
 944 1185 l 1,1,-1
 832 934 l 1,2,-1
 769 743 l 1,3,-1
 731 612 l 1,4,-1
 672 349 l 1,5,-1
 657 228 l 1,6,-1
 652 146 l 1,7,-1
 476 146 l 1,8,-1
 481 215 l 1,9,10
 481 258 481 258 497 311 c 1,11,-1
 529 479 l 1,12,13
 529 500 529 500 545 553 c 2,14,-1
 578 665 l 1,15,16
 585 695 585 695 593 737.5 c 128,-1,17
 601 780 601 780 734 1096 c 1,18,-1
 750 1139 l 1,19,-1
 843 1315 l 1,20,-1
 273 1315 l 1,21,-1
 241 1241 l 1,22,-1
 189 1054 l 1,23,-1
 71 1054 l 1,24,-1
 124 1274 l 1,25,-1
 126 1304 l 1,26,27
 126 1325 126 1325 129 1328 c 1,28,-1
 162 1419 l 1,29,-1
 182 1454 l 1,30,-1
 1088 1454 l 1,0,-1
EndSplineSet
Validated: 1
EndChar

StartChar: eight
Encoding: 56 56 27
Width: 1293
GlyphClass: 2
Flags: W
LayerCount: 2
Fore
SplineSet
878 230 m 1,0,1
 754 141 754 141 551 141 c 2,2,-1
 487 141 l 1,3,-1
 378 162 l 2,4,5
 243 188 243 188 168 292.5 c 128,-1,6
 93 397 93 397 93 537 c 128,-1,7
 93 677 93 677 205 772 c 1,8,-1
 253 812 l 1,9,-1
 327 844 l 1,10,11
 292 852 292 852 266 870 c 1,12,-1
 215 908 l 1,13,14
 114 980 114 980 114 1126 c 128,-1,15
 114 1272 114 1272 223 1373.5 c 128,-1,16
 332 1475 332 1475 541.5 1475 c 128,-1,17
 751 1475 751 1475 873 1377.5 c 128,-1,18
 995 1280 995 1280 995 1121 c 0,19,20
 995 1017 995 1017 924 944 c 1,21,-1
 891 913 l 1,22,-1
 822 868 l 1,23,-1
 769 847 l 1,24,25
 812 839 812 839 838 820 c 1,26,-1
 902 783 l 1,27,28
 947 753 947 753 987.5 688 c 128,-1,29
 1028 623 1028 623 1028 530 c 0,30,31
 1028 341 1028 341 878 230 c 1,0,1
754 1275 m 1,32,33
 705 1310 705 1310 604 1325 c 1,34,-1
 551 1328 l 1,35,36
 431 1328 431 1328 356.5 1278 c 128,-1,37
 282 1228 282 1228 282 1141 c 128,-1,38
 282 1054 282 1054 322 1009 c 128,-1,39
 362 964 362 964 439 937 c 1,40,-1
 540 926 l 1,41,-1
 599 926 l 2,42,43
 661 926 661 926 715 958 c 1,44,45
 833 1024 833 1024 833 1117.5 c 128,-1,46
 833 1211 833 1211 754 1275 c 1,32,33
258 535 m 0,47,48
 258 279 258 279 556 279 c 0,49,50
 686 279 686 279 771 342 c 128,-1,51
 856 405 856 405 856 525 c 0,52,53
 856 644 856 644 754 716 c 1,54,-1
 708 735 l 1,55,-1
 655 748 l 1,56,-1
 535 761 l 1,57,58
 354 761 354 761 284 646 c 1,59,60
 258 601 258 601 258 535 c 0,47,48
EndSplineSet
Validated: 1
EndChar

StartChar: nine
Encoding: 57 57 28
Width: 1287
GlyphClass: 2
Flags: W
LayerCount: 2
Fore
SplineSet
827 326 m 0,0,1
 736 236 736 236 614 187 c 128,-1,2
 492 138 492 138 364 138 c 1,3,-1
 263 143 l 1,4,-1
 263 276 l 1,5,-1
 364 278 l 1,6,7
 580 278 580 278 701 415 c 1,8,9
 823 550 823 550 860 768 c 1,10,-1
 860 801 l 1,11,-1
 886 796 l 1,12,-1
 848 726 l 1,13,-1
 789 664 l 1,14,15
 731 614 731 614 609 593 c 1,16,-1
 535 588 l 1,17,18
 359 588 359 588 237 704 c 0,19,20
 116 819 116 819 116 1018.5 c 128,-1,21
 116 1218 116 1218 225 1341 c 128,-1,22
 334 1464 334 1464 539.5 1464 c 128,-1,23
 745 1464 745 1464 895 1292 c 0,24,25
 1043 1121 1043 1121 1043 862 c 0,26,27
 1043 537 1043 537 827 326 c 0,0,1
832 1073 m 1,28,29
 832 1096 832 1096 822 1106 c 1,30,-1
 806 1147 l 1,31,32
 713 1307 713 1307 545 1307 c 0,33,34
 410 1307 410 1307 348 1237.5 c 128,-1,35
 286 1168 286 1168 286 1035 c 128,-1,36
 286 902 286 902 342 825 c 128,-1,37
 398 748 398 748 538 748 c 128,-1,38
 678 748 678 748 787 865 c 1,39,-1
 817 913 l 1,40,-1
 851 984 l 1,41,-1
 832 1073 l 1,28,29
EndSplineSet
Validated: 5
EndChar

StartChar: colon
Encoding: 58 58 29
Width: 516
GlyphClass: 2
Flags: W
LayerCount: 2
Fore
SplineSet
343 1107 m 1,0,1
 343 1051 343 1051 304 1012 c 1,2,-1
 261 982 l 1,3,-1
 208 972 l 1,4,5
 134 972 134 972 88 1056 c 1,6,-1
 81 1107 l 1,7,8
 81 1186 81 1186 155 1228 c 1,9,-1
 208 1238 l 1,10,11
 294 1238 294 1238 333 1157 c 1,12,-1
 343 1107 l 1,0,1
333 466 m 1,13,14
 322 423 322 423 261 390 c 1,15,-1
 208 380 l 1,16,17
 138 388 138 388 117 420 c 2,18,-1
 88 463 l 1,19,-1
 81 514 l 1,20,21
 81 593 81 593 155 634 c 1,22,-1
 208 644 l 1,23,24
 259 644 259 644 301 611 c 128,-1,25
 343 578 343 578 343 531 c 128,-1,26
 343 484 343 484 333 466 c 1,13,14
EndSplineSet
Validated: 1
EndChar

StartChar: semicolon
Encoding: 59 59 30
Width: 627
GlyphClass: 2
Flags: W
LayerCount: 2
Fore
SplineSet
405 982 m 1,0,1
 394 942 394 942 329 907 c 1,2,-1
 281 896 l 1,3,4
 193 896 193 896 162 979 c 1,5,-1
 154 1030 l 1,6,7
 154 1083 154 1083 192 1120 c 1,8,-1
 231 1147 l 1,9,-1
 281 1158 l 1,10,11
 363 1158 363 1158 405 1077 c 1,12,-1
 415 1030 l 1,13,14
 415 1000 415 1000 405 982 c 1,0,1
446 316 m 1,15,16
 446 197 446 197 349.5 72.5 c 128,-1,17
 253 -52 253 -52 106 -52 c 0,18,19
 24 -52 24 -52 19 -22 c 1,20,21
 19 -6 19 -6 26 2 c 1,22,-1
 58 15 l 1,23,24
 205 38 205 38 263 114 c 1,25,-1
 298 170 l 1,26,-1
 309 225 l 1,27,-1
 306 260 l 1,28,-1
 298 281 l 1,29,-1
 296 268 l 1,30,31
 229 268 229 268 182.5 291 c 128,-1,32
 136 314 136 314 136 379 c 128,-1,33
 136 444 136 444 175 492 c 1,34,-1
 215 518 l 1,35,-1
 266 530 l 1,36,37
 426 530 426 530 446 316 c 1,15,16
EndSplineSet
Validated: 1
EndChar

StartChar: less
Encoding: 60 60 31
Width: 900
GlyphClass: 2
Flags: W
LayerCount: 2
Fore
SplineSet
708 35 m 1,0,-1
 -3 577 l 1,1,-1
 -3 799 l 1,2,-1
 697 1327 l 1,3,-1
 697 1103 l 1,4,-1
 155 679 l 1,5,-1
 708 246 l 1,6,-1
 708 35 l 1,0,-1
EndSplineSet
Validated: 1
EndChar

StartChar: equal
Encoding: 61 61 32
Width: 1272
GlyphClass: 2
Flags: W
LayerCount: 2
Fore
SplineSet
1113 843 m 1,0,-1
 178 843 l 1,1,-1
 178 946 l 1,2,-1
 1113 946 l 1,3,-1
 1113 843 l 1,0,-1
1113 533 m 1,4,-1
 178 533 l 1,5,-1
 178 637 l 1,6,-1
 1113 637 l 1,7,-1
 1113 533 l 1,4,-1
EndSplineSet
Validated: 1
EndChar

StartChar: greater
Encoding: 62 62 33
Width: 900
GlyphClass: 2
Flags: W
LayerCount: 2
Fore
SplineSet
900 542 m 1,0,-1
 189 0 l 1,1,-1
 189 213 l 1,2,-1
 742 645 l 1,3,-1
 189 1070 l 1,4,-1
 189 1294 l 1,5,-1
 900 766 l 1,6,-1
 900 542 l 1,0,-1
EndSplineSet
Validated: 1
EndChar

StartChar: question
Encoding: 63 63 34
Width: 1558
GlyphClass: 2
Flags: W
LayerCount: 2
Fore
SplineSet
1409 1217 m 0,0,1
 1409 1012 1409 1012 1123 855 c 128,-1,2
 837 698 837 698 831 612 c 1,3,-1
 844 464 l 1,4,-1
 864 381 l 1,5,-1
 682 381 l 1,6,-1
 653 602 l 1,7,8
 651 730 651 730 801 823 c 2,9,-1
 1078 996 l 2,10,11
 1233 1092 1233 1092 1233 1234 c 0,12,13
 1233 1333 1233 1333 1157.5 1404.5 c 128,-1,14
 1082 1476 1082 1476 934 1476 c 0,15,16
 621 1476 621 1476 621 1194 c 1,17,-1
 626 1130 l 1,18,-1
 450 1130 l 1,19,-1
 450 1183 l 2,20,21
 450 1399 450 1399 575.5 1512 c 128,-1,22
 701 1625 701 1625 930 1625 c 0,23,24
 1160 1625 1160 1625 1285 1503 c 0,25,26
 1409 1381 1409 1381 1409 1217 c 0,0,1
674 3 m 1,27,-1
 674 241 l 1,28,-1
 866 241 l 1,29,-1
 866 3 l 1,30,-1
 674 3 l 1,27,-1
EndSplineSet
Validated: 33
EndChar

StartChar: at
Encoding: 64 64 35
Width: 2198
GlyphClass: 2
Flags: W
LayerCount: 2
Fore
SplineSet
1947 705 m 0,0,1
 1921 549 1921 549 1761 327 c 0,2,3
 1646 166 1646 166 1459 166 c 0,4,5
 1430 166 1430 166 1398 169 c 1,6,7
 1345 176 1345 176 1339 177 c 0,8,9
 1307 187 1307 187 1261 222 c 0,10,11
 1210 262 1210 262 1173 350 c 1,12,13
 1132 299 1132 299 1099 271 c 0,14,15
 1034 214 1034 214 960 189 c 0,16,17
 881 163 881 163 829 163 c 0,18,19
 790 163 790 163 748 173 c 0,20,21
 649 197 649 197 594 295 c 0,22,23
 544 383 544 383 544 504 c 0,24,25
 544 538 544 538 549 572 c 0,26,27
 580 804 580 804 708 975 c 1,28,29
 828 1133 828 1133 990 1186 c 0,30,31
 1042 1203 1042 1203 1100 1203 c 0,32,33
 1164 1203 1164 1203 1202 1182 c 1,34,35
 1265 1159 1265 1159 1327 1058 c 1,36,-1
 1355 1166 l 1,37,-1
 1564 1169 l 1,38,-1
 1368 415 l 2,39,40
 1358 375 1358 375 1358 362 c 0,41,42
 1358 320 1358 320 1398 300 c 0,43,44
 1442 278 1442 278 1488 278 c 0,45,46
 1572 278 1572 278 1640 343 c 0,47,48
 1773 470 1773 470 1833 676 c 0,49,50
 1868 799 1868 799 1868 892 c 0,51,52
 1868 984 1868 984 1839 1068 c 0,53,54
 1774 1256 1774 1256 1632 1396 c 0,55,56
 1478 1547 1478 1547 1290 1581 c 0,57,58
 1173 1603 1173 1603 1016 1571 c 0,59,60
 706 1509 706 1509 497 1297 c 0,61,62
 301 1097 301 1097 262 836 c 1,63,64
 234 659 234 659 234 594 c 0,65,66
 234 461 234 461 284 304 c 0,67,68
 362 60 362 60 558 -71 c 128,-1,69
 754 -202 754 -202 1042 -202 c 0,70,71
 1224 -202 1224 -202 1362 -160 c 0,72,73
 1451 -132 1451 -132 1620 -46 c 1,74,-1
 1669 -144 l 1,75,-1
 1378 -262 l 1,76,-1
 1136 -304 l 1,77,-1
 964 -304 l 2,78,79
 724 -304 724 -304 475 -148 c 0,80,81
 220 12 220 12 98 252 c 0,82,83
 -3 451 -3 451 -3 679 c 0,84,85
 -3 767 -3 767 16 839 c 0,86,87
 42 935 42 935 123 1078 c 0,88,89
 229 1264 229 1264 353 1368 c 0,90,91
 626 1599 626 1599 934 1665 c 1,92,93
 1124 1707 1124 1707 1287 1675 c 1,94,95
 1393 1656 1393 1656 1464 1629 c 0,96,97
 1606 1575 1606 1575 1705 1480 c 0,98,99
 1874 1317 1874 1317 1937 1108 c 0,100,101
 1960 1030 1960 1030 1960 891 c 0,102,103
 1960 788 1960 788 1947 705 c 0,0,1
1270 905 m 1,104,105
 1264 1040 1264 1040 1173 1088 c 1,106,107
 1158 1094 1158 1094 1140 1094 c 0,108,109
 1034 1094 1034 1094 913 943 c 1,110,111
 778 769 778 769 778 552 c 2,112,-1
 778 428 l 2,113,114
 778 276 778 276 903 276 c 0,115,116
 961 276 961 276 1032 327 c 1,117,118
 1100 374 1100 374 1128 428 c 1,119,120
 1165 485 1165 485 1214 624 c 0,121,122
 1276 798 1276 798 1270 905 c 1,104,105
EndSplineSet
Validated: 33
EndChar

StartChar: braceleft
Encoding: 123 123 36
Width: 1146
GlyphClass: 2
Flags: W
LayerCount: 2
Fore
SplineSet
778 -307 m 1,0,-1
 774 -327 l 1,1,2
 586 -327 586 -327 516 -254 c 0,3,4
 441 -177 441 -177 441 30 c 2,5,-1
 441 411 l 2,6,7
 441 538 441 538 408 588 c 1,8,9
 370 649 370 649 249 683 c 1,10,11
 364 719 364 719 406 785 c 0,12,13
 441 840 441 840 441 954 c 2,14,-1
 441 1372 l 2,15,16
 441 1563 441 1563 527 1638 c 0,17,18
 601 1703 601 1703 774 1705 c 1,19,-1
 778 1685 l 1,20,21
 689 1656 689 1656 652 1584 c 0,22,23
 620 1521 620 1521 620 1405 c 2,24,-1
 620 990 l 2,25,26
 620 857 620 857 588 795 c 0,27,28
 549 720 549 720 438 686 c 1,29,30
 557 645 557 645 594 559 c 0,31,32
 620 499 620 499 620 360 c 2,33,-1
 620 -33 l 2,34,35
 620 -260 620 -260 778 -307 c 1,0,-1
EndSplineSet
Validated: 1
EndChar

StartChar: bar
Encoding: 124 124 37
Width: 477
GlyphClass: 2
Flags: W
LayerCount: 2
Fore
SplineSet
320 65 m 1,0,-1
 161 65 l 1,1,-1
 161 1705 l 1,2,-1
 320 1705 l 1,3,-1
 320 65 l 1,0,-1
EndSplineSet
Validated: 1
EndChar

StartChar: braceright
Encoding: 125 125 38
Width: 1146
GlyphClass: 2
Flags: W
LayerCount: 2
Fore
SplineSet
895 683 m 1,0,1
 774 649 774 649 737 587 c 1,2,3
 705 537 705 537 705 411 c 2,4,-1
 705 30 l 2,5,6
 705 -177 705 -177 631 -254 c 0,7,8
 560 -327 560 -327 373 -327 c 1,9,-1
 370 -307 l 1,10,11
 526 -260 526 -260 526 -33 c 2,12,-1
 526 360 l 2,13,14
 526 499 526 499 553 560 c 0,15,16
 592 645 592 645 712 686 c 1,17,18
 598 720 598 720 559 795 c 0,19,20
 526 857 526 857 526 990 c 2,21,-1
 526 1405 l 2,22,23
 526 1521 526 1521 494 1584 c 0,24,25
 458 1656 458 1656 370 1685 c 1,26,-1
 373 1705 l 1,27,28
 546 1703 546 1703 619 1638 c 1,29,30
 705 1563 705 1563 705 1372 c 2,31,-1
 705 954 l 2,32,33
 705 840 705 840 740 785 c 0,34,35
 781 719 781 719 895 683 c 1,0,1
EndSplineSet
Validated: 1
EndChar

StartChar: asciitilde
Encoding: 126 126 39
Width: 1293
GlyphClass: 2
Flags: W
LayerCount: 2
Fore
SplineSet
1247 806 m 1,0,1
 1100 539 1100 539 912 539 c 0,2,3
 818 539 818 539 640 622 c 128,-1,4
 462 705 462 705 378 705 c 0,5,6
 296 705 296 705 230 635 c 0,7,8
 190 593 190 593 128 483 c 1,9,-1
 40 591 l 1,10,11
 113 717 113 717 175 777 c 0,12,13
 268 866 268 866 382 866 c 0,14,15
 471 866 471 866 663 782 c 128,-1,16
 855 698 855 698 912 698 c 0,17,18
 1054 698 1054 698 1166 912 c 1,19,-1
 1247 806 l 1,0,1
EndSplineSet
Validated: 1
EndChar

StartChar: currency
Encoding: 164 164 40
Width: 1754
GlyphClass: 2
Flags: W
LayerCount: 2
Fore
SplineSet
1588 141 m 1,0,-1
 1476 35 l 1,1,-1
 1277 235 l 1,2,3
 1093 99 1093 99 906 99 c 0,4,5
 803 99 803 99 694 132 c 0,6,7
 569 169 569 169 498 233 c 1,8,-1
 296 35 l 1,9,-1
 188 141 l 1,10,-1
 388 343 l 1,11,12
 255 506 255 506 255 732 c 0,13,14
 255 946 255 946 389 1121 c 1,15,-1
 188 1318 l 1,16,-1
 296 1427 l 1,17,-1
 499 1230 l 1,18,19
 668 1363 668 1363 892 1363 c 0,20,21
 1111 1363 1111 1363 1278 1230 c 1,22,-1
 1477 1427 l 1,23,-1
 1588 1318 l 1,24,-1
 1387 1121 l 1,25,26
 1522 940 1522 940 1522 735 c 0,27,28
 1522 524 1522 524 1386 344 c 1,29,-1
 1588 141 l 1,0,-1
1368 731 m 256,30,31
 1368 928 1368 928 1226.5 1068 c 128,-1,32
 1085 1208 1085 1208 889 1208 c 0,33,34
 689 1208 689 1208 549.5 1068.5 c 128,-1,35
 410 929 410 929 410 728 c 0,36,37
 410 531 410 531 550.5 392 c 128,-1,38
 691 253 691 253 888 253 c 256,39,40
 1085 253 1085 253 1226.5 393.5 c 128,-1,41
 1368 534 1368 534 1368 731 c 256,30,31
EndSplineSet
Validated: 1
EndChar

StartChar: section
Encoding: 167 167 41
Width: 1592
GlyphClass: 2
Flags: W
LayerCount: 2
Fore
SplineSet
1274 409 m 0,0,1
 1274 146 1274 146 1006 -25 c 1,2,3
 1151 -188 1151 -188 1151 -390 c 0,4,5
 1151 -543 1151 -543 1067 -641 c 0,6,7
 967 -758 967 -758 769 -758 c 0,8,9
 617 -758 617 -758 515.5 -660.5 c 128,-1,10
 414 -563 414 -563 414 -416 c 1,11,-1
 572 -414 l 1,12,13
 572 -490 572 -490 635 -556.5 c 128,-1,14
 698 -623 698 -623 767 -623 c 0,15,16
 875 -623 875 -623 941 -547 c 0,17,18
 1000 -479 1000 -479 1000 -390 c 0,19,20
 1000 -218 1000 -218 828 -81 c 1,21,22
 668 36 668 36 507 154 c 1,23,24
 335 314 335 314 335 544 c 0,25,26
 335 726 335 726 611 992 c 1,27,28
 520 1092 520 1092 485 1163 c 1,29,30
 438 1255 438 1255 438 1375 c 0,31,32
 438 1528 438 1528 546 1639 c 0,33,34
 669 1765 669 1765 873 1765 c 0,35,36
 1007 1765 1007 1765 1103 1681 c 0,37,38
 1207 1591 1207 1591 1207 1446 c 0,39,40
 1207 1385 1207 1385 1187 1319 c 1,41,-1
 1042 1316 l 1,42,43
 1060 1375 1060 1375 1060 1427 c 0,44,45
 1060 1620 1060 1620 837 1620 c 0,46,47
 740 1620 740 1620 664 1548 c 0,48,49
 581 1469 581 1469 581 1349 c 0,50,51
 581 1210 581 1210 761 1049 c 1,52,53
 927 908 927 908 1094 766 c 1,54,55
 1274 589 1274 589 1274 409 c 0,0,1
1125 418 m 0,56,57
 1125 584 1125 584 720 896 c 1,58,59
 628 836 628 836 551 710 c 1,60,61
 475 588 475 588 475 508 c 0,62,63
 475 365 475 365 623 238 c 0,64,65
 664 203 664 203 873 71 c 1,66,67
 1125 176 1125 176 1125 418 c 0,56,57
EndSplineSet
Validated: 1
EndChar

StartChar: uni00AD
Encoding: 173 173 42
Width: 919
GlyphClass: 2
Flags: W
LayerCount: 2
Fore
SplineSet
772 413 m 1,0,-1
 148 413 l 1,1,-1
 148 523 l 1,2,-1
 772 523 l 1,3,-1
 772 413 l 1,0,-1
EndSplineSet
Validated: 1
EndChar

StartChar: degree
Encoding: 176 176 43
Width: 780
GlyphClass: 2
Flags: W
LayerCount: 2
Fore
SplineSet
709 1061 m 0,0,1
 709 927 709 927 615 833.5 c 128,-1,2
 521 740 521 740 387 740 c 0,3,4
 254 740 254 740 160.5 833.5 c 128,-1,5
 67 927 67 927 67 1061 c 0,6,7
 67 1196 67 1196 160 1289 c 128,-1,8
 253 1382 253 1382 387 1382 c 0,9,10
 522 1382 522 1382 615.5 1289 c 128,-1,11
 709 1196 709 1196 709 1061 c 0,0,1
620 1062 m 0,12,13
 620 1160 620 1160 552.5 1227.5 c 128,-1,14
 485 1295 485 1295 387 1295 c 256,15,16
 289 1295 289 1295 221.5 1227.5 c 128,-1,17
 154 1160 154 1160 154 1062 c 0,18,19
 154 965 154 965 222 897 c 128,-1,20
 290 829 290 829 387 829 c 256,21,22
 484 829 484 829 552 897 c 128,-1,23
 620 965 620 965 620 1062 c 0,12,13
EndSplineSet
Validated: 1
EndChar

StartChar: paragraph
Encoding: 182 182 44
Width: 1088
GlyphClass: 2
Flags: W
LayerCount: 2
Fore
SplineSet
1039 1106 m 1,0,-1
 901 1106 l 1,1,-1
 901 -714 l 1,2,-1
 825 -714 l 1,3,-1
 825 1106 l 1,4,-1
 630 1106 l 1,5,-1
 630 -714 l 1,6,-1
 554 -714 l 1,7,-1
 554 375 l 1,8,9
 344 375 344 375 211 463 c 0,10,11
 53 568 53 568 53 772 c 0,12,13
 53 964 53 964 202 1070 c 0,14,15
 332 1163 332 1163 523 1163 c 2,16,-1
 1039 1163 l 1,17,-1
 1039 1106 l 1,0,-1
EndSplineSet
Validated: 1
EndChar

StartChar: periodcentered
Encoding: 183 183 45
Width: 601
GlyphClass: 2
Flags: W
LayerCount: 2
Fore
SplineSet
421 1050 m 0,0,1
 421 1002 421 1002 387 968 c 128,-1,2
 353 934 353 934 305 934 c 256,3,4
 257 934 257 934 223 968 c 128,-1,5
 189 1002 189 1002 189 1050 c 256,6,7
 189 1098 189 1098 223 1132 c 128,-1,8
 257 1166 257 1166 305 1166 c 0,9,10
 354 1166 354 1166 387.5 1132.5 c 128,-1,11
 421 1099 421 1099 421 1050 c 0,0,1
EndSplineSet
Validated: 1
EndChar

StartChar: multiply
Encoding: 215 215 46
Width: 1243
GlyphClass: 2
Flags: W
LayerCount: 2
Fore
SplineSet
1084 342 m 1,0,-1
 1014 272 l 1,1,-1
 622 664 l 1,2,-1
 230 272 l 1,3,-1
 160 342 l 1,4,-1
 552 734 l 1,5,-1
 160 1126 l 1,6,-1
 230 1198 l 1,7,-1
 622 806 l 1,8,-1
 1014 1198 l 1,9,-1
 1084 1126 l 1,10,-1
 692 734 l 1,11,-1
 1084 342 l 1,0,-1
EndSplineSet
Validated: 1
EndChar

StartChar: sign.adho.cb
Encoding: 2304 2304 47
Width: 0
GlyphClass: 2
Flags: W
AnchorPoint: "Anchor-0" -258 1464 mark 0
LayerCount: 2
Fore
SplineSet
-181 1793 m 1,0,1
 -201 1844 -201 1844 -254 1873 c 1,2,-1
 -310 1882 l 1,3,4
 -358 1882 -358 1882 -403.5 1847 c 128,-1,5
 -449 1812 -449 1812 -449 1743 c 0,6,7
 -449 1656 -449 1656 -365 1619 c 1,8,-1
 -310 1607 l 1,9,10
 -223 1607 -223 1607 -184 1692 c 1,11,-1
 -174 1743 l 1,12,-1
 -181 1793 l 1,0,1
-106 2146 m 1,13,14
 -226 2184 -226 2184 -299 2184 c 0,15,16
 -533 2184 -533 2184 -664 2090 c 128,-1,17
 -795 1996 -795 1996 -795 1829 c 2,18,-1
 -795 1792 l 1,19,-1
 -794 1764 l 1,20,-1
 -630 1762 l 1,21,22
 -630 1882 -630 1882 -571 1943.5 c 128,-1,23
 -512 2005 -512 2005 -385 2031 c 1,24,-1
 -296 2039 l 1,25,26
 -120 2039 -120 2039 -43 1907 c 1,27,-1
 -14 1762 l 1,28,-1
 157 1762 l 1,29,-1
 163 1800 l 1,30,31
 163 2052 163 2052 -106 2146 c 1,13,14
EndSplineSet
Validated: 9
EndChar

StartChar: s.candrabindu
Encoding: 2305 2305 48
Width: 0
GlyphClass: 4
Flags: W
AnchorPoint: "Anchor-0" -258 1464 mark 0
LayerCount: 2
Fore
SplineSet
-181 1998 m 1,0,1
 -201 1947 -201 1947 -254 1919 c 1,2,-1
 -310 1909 l 1,3,4
 -358 1909 -358 1909 -403.5 1944 c 128,-1,5
 -449 1979 -449 1979 -449 2048 c 0,6,7
 -449 2135 -449 2135 -365 2172 c 1,8,-1
 -310 2184 l 1,9,10
 -223 2184 -223 2184 -184 2099 c 1,11,-1
 -174 2048 l 1,12,-1
 -181 1998 l 1,0,1
-106 1645 m 1,13,14
 -226 1607 -226 1607 -299 1607 c 0,15,16
 -533 1607 -533 1607 -664 1701 c 128,-1,17
 -795 1795 -795 1795 -795 1962 c 2,18,-1
 -795 1999 l 1,19,-1
 -794 2027 l 1,20,-1
 -630 2029 l 1,21,22
 -630 1909 -630 1909 -571 1847.5 c 128,-1,23
 -512 1786 -512 1786 -385 1760 c 1,24,-1
 -296 1752 l 1,25,26
 -120 1752 -120 1752 -43 1884 c 1,27,-1
 -14 2029 l 1,28,-1
 157 2029 l 1,29,-1
 163 1991 l 1,30,31
 163 1739 163 1739 -106 1645 c 1,13,14
EndSplineSet
Validated: 1
Ligature2: "'psts' Post Base Substitutions in Devanagari lookup 10 subtable" vs.chandrae s.anusvara
EndChar

StartChar: s.anusvara
Encoding: 2306 2306 49
Width: 0
GlyphClass: 4
Flags: W
AnchorPoint: "Anchor-0" -188 1464 mark 0
LayerCount: 2
Fore
SplineSet
-131 1808 m 1,0,1
 -151 1757 -151 1757 -204 1729 c 1,2,-1
 -260 1719 l 1,3,4
 -308 1719 -308 1719 -353.5 1754 c 128,-1,5
 -399 1789 -399 1789 -399 1858 c 0,6,7
 -399 1945 -399 1945 -315 1982 c 1,8,-1
 -260 1994 l 1,9,10
 -173 1994 -173 1994 -134 1909 c 1,11,-1
 -124 1858 l 1,12,-1
 -131 1808 l 1,0,1
EndSplineSet
Validated: 1
EndChar

StartChar: s.visarga
Encoding: 2307 2307 50
Width: 438
GlyphClass: 2
Flags: W
LayerCount: 2
Fore
SplineSet
350 1107 m 1,0,1
 350 1051 350 1051 311 1012 c 1,2,-1
 268 982 l 1,3,-1
 215 972 l 1,4,5
 141 972 141 972 95 1056 c 1,6,-1
 88 1107 l 1,7,8
 88 1186 88 1186 162 1228 c 1,9,-1
 215 1238 l 1,10,11
 301 1238 301 1238 340 1157 c 1,12,-1
 350 1107 l 1,0,1
340 466 m 1,13,14
 329 423 329 423 268 390 c 1,15,-1
 215 380 l 1,16,17
 145 388 145 388 124 420 c 2,18,-1
 95 463 l 1,19,-1
 88 514 l 1,20,21
 88 593 88 593 162 634 c 1,22,-1
 215 644 l 1,23,24
 266 644 266 644 308 611 c 128,-1,25
 350 578 350 578 350 531 c 128,-1,26
 350 484 350 484 340 466 c 1,13,14
EndSplineSet
Validated: 1
EndChar

StartChar: l.short.a
Encoding: 2308 2308 51
Width: 1747
GlyphClass: 2
Flags: W
LayerCount: 2
Fore
SplineSet
1487 1448 m 1,0,-1
 1394 1448 l 1,1,-1
 1394 1590 l 2,2,3
 1394 1618 1394 1618 1372 1643 c 0,4,5
 1323 1698 1323 1698 1245 1714 c 1,6,7
 1152 1721 1152 1721 1086 1727 c 1,8,9
 946 1736 946 1736 887 1792 c 0,10,11
 817 1857 817 1857 818 2008 c 1,12,-1
 818 2144 l 1,13,-1
 932 2144 l 1,14,-1
 932 2038 l 1,15,16
 941 1886 941 1886 1041 1886 c 0,17,18
 1053 1886 1053 1886 1231 1862 c 0,19,20
 1298 1853 1298 1853 1363 1802 c 1,21,22
 1446 1732 1446 1732 1470 1665 c 0,23,24
 1487 1616 1487 1616 1487 1587 c 2,25,-1
 1487 1448 l 1,0,-1
1493 1364 m 1,26,-1
 1493 182 l 1,27,-1
 1322 182 l 1,28,-1
 1322 786 l 1,29,-1
 1078 786 l 1,30,-1
 1078 927 l 1,31,-1
 1322 927 l 1,32,-1
 1322 1364 l 1,33,-1
 1101 1364 l 1,34,-1
 1101 1498 l 1,35,-1
 1748 1498 l 1,36,-1
 1748 1364 l 1,37,-1
 1493 1364 l 1,26,-1
852 288 m 1,38,39
 814 276 814 276 769 263.5 c 128,-1,40
 724 251 724 251 667 246 c 1,41,-1
 559 240 l 1,42,43
 447 240 447 240 358 262.5 c 128,-1,44
 269 285 269 285 207 331.5 c 128,-1,45
 145 378 145 378 112 448.5 c 128,-1,46
 79 519 79 519 79 616 c 2,47,-1
 79 650 l 1,48,-1
 239 650 l 1,49,50
 239 590 239 590 252.5 546.5 c 128,-1,51
 266 503 266 503 295 473.5 c 128,-1,52
 324 444 324 444 369.5 427 c 128,-1,53
 415 410 415 410 479 403 c 1,54,-1
 654 398 l 2,55,56
 664 398 664 398 685.5 401.5 c 128,-1,57
 707 405 707 405 734 414 c 128,-1,58
 761 423 761 423 789.5 437.5 c 128,-1,59
 818 452 818 452 841.5 474.5 c 128,-1,60
 865 497 865 497 880 527.5 c 128,-1,61
 895 558 895 558 895 599 c 0,62,63
 895 663 895 663 868 712.5 c 128,-1,64
 841 762 841 762 792.5 796 c 128,-1,65
 744 830 744 830 675.5 848 c 128,-1,66
 607 866 607 866 524 866 c 1,67,-1
 450 860 l 1,68,69
 435 860 435 860 428 855 c 1,70,-1
 417 850 l 1,71,-1
 417 1023 l 1,72,-1
 438 1015 l 1,73,-1
 491 1015 l 1,74,-1
 601 1023 l 1,75,76
 651 1031 651 1031 693 1048.5 c 128,-1,77
 735 1066 735 1066 765 1091.5 c 128,-1,78
 795 1117 795 1117 812 1150.5 c 128,-1,79
 829 1184 829 1184 829 1226 c 0,80,81
 829 1335 829 1335 679 1383 c 1,82,-1
 590 1394 l 1,83,-1
 579 1394 l 2,84,85
 568 1394 568 1394 556 1394.5 c 128,-1,86
 544 1395 544 1395 530 1395 c 0,87,88
 506 1395 506 1395 480 1391.5 c 128,-1,89
 454 1388 454 1388 428.5 1375.5 c 128,-1,90
 403 1363 403 1363 380 1339 c 128,-1,91
 357 1315 357 1315 338 1274 c 1,92,-1
 321 1221 l 1,93,-1
 164 1223 l 1,94,95
 179 1311 179 1311 215.5 1369 c 128,-1,96
 252 1427 252 1427 306 1462 c 128,-1,97
 360 1497 360 1497 429.5 1511.5 c 128,-1,98
 499 1526 499 1526 580 1526 c 0,99,100
 659 1526 659 1526 734 1510 c 128,-1,101
 809 1494 809 1494 867 1458 c 128,-1,102
 925 1422 925 1422 960 1364 c 128,-1,103
 995 1306 995 1306 995 1221 c 0,104,105
 995 1182 995 1182 986 1145 c 128,-1,106
 977 1108 977 1108 959 1075.5 c 128,-1,107
 941 1043 941 1043 913 1016.5 c 128,-1,108
 885 990 885 990 846 972 c 1,109,-1
 766 944 l 1,110,111
 822 936 822 936 876.5 908.5 c 128,-1,112
 931 881 931 881 974 836 c 128,-1,113
 1017 791 1017 791 1043.5 730.5 c 128,-1,114
 1070 670 1070 670 1070 597 c 0,115,116
 1070 377 1070 377 852 288 c 1,38,39
EndSplineSet
Validated: 37
EndChar

StartChar: l.a
Encoding: 2309 2309 52
Width: 1747
GlyphClass: 2
Flags: W
LayerCount: 2
Fore
SplineSet
1493 1364 m 1,0,-1
 1493 182 l 1,1,-1
 1322 182 l 1,2,-1
 1322 786 l 1,3,-1
 1078 786 l 1,4,-1
 1078 927 l 1,5,-1
 1322 927 l 1,6,-1
 1322 1364 l 1,7,-1
 1101 1364 l 1,8,-1
 1101 1498 l 1,9,-1
 1748 1498 l 1,10,-1
 1748 1364 l 1,11,-1
 1493 1364 l 1,0,-1
852 288 m 1,12,13
 814 276 814 276 769 263.5 c 128,-1,14
 724 251 724 251 667 246 c 1,15,-1
 559 240 l 1,16,17
 447 240 447 240 358 262.5 c 128,-1,18
 269 285 269 285 207 331.5 c 128,-1,19
 145 378 145 378 112 448.5 c 128,-1,20
 79 519 79 519 79 616 c 2,21,-1
 79 650 l 1,22,-1
 239 650 l 1,23,24
 239 590 239 590 252.5 546.5 c 128,-1,25
 266 503 266 503 295 473.5 c 128,-1,26
 324 444 324 444 369.5 427 c 128,-1,27
 415 410 415 410 479 403 c 1,28,-1
 654 398 l 2,29,30
 664 398 664 398 685.5 401.5 c 128,-1,31
 707 405 707 405 734 414 c 128,-1,32
 761 423 761 423 789.5 437.5 c 128,-1,33
 818 452 818 452 841.5 474.5 c 128,-1,34
 865 497 865 497 880 527.5 c 128,-1,35
 895 558 895 558 895 599 c 0,36,37
 895 663 895 663 868 712.5 c 128,-1,38
 841 762 841 762 792.5 796 c 128,-1,39
 744 830 744 830 675.5 848 c 128,-1,40
 607 866 607 866 524 866 c 1,41,-1
 450 860 l 1,42,43
 435 860 435 860 428 855 c 1,44,-1
 417 850 l 1,45,-1
 417 1023 l 1,46,-1
 438 1015 l 1,47,-1
 491 1015 l 1,48,-1
 601 1023 l 1,49,50
 651 1031 651 1031 693 1048.5 c 128,-1,51
 735 1066 735 1066 765 1091.5 c 128,-1,52
 795 1117 795 1117 812 1150.5 c 128,-1,53
 829 1184 829 1184 829 1226 c 0,54,55
 829 1335 829 1335 679 1383 c 1,56,-1
 590 1394 l 1,57,-1
 579 1394 l 2,58,59
 568 1394 568 1394 556 1394.5 c 128,-1,60
 544 1395 544 1395 530 1395 c 0,61,62
 506 1395 506 1395 480 1391.5 c 128,-1,63
 454 1388 454 1388 428.5 1375.5 c 128,-1,64
 403 1363 403 1363 380 1339 c 128,-1,65
 357 1315 357 1315 338 1274 c 1,66,-1
 321 1221 l 1,67,-1
 164 1223 l 1,68,69
 179 1311 179 1311 215.5 1369 c 128,-1,70
 252 1427 252 1427 306 1462 c 128,-1,71
 360 1497 360 1497 429.5 1511.5 c 128,-1,72
 499 1526 499 1526 580 1526 c 0,73,74
 659 1526 659 1526 734 1510 c 128,-1,75
 809 1494 809 1494 867 1458 c 128,-1,76
 925 1422 925 1422 960 1364 c 128,-1,77
 995 1306 995 1306 995 1221 c 0,78,79
 995 1182 995 1182 986 1145 c 128,-1,80
 977 1108 977 1108 959 1075.5 c 128,-1,81
 941 1043 941 1043 913 1016.5 c 128,-1,82
 885 990 885 990 846 972 c 1,83,-1
 766 944 l 1,84,85
 822 936 822 936 876.5 908.5 c 128,-1,86
 931 881 931 881 974 836 c 128,-1,87
 1017 791 1017 791 1043.5 730.5 c 128,-1,88
 1070 670 1070 670 1070 597 c 0,89,90
 1070 377 1070 377 852 288 c 1,12,13
EndSplineSet
Validated: 1
EndChar

StartChar: l.aa
Encoding: 2310 2310 53
Width: 2286
GlyphClass: 2
Flags: W
LayerCount: 2
Fore
SplineSet
2032 1364 m 1,0,-1
 2032 182 l 1,1,-1
 1861 182 l 1,2,-1
 1861 1364 l 1,3,-1
 1640 1364 l 1,4,-1
 1640 1498 l 1,5,-1
 2287 1498 l 1,6,-1
 2287 1364 l 1,7,-1
 2032 1364 l 1,0,-1
1493 1364 m 1,8,-1
 1493 182 l 1,9,-1
 1322 182 l 1,10,-1
 1322 786 l 1,11,-1
 1078 786 l 1,12,-1
 1078 927 l 1,13,-1
 1322 927 l 1,14,-1
 1322 1364 l 1,15,-1
 1101 1364 l 1,16,-1
 1101 1498 l 1,17,-1
 1748 1498 l 1,18,-1
 1748 1364 l 1,19,-1
 1493 1364 l 1,8,-1
852 288 m 1,20,21
 814 276 814 276 769 263.5 c 128,-1,22
 724 251 724 251 667 246 c 1,23,-1
 559 240 l 1,24,25
 447 240 447 240 358 262.5 c 128,-1,26
 269 285 269 285 207 331.5 c 128,-1,27
 145 378 145 378 112 448.5 c 128,-1,28
 79 519 79 519 79 616 c 2,29,-1
 79 650 l 1,30,-1
 239 650 l 1,31,32
 239 590 239 590 252.5 546.5 c 128,-1,33
 266 503 266 503 295 473.5 c 128,-1,34
 324 444 324 444 369.5 427 c 128,-1,35
 415 410 415 410 479 403 c 1,36,-1
 654 398 l 2,37,38
 664 398 664 398 685.5 401.5 c 128,-1,39
 707 405 707 405 734 414 c 128,-1,40
 761 423 761 423 789.5 437.5 c 128,-1,41
 818 452 818 452 841.5 474.5 c 128,-1,42
 865 497 865 497 880 527.5 c 128,-1,43
 895 558 895 558 895 599 c 0,44,45
 895 663 895 663 868 712.5 c 128,-1,46
 841 762 841 762 792.5 796 c 128,-1,47
 744 830 744 830 675.5 848 c 128,-1,48
 607 866 607 866 524 866 c 1,49,-1
 450 860 l 1,50,51
 435 860 435 860 428 855 c 1,52,-1
 417 850 l 1,53,-1
 417 1023 l 1,54,-1
 438 1015 l 1,55,-1
 491 1015 l 1,56,-1
 601 1023 l 1,57,58
 651 1031 651 1031 693 1048.5 c 128,-1,59
 735 1066 735 1066 765 1091.5 c 128,-1,60
 795 1117 795 1117 812 1150.5 c 128,-1,61
 829 1184 829 1184 829 1226 c 0,62,63
 829 1335 829 1335 679 1383 c 1,64,-1
 590 1394 l 1,65,-1
 579 1394 l 2,66,67
 568 1394 568 1394 556 1394.5 c 128,-1,68
 544 1395 544 1395 530 1395 c 0,69,70
 506 1395 506 1395 480 1391.5 c 128,-1,71
 454 1388 454 1388 428.5 1375.5 c 128,-1,72
 403 1363 403 1363 380 1339 c 128,-1,73
 357 1315 357 1315 338 1274 c 1,74,-1
 321 1221 l 1,75,-1
 164 1223 l 1,76,77
 179 1311 179 1311 215.5 1369 c 128,-1,78
 252 1427 252 1427 306 1462 c 128,-1,79
 360 1497 360 1497 429.5 1511.5 c 128,-1,80
 499 1526 499 1526 580 1526 c 0,81,82
 659 1526 659 1526 734 1510 c 128,-1,83
 809 1494 809 1494 867 1458 c 128,-1,84
 925 1422 925 1422 960 1364 c 128,-1,85
 995 1306 995 1306 995 1221 c 0,86,87
 995 1182 995 1182 986 1145 c 128,-1,88
 977 1108 977 1108 959 1075.5 c 128,-1,89
 941 1043 941 1043 913 1016.5 c 128,-1,90
 885 990 885 990 846 972 c 1,91,-1
 766 944 l 1,92,93
 822 936 822 936 876.5 908.5 c 128,-1,94
 931 881 931 881 974 836 c 128,-1,95
 1017 791 1017 791 1043.5 730.5 c 128,-1,96
 1070 670 1070 670 1070 597 c 0,97,98
 1070 377 1070 377 852 288 c 1,20,21
EndSplineSet
Validated: 5
EndChar

StartChar: l.i
Encoding: 2311 2311 54
Width: 1283
GlyphClass: 2
Flags: W
LayerCount: 2
Fore
SplineSet
1056 1364 m 1,0,-1
 1056 983 l 1,1,-1
 898 1008 l 1,2,-1
 715 1021 l 1,3,-1
 568 1021 l 1,4,-1
 474 1016 l 1,5,6
 426 1016 426 1016 386.5 989 c 128,-1,7
 347 962 347 962 347 910 c 128,-1,8
 347 858 347 858 398 823 c 1,9,-1
 459 808 l 1,10,-1
 621 808 l 1,11,-1
 855 830 l 1,12,13
 1093 830 1093 830 1167 667 c 0,14,15
 1193 609 1193 609 1193 526 c 0,16,17
 1193 390 1193 390 1084 303 c 128,-1,18
 975 216 975 216 768 190 c 1,19,-1
 645 185 l 1,20,21
 645 167 645 167 651 160 c 1,22,-1
 682 91 l 1,23,24
 701 60 701 60 733 28 c 1,25,-1
 805 -15 l 1,26,-1
 888 -26 l 1,27,-1
 944 -26 l 1,28,-1
 987 -15 l 1,29,-1
 922 -175 l 1,30,-1
 858 -183 l 1,31,-1
 763 -166 l 1,32,-1
 712 -143 l 1,33,-1
 654 -105 l 1,34,35
 575 -48 575 -48 539 17 c 1,36,-1
 497 99 l 1,37,-1
 474 185 l 1,38,-1
 294 208 l 1,39,-1
 203 347 l 1,40,-1
 304 480 l 1,41,-1
 454 480 l 1,42,-1
 558 334 l 1,43,-1
 634 328 l 1,44,-1
 744 328 l 1,45,-1
 773 334 l 1,46,47
 844 334 844 334 890 363 c 1,48,49
 970 384 970 384 1005 429.5 c 128,-1,50
 1040 475 1040 475 1040 549 c 0,51,52
 1040 597 1040 597 996 626.5 c 128,-1,53
 952 656 952 656 890 661 c 2,54,-1
 779 670 l 1,55,-1
 533 667 l 2,56,57
 357 665 357 665 274.5 733.5 c 128,-1,58
 192 802 192 802 192 914 c 128,-1,59
 192 1026 192 1026 284.5 1094.5 c 128,-1,60
 377 1163 377 1163 598 1163 c 1,61,-1
 807 1156 l 1,62,-1
 909 1143 l 1,63,-1
 909 1364 l 1,64,-1
 -1 1364 l 1,65,-1
 -1 1498 l 1,66,-1
 1284 1498 l 1,67,-1
 1284 1364 l 1,68,-1
 1056 1364 l 1,0,-1
EndSplineSet
Validated: 33
EndChar

StartChar: l.ii
Encoding: 2312 2312 55
Width: 1283
GlyphClass: 2
Flags: W
LayerCount: 2
Fore
SplineSet
1056 1364 m 1,0,-1
 1056 984 l 1,1,-1
 898 1008 l 1,2,-1
 715 1021 l 1,3,-1
 568 1021 l 1,4,-1
 474 1016 l 1,5,6
 426 1016 426 1016 386.5 989.5 c 128,-1,7
 347 963 347 963 347 911 c 128,-1,8
 347 859 347 859 398 824 c 1,9,-1
 459 808 l 1,10,-1
 621 808 l 1,11,-1
 855 830 l 1,12,13
 1093 830 1093 830 1167 668 c 0,14,15
 1193 609 1193 609 1193 526 c 0,16,17
 1193 391 1193 391 1084 303.5 c 128,-1,18
 975 216 975 216 768 190 c 1,19,-1
 645 185 l 1,20,21
 645 167 645 167 651 161 c 1,22,-1
 682 92 l 1,23,24
 701 60 701 60 733 28 c 1,25,-1
 805 -15 l 1,26,-1
 888 -25 l 1,27,-1
 944 -25 l 1,28,-1
 987 -15 l 1,29,-1
 922 -175 l 1,30,-1
 858 -183 l 1,31,-1
 763 -166 l 1,32,-1
 712 -142 l 1,33,-1
 654 -105 l 1,34,35
 575 -47 575 -47 539 18 c 1,36,-1
 497 100 l 1,37,-1
 474 185 l 1,38,-1
 294 209 l 1,39,-1
 203 348 l 1,40,-1
 304 480 l 1,41,-1
 454 480 l 1,42,-1
 558 335 l 1,43,-1
 634 328 l 1,44,-1
 744 328 l 1,45,-1
 773 335 l 1,46,47
 844 335 844 335 890 363 c 1,48,49
 970 384 970 384 1005 429.5 c 128,-1,50
 1040 475 1040 475 1040 549 c 0,51,52
 1040 597 1040 597 996 626.5 c 128,-1,53
 952 656 952 656 890 661 c 2,54,-1
 779 670 l 1,55,-1
 533 668 l 1,56,57
 357 665 357 665 274.5 734 c 128,-1,58
 192 803 192 803 192 914.5 c 128,-1,59
 192 1026 192 1026 284.5 1094.5 c 128,-1,60
 377 1163 377 1163 598 1163 c 1,61,-1
 807 1156 l 1,62,-1
 909 1143 l 1,63,-1
 909 1364 l 1,64,-1
 -1 1364 l 1,65,-1
 -1 1498 l 1,66,-1
 1284 1498 l 1,67,-1
 1284 1364 l 1,68,-1
 1056 1364 l 1,0,-1
1107 1964 m 1,69,-1
 1041 1999 l 1,70,-1
 1001 2009 l 1,71,-1
 962 2012 l 1,72,73
 842 2012 842 2012 801.5 1957.5 c 128,-1,74
 761 1903 761 1903 761 1773 c 0,75,76
 761 1727 761 1727 791.5 1672.5 c 128,-1,77
 822 1618 822 1618 855 1565 c 1,78,-1
 908 1498 l 1,79,-1
 782 1498 l 1,80,-1
 756 1530 l 1,81,-1
 668 1657 l 1,82,-1
 634 1730 l 1,83,-1
 612 1796 l 1,84,-1
 604 1862 l 1,85,86
 604 1984 604 1984 700 2061 c 0,87,88
 795 2137 795 2137 934 2137 c 1,89,-1
 995 2129 l 1,90,91
 1028 2129 1028 2129 1068 2111 c 2,92,-1
 1145 2076 l 1,93,-1
 1145 1936 l 1,94,-1
 1107 1964 l 1,69,-1
EndSplineSet
Validated: 37
EndChar

StartChar: l.u
Encoding: 2313 2313 56
Width: 1252
GlyphClass: 2
Flags: W
LayerCount: 2
Fore
SplineSet
869 1364 m 1,0,-1
 915 1324 l 1,1,-1
 955 1277 l 1,2,3
 1008 1210 1008 1210 1008 1128.5 c 128,-1,4
 1008 1047 1008 1047 968.5 980.5 c 128,-1,5
 929 914 929 914 848 886 c 1,6,-1
 764 853 l 1,7,8
 939 832 939 832 1027 748 c 128,-1,9
 1115 664 1115 664 1115 539 c 128,-1,10
 1115 414 1115 414 1015 315 c 128,-1,11
 915 216 915 216 716 187 c 1,12,-1
 614 182 l 1,13,14
 274 182 274 182 145 390 c 1,15,-1
 89 609 l 1,16,-1
 252 609 l 1,17,-1
 252 553 l 1,18,-1
 269 515 l 1,19,20
 332 324 332 324 604 323 c 1,21,-1
 688 323 l 1,22,-1
 734 334 l 2,23,24
 825 355 825 355 879.5 402 c 128,-1,25
 934 449 934 449 934 537 c 0,26,27
 934 627 934 627 851 693 c 128,-1,28
 768 759 768 759 625 759 c 1,29,-1
 454 765 l 1,30,-1
 454 922 l 1,31,-1
 577 919 l 1,32,33
 653 919 653 919 712 957 c 0,34,35
 826 1030 826 1030 846 1125 c 1,36,37
 846 1207 846 1207 757 1295 c 1,38,-1
 668 1366 l 1,39,-1
 -1 1366 l 1,40,-1
 -1 1498 l 1,41,-1
 1253 1498 l 1,42,-1
 1253 1364 l 1,43,-1
 869 1364 l 1,0,-1
EndSplineSet
Validated: 1
EndChar

StartChar: l.uu
Encoding: 2314 2314 57
Width: 1837
GlyphClass: 2
Flags: W
LayerCount: 2
Fore
SplineSet
1730.5 412 m 128,-1,1
 1699 347 1699 347 1638 310 c 0,2,3
 1538 248 1538 248 1414 228 c 1,4,-1
 1335 222 l 1,5,-1
 1271 225 l 1,6,7
 1248 225 1248 225 1242 230 c 1,8,-1
 1247 381 l 1,9,-1
 1327 373 l 1,10,-1
 1429 381 l 1,11,12
 1503 381 1503 381 1562.5 448 c 128,-1,13
 1622 515 1622 515 1622 621.5 c 128,-1,14
 1622 728 1622 728 1565 798.5 c 128,-1,15
 1508 869 1508 869 1407 869 c 2,16,-1
 1351 869 l 1,17,-1
 1229 835 l 1,18,19
 1147 802 1147 802 1123 783.5 c 128,-1,20
 1099 765 1099 765 1082 744 c 1,21,-1
 1071 752 l 1,22,-1
 1114 944 l 1,23,-1
 1216 978 l 1,24,-1
 1314 1000 l 1,25,-1
 1391 1008 l 1,26,27
 1399 1010 1399 1010 1422 1010 c 0,28,29
 1534 1008 1534 1008 1611.5 957 c 128,-1,30
 1689 906 1689 906 1721 845 c 2,31,-1
 1752 784 l 1,32,33
 1758 766 1758 766 1763.5 749.5 c 128,-1,34
 1769 733 1769 733 1775 714 c 1,35,-1
 1782 635 l 1,36,-1
 1782 576 l 1,37,0
 1762 477 1762 477 1730.5 412 c 128,-1,1
868 1364 m 1,38,-1
 914 1324 l 1,39,-1
 954 1277 l 1,40,41
 1008 1210 1008 1210 1008 1128.5 c 128,-1,42
 1008 1047 1008 1047 968 980.5 c 128,-1,43
 928 914 928 914 848 886 c 1,44,-1
 763 853 l 1,45,46
 939 832 939 832 1026.5 748 c 128,-1,47
 1114 664 1114 664 1114 539 c 128,-1,48
 1114 414 1114 414 1014 315 c 128,-1,49
 914 216 914 216 715 187 c 1,50,-1
 614 182 l 1,51,52
 273 182 273 182 144 390 c 1,53,-1
 88 609 l 1,54,-1
 251 609 l 1,55,-1
 251 553 l 1,56,-1
 268 515 l 1,57,58
 332 324 332 324 603 323 c 1,59,-1
 688 323 l 1,60,-1
 733 334 l 1,61,62
 824 355 824 355 878.5 402 c 128,-1,63
 933 449 933 449 933 537 c 0,64,65
 933 627 933 627 850 693 c 128,-1,66
 767 759 767 759 624 759 c 1,67,-1
 454 765 l 1,68,-1
 454 922 l 1,69,-1
 619 922 l 1,70,-1
 667 930 l 1,71,-1
 710 949 l 1,72,73
 771 967 771 967 808 1020.5 c 128,-1,74
 845 1074 845 1074 845 1121 c 128,-1,75
 845 1168 845 1168 829 1202 c 128,-1,76
 813 1236 813 1236 757 1298 c 1,77,-1
 667 1366 l 1,78,-1
 -1 1366 l 1,79,-1
 -1 1498 l 1,80,-1
 1838 1498 l 1,81,-1
 1838 1364 l 1,82,-1
 868 1364 l 1,38,-1
EndSplineSet
Validated: 1
EndChar

StartChar: l.vr
Encoding: 2315 2315 58
Width: 1951
GlyphClass: 2
Flags: W
LayerCount: 2
Fore
SplineSet
1145 1375 m 1,0,-1
 1145 869 l 1,1,-1
 1412 1004 l 1,2,-1
 1358 1133 l 1,3,-1
 1513 1197 l 1,4,-1
 1711 1118 l 1,5,-1
 1764 989 l 1,6,-1
 1614 920 l 1,7,-1
 1859 585 l 1,8,-1
 1854 577 l 1,9,-1
 1806 587 l 1,10,11
 1733 587 1733 587 1670 547 c 0,12,13
 1547 468 1547 468 1548 377 c 1,14,15
 1548 273 1548 273 1686 239 c 1,16,-1
 1772 234 l 2,17,18
 1785 234 1785 234 1811 239 c 1,19,-1
 1859 254 l 1,20,-1
 1920 290 l 1,21,-1
 1920 145 l 1,22,-1
 1800 102 l 1,23,-1
 1752 97 l 1,24,25
 1505 97 1505 97 1410 239 c 0,26,27
 1374 292 1374 292 1374.5 386.5 c 128,-1,28
 1375 481 1375 481 1444 562 c 128,-1,29
 1513 643 1513 643 1633 659 c 1,30,-1
 1484 885 l 1,31,-1
 1145 732 l 1,32,-1
 1145 193 l 1,33,-1
 975 193 l 1,34,-1
 975 681 l 1,35,-1
 326 343 l 1,36,-1
 251 483 l 1,37,-1
 533 613 l 1,38,-1
 581 686 l 1,39,40
 634 787 634 787 634 860 c 128,-1,41
 634 933 634 933 621 967.5 c 128,-1,42
 608 1002 608 1002 563 1024 c 1,43,-1
 504 1034 l 1,44,45
 441 1034 441 1034 378.5 1016.5 c 128,-1,46
 316 999 316 999 283 978 c 2,47,-1
 197 925 l 1,48,-1
 187 923 l 1,49,-1
 123 1064 l 1,50,-1
 187 1103 l 1,51,-1
 288 1144 l 1,52,-1
 405 1174 l 1,53,-1
 522 1184 l 1,54,55
 652 1184 652 1184 725.5 1121 c 128,-1,56
 799 1058 799 1058 799 946 c 2,57,-1
 799 920 l 2,58,59
 799 877 799 877 792 854 c 1,60,-1
 754 752 l 1,61,-1
 720 699 l 1,62,-1
 972 813 l 1,63,-1
 972 1375 l 1,64,-1
 -1 1375 l 1,65,-1
 -1 1509 l 1,66,-1
 1952 1509 l 1,67,-1
 1952 1375 l 1,68,-1
 1145 1375 l 1,0,-1
EndSplineSet
Validated: 33
EndChar

StartChar: l.vl
Encoding: 2316 2316 59
Width: 1674
GlyphClass: 2
Flags: W
LayerCount: 2
Fore
SplineSet
1413 1364 m 1,0,1
 1412 1101 1412 1101 1416 1067 c 0,2,3
 1417 1060 1417 1060 1418 1060 c 0,4,5
 1478 1026 1478 1026 1517.5 978 c 128,-1,6
 1557 930 1557 930 1578 875 c 128,-1,7
 1599 820 1599 820 1601.5 761 c 128,-1,8
 1604 702 1604 702 1589.5 645 c 128,-1,9
 1575 588 1575 588 1544.5 536 c 128,-1,10
 1514 484 1514 484 1468 443 c 0,11,12
 1447 424 1447 424 1428.5 408 c 128,-1,13
 1410 392 1410 392 1392 376.5 c 128,-1,14
 1374 361 1374 361 1355 345.5 c 128,-1,15
 1336 330 1336 330 1315 312 c 0,16,17
 1281 283 1281 283 1262 253 c 128,-1,18
 1243 223 1243 223 1234 196.5 c 128,-1,19
 1225 170 1225 170 1224.5 150 c 128,-1,20
 1224 130 1224 130 1228 122 c 0,21,22
 1251 75 1251 75 1279 51 c 128,-1,23
 1307 27 1307 27 1337.5 19.5 c 128,-1,24
 1368 12 1368 12 1399 19.5 c 128,-1,25
 1430 27 1430 27 1459 43.5 c 128,-1,26
 1488 60 1488 60 1512.5 83.5 c 128,-1,27
 1537 107 1537 107 1554.5 132.5 c 128,-1,28
 1572 158 1572 158 1580.5 183 c 128,-1,29
 1589 208 1589 208 1586 227 c 0,30,31
 1583 243 1583 243 1589 245 c 128,-1,32
 1595 247 1595 247 1607.5 238.5 c 128,-1,33
 1620 230 1620 230 1637 214 c 0,34,35
 1667 186 1667 186 1674 178 c 0,36,37
 1692 158 1692 158 1713 139 c 128,-1,38
 1734 120 1734 120 1751 103 c 0,39,40
 1758 96 1758 96 1739.5 71.5 c 128,-1,41
 1721 47 1721 47 1682 16.5 c 128,-1,42
 1643 -14 1643 -14 1587.5 -43.5 c 128,-1,43
 1532 -73 1532 -73 1466.5 -89.5 c 128,-1,44
 1401 -106 1401 -106 1327.5 -103 c 128,-1,45
 1254 -100 1254 -100 1180 -64 c 0,46,47
 1080 -16 1080 -16 1070.5 116 c 128,-1,48
 1061 248 1061 248 1125 324 c 1,49,50
 1132 342 1132 342 1163 375 c 128,-1,51
 1194 408 1194 408 1235 452 c 128,-1,52
 1276 496 1276 496 1325.5 536 c 128,-1,53
 1375 576 1375 576 1406.5 628.5 c 128,-1,54
 1438 681 1438 681 1447 743 c 128,-1,55
 1456 805 1456 805 1438 849 c 128,-1,56
 1420 893 1420 893 1364 928 c 128,-1,57
 1308 963 1308 963 1197 982 c 1,58,59
 1020 968 1020 968 964 808 c 1,60,-1
 946 683 l 1,61,-1
 944 650 l 1,62,-1
 810 650 l 1,63,-1
 812 683 l 2,64,65
 812 687 812 687 803 734 c 0,66,67
 794 779 794 779 768 831 c 0,68,69
 699 965 699 965 565 965 c 0,70,71
 433 965 433 965 368 895 c 128,-1,72
 303 825 303 825 302 663.5 c 128,-1,73
 301 502 301 502 380 406 c 0,74,75
 460 309 460 309 603 315 c 2,76,-1
 675 318 l 1,77,-1
 741 328 l 1,78,-1
 805 361 l 1,79,-1
 805 203 l 1,80,-1
 728 188 l 1,81,-1
 593 180 l 1,82,83
 389 180 389 180 261 303 c 1,84,85
 134 428 134 428 134 648 c 0,86,87
 134 866 134 866 244.5 992 c 128,-1,88
 355 1118 355 1118 545 1120 c 1,89,90
 646 1120 646 1120 725.5 1075.5 c 128,-1,91
 805 1031 805 1031 863 920 c 1,92,93
 873 948 873 948 883 969.5 c 128,-1,94
 893 991 893 991 906 1009 c 0,95,96
 921 1031 921 1031 935 1042 c 0,97,98
 973 1070 973 1070 975 1072 c 0,99,100
 1130 1153 1130 1153 1247 1101 c 1,101,-1
 1247 1090 l 1,102,-1
 1247 1364 l 1,103,-1
 -1 1364 l 1,104,-1
 -1 1498 l 1,105,-1
 1675 1498 l 1,106,-1
 1675 1364 l 1,107,-1
 1413 1364 l 1,0,1
EndSplineSet
Validated: 37
EndChar

StartChar: l.chandra
Encoding: 2317 2317 60
Width: 1369
GlyphClass: 2
Flags: W
LayerCount: 2
Fore
SplineSet
1024 1645 m 1,0,1
 904 1607 904 1607 831 1607 c 0,2,3
 597 1607 597 1607 466 1701 c 128,-1,4
 335 1795 335 1795 335 1962 c 2,5,-1
 335 1999 l 1,6,-1
 336 2027 l 1,7,-1
 500 2029 l 1,8,9
 500 1909 500 1909 559 1847.5 c 128,-1,10
 618 1786 618 1786 745 1760 c 1,11,-1
 834 1752 l 1,12,13
 1010 1752 1010 1752 1087 1884 c 1,14,-1
 1116 2029 l 1,15,-1
 1287 2029 l 1,16,-1
 1293 1991 l 1,17,18
 1293 1739 1293 1739 1024 1645 c 1,0,1
1125 205 m 1,19,20
 1139 205 1139 205 1157 219 c 1,21,-1
 1157 62 l 1,22,-1
 1050 43 l 1,23,-1
 816 22 l 1,24,25
 542 22 542 22 373 180.5 c 128,-1,26
 204 339 204 339 203 626 c 1,27,-1
 203 1363 l 1,28,-1
 -1 1363 l 1,29,-1
 -1 1497 l 1,30,-1
 1370 1497 l 1,31,-1
 1370 1363 l 1,32,-1
 1178 1363 l 1,33,-1
 1178 895 l 2,34,35
 1178 794 1178 794 1154 722 c 128,-1,36
 1130 650 1130 650 1028 589 c 1,37,-1
 962 560 l 1,38,-1
 872 540 l 1,39,-1
 768 540 l 1,40,-1
 738 552 l 1,41,-1
 738 695 l 1,42,-1
 832 687 l 1,43,-1
 866 690 l 1,44,-1
 933 717 l 2,45,46
 954 725 954 725 970 746 c 1,47,-1
 995 791 l 1,48,-1
 1008 873 l 1,49,-1
 1008 1363 l 1,50,-1
 374 1363 l 1,51,-1
 374 624 l 2,52,53
 374 451 374 451 406 386.5 c 128,-1,54
 438 322 438 322 489 281 c 128,-1,55
 540 240 540 240 624 202 c 1,56,-1
 667 189 l 1,57,-1
 837 174 l 1,58,-1
 914 174 l 1,59,-1
 982 184 l 1,60,-1
 1058 189 l 1,61,-1
 1125 205 l 1,19,20
EndSplineSet
Validated: 1
EndChar

StartChar: l.short.e
Encoding: 2318 2318 61
Width: 1369
GlyphClass: 2
Flags: W
LayerCount: 2
Fore
SplineSet
1093 1448 m 1,0,-1
 990 1448 l 1,1,-1
 990 1590 l 2,2,3
 990 1618 990 1618 968 1643 c 0,4,5
 919 1698 919 1698 841 1714 c 1,6,7
 748 1721 748 1721 682 1727 c 1,8,9
 542 1736 542 1736 483 1792 c 0,10,11
 413 1857 413 1857 414 2008 c 1,12,-1
 414 2144 l 1,13,-1
 528 2144 l 1,14,-1
 528 2038 l 1,15,16
 536 1899 536 1899 637 1886 c 0,17,18
 811 1864 811 1864 827 1862 c 0,19,20
 920 1849 920 1849 986 1790 c 1,21,22
 1050 1739 1050 1739 1076 1665 c 0,23,24
 1093 1616 1093 1616 1093 1587 c 2,25,-1
 1093 1448 l 1,0,-1
1125 205 m 1,26,27
 1139 205 1139 205 1157 219 c 1,28,-1
 1157 62 l 1,29,-1
 1050 43 l 1,30,-1
 816 22 l 1,31,32
 542 22 542 22 373 180.5 c 128,-1,33
 204 339 204 339 203 626 c 1,34,-1
 203 1363 l 1,35,-1
 -1 1363 l 1,36,-1
 -1 1497 l 1,37,-1
 1370 1497 l 1,38,-1
 1370 1363 l 1,39,-1
 1178 1363 l 1,40,-1
 1178 895 l 2,41,42
 1178 794 1178 794 1154 722 c 128,-1,43
 1130 650 1130 650 1028 589 c 1,44,-1
 962 560 l 1,45,-1
 872 540 l 1,46,-1
 768 540 l 1,47,-1
 738 552 l 1,48,-1
 738 695 l 1,49,-1
 832 687 l 1,50,-1
 866 690 l 1,51,-1
 933 717 l 2,52,53
 954 725 954 725 970 746 c 1,54,-1
 995 791 l 1,55,-1
 1008 873 l 1,56,-1
 1008 1363 l 1,57,-1
 374 1363 l 1,58,-1
 374 624 l 2,59,60
 374 451 374 451 406 386.5 c 128,-1,61
 438 322 438 322 489 281 c 128,-1,62
 540 240 540 240 624 202 c 1,63,-1
 667 189 l 1,64,-1
 837 174 l 1,65,-1
 914 174 l 1,66,-1
 982 184 l 1,67,-1
 1058 189 l 1,68,-1
 1125 205 l 1,26,27
EndSplineSet
Validated: 37
EndChar

StartChar: l.e
Encoding: 2319 2319 62
Width: 1369
GlyphClass: 2
Flags: W
LayerCount: 2
Fore
SplineSet
1125 205 m 1,0,1
 1139 205 1139 205 1157 219 c 1,2,-1
 1157 62 l 1,3,-1
 1050 43 l 1,4,-1
 816 22 l 1,5,6
 542 22 542 22 373 180.5 c 128,-1,7
 204 339 204 339 203 626 c 1,8,-1
 203 1363 l 1,9,-1
 -1 1363 l 1,10,-1
 -1 1497 l 1,11,-1
 1370 1497 l 1,12,-1
 1370 1363 l 1,13,-1
 1178 1363 l 1,14,-1
 1178 895 l 2,15,16
 1178 794 1178 794 1154 722 c 128,-1,17
 1130 650 1130 650 1028 589 c 1,18,-1
 962 560 l 1,19,-1
 872 540 l 1,20,-1
 768 540 l 1,21,-1
 738 552 l 1,22,-1
 738 695 l 1,23,-1
 832 687 l 1,24,-1
 866 690 l 1,25,-1
 933 717 l 2,26,27
 954 725 954 725 970 746 c 1,28,-1
 995 791 l 1,29,-1
 1008 873 l 1,30,-1
 1008 1363 l 1,31,-1
 374 1363 l 1,32,-1
 374 624 l 2,33,34
 374 451 374 451 406 386.5 c 128,-1,35
 438 322 438 322 489 281 c 128,-1,36
 540 240 540 240 624 202 c 1,37,-1
 667 189 l 1,38,-1
 837 174 l 1,39,-1
 914 174 l 1,40,-1
 982 184 l 1,41,-1
 1058 189 l 1,42,-1
 1125 205 l 1,0,1
EndSplineSet
Validated: 1
EndChar

StartChar: l.ai
Encoding: 2320 2320 63
Width: 1369
GlyphClass: 2
Flags: W
LayerCount: 2
Fore
SplineSet
1004 1384 m 1,0,-1
 978 1435 l 1,1,-1
 844 1624 l 1,2,-1
 753 1728 l 1,3,-1
 659 1796 l 1,4,-1
 544 1858 l 1,5,-1
 480 1885 l 1,6,-1
 365 1919 l 1,7,-1
 336 1941 l 1,8,-1
 309 2002 l 1,9,-1
 309 2047 l 1,10,-1
 318 2068 l 1,11,-1
 334 2084 l 1,12,-1
 357 2095 l 1,13,-1
 397 2101 l 1,14,-1
 461 2079 l 1,15,-1
 525 2050 l 1,16,-1
 646 1989 l 1,17,-1
 746 1913 l 1,18,-1
 887 1783 l 1,19,-1
 919 1743 l 1,20,-1
 959 1685 l 1,21,-1
 1025 1552 l 1,22,-1
 1076 1432 l 1,23,-1
 1090 1384 l 1,24,-1
 1004 1384 l 1,0,-1
1125 205 m 1,25,26
 1139 205 1139 205 1157 219 c 1,27,-1
 1157 62 l 1,28,-1
 1050 43 l 1,29,-1
 816 22 l 1,30,31
 542 22 542 22 373 180.5 c 128,-1,32
 204 339 204 339 203 626 c 1,33,-1
 203 1363 l 1,34,-1
 -1 1363 l 1,35,-1
 -1 1497 l 1,36,-1
 1370 1497 l 1,37,-1
 1370 1363 l 1,38,-1
 1178 1363 l 1,39,-1
 1178 895 l 2,40,41
 1178 794 1178 794 1154 722 c 128,-1,42
 1130 650 1130 650 1028 589 c 1,43,-1
 962 560 l 1,44,-1
 872 540 l 1,45,-1
 768 540 l 1,46,-1
 738 552 l 1,47,-1
 738 695 l 1,48,-1
 832 687 l 1,49,-1
 866 690 l 1,50,-1
 933 717 l 2,51,52
 954 725 954 725 970 746 c 1,53,-1
 995 791 l 1,54,-1
 1008 873 l 1,55,-1
 1008 1363 l 1,56,-1
 374 1363 l 1,57,-1
 374 624 l 2,58,59
 374 451 374 451 406 386.5 c 128,-1,60
 438 322 438 322 489 281 c 128,-1,61
 540 240 540 240 624 202 c 1,62,-1
 667 189 l 1,63,-1
 837 174 l 1,64,-1
 914 174 l 1,65,-1
 982 184 l 1,66,-1
 1058 189 l 1,67,-1
 1125 205 l 1,25,26
EndSplineSet
Validated: 5
EndChar

StartChar: l.chandrao
Encoding: 2321 2321 64
Width: 2286
GlyphClass: 2
Flags: W
LayerCount: 2
Fore
SplineSet
2135 1645 m 1,0,1
 2015 1607 2015 1607 1942 1607 c 0,2,3
 1708 1607 1708 1607 1577 1701 c 128,-1,4
 1446 1795 1446 1795 1446 1962 c 2,5,-1
 1446 1999 l 1,6,-1
 1447 2027 l 1,7,-1
 1611 2029 l 1,8,9
 1611 1909 1611 1909 1670 1847.5 c 128,-1,10
 1729 1786 1729 1786 1856 1760 c 1,11,-1
 1945 1752 l 1,12,13
 2121 1752 2121 1752 2198 1884 c 1,14,-1
 2227 2029 l 1,15,-1
 2398 2029 l 1,16,-1
 2404 1991 l 1,17,18
 2404 1739 2404 1739 2135 1645 c 1,0,1
2032 1364 m 1,19,-1
 2032 182 l 1,20,-1
 1861 182 l 1,21,-1
 1861 1364 l 1,22,-1
 1640 1364 l 1,23,-1
 1640 1498 l 1,24,-1
 2287 1498 l 1,25,-1
 2287 1364 l 1,26,-1
 2032 1364 l 1,19,-1
1493 1364 m 1,27,-1
 1493 182 l 1,28,-1
 1322 182 l 1,29,-1
 1322 786 l 1,30,-1
 1078 786 l 1,31,-1
 1078 927 l 1,32,-1
 1322 927 l 1,33,-1
 1322 1364 l 1,34,-1
 1101 1364 l 1,35,-1
 1101 1498 l 1,36,-1
 1748 1498 l 1,37,-1
 1748 1364 l 1,38,-1
 1493 1364 l 1,27,-1
852 288 m 1,39,40
 814 276 814 276 769 263.5 c 128,-1,41
 724 251 724 251 667 246 c 1,42,-1
 559 240 l 1,43,44
 447 240 447 240 358 262.5 c 128,-1,45
 269 285 269 285 207 331.5 c 128,-1,46
 145 378 145 378 112 448.5 c 128,-1,47
 79 519 79 519 79 616 c 2,48,-1
 79 650 l 1,49,-1
 239 650 l 1,50,51
 239 590 239 590 252.5 546.5 c 128,-1,52
 266 503 266 503 295 473.5 c 128,-1,53
 324 444 324 444 369.5 427 c 128,-1,54
 415 410 415 410 479 403 c 1,55,-1
 654 398 l 2,56,57
 664 398 664 398 685.5 401.5 c 128,-1,58
 707 405 707 405 734 414 c 128,-1,59
 761 423 761 423 789.5 437.5 c 128,-1,60
 818 452 818 452 841.5 474.5 c 128,-1,61
 865 497 865 497 880 527.5 c 128,-1,62
 895 558 895 558 895 599 c 0,63,64
 895 663 895 663 868 712.5 c 128,-1,65
 841 762 841 762 792.5 796 c 128,-1,66
 744 830 744 830 675.5 848 c 128,-1,67
 607 866 607 866 524 866 c 1,68,-1
 450 860 l 1,69,70
 435 860 435 860 428 855 c 1,71,-1
 417 850 l 1,72,-1
 417 1023 l 1,73,-1
 438 1015 l 1,74,-1
 491 1015 l 1,75,-1
 601 1023 l 1,76,77
 651 1031 651 1031 693 1048.5 c 128,-1,78
 735 1066 735 1066 765 1091.5 c 128,-1,79
 795 1117 795 1117 812 1150.5 c 128,-1,80
 829 1184 829 1184 829 1226 c 0,81,82
 829 1335 829 1335 679 1383 c 1,83,-1
 590 1394 l 1,84,-1
 579 1394 l 2,85,86
 568 1394 568 1394 556 1394.5 c 128,-1,87
 544 1395 544 1395 530 1395 c 0,88,89
 506 1395 506 1395 480 1391.5 c 128,-1,90
 454 1388 454 1388 428.5 1375.5 c 128,-1,91
 403 1363 403 1363 380 1339 c 128,-1,92
 357 1315 357 1315 338 1274 c 1,93,-1
 321 1221 l 1,94,-1
 164 1223 l 1,95,96
 179 1311 179 1311 215.5 1369 c 128,-1,97
 252 1427 252 1427 306 1462 c 128,-1,98
 360 1497 360 1497 429.5 1511.5 c 128,-1,99
 499 1526 499 1526 580 1526 c 0,100,101
 659 1526 659 1526 734 1510 c 128,-1,102
 809 1494 809 1494 867 1458 c 128,-1,103
 925 1422 925 1422 960 1364 c 128,-1,104
 995 1306 995 1306 995 1221 c 0,105,106
 995 1182 995 1182 986 1145 c 128,-1,107
 977 1108 977 1108 959 1075.5 c 128,-1,108
 941 1043 941 1043 913 1016.5 c 128,-1,109
 885 990 885 990 846 972 c 1,110,-1
 766 944 l 1,111,112
 822 936 822 936 876.5 908.5 c 128,-1,113
 931 881 931 881 974 836 c 128,-1,114
 1017 791 1017 791 1043.5 730.5 c 128,-1,115
 1070 670 1070 670 1070 597 c 0,116,117
 1070 377 1070 377 852 288 c 1,39,40
EndSplineSet
Validated: 5
EndChar

StartChar: l.short.o
Encoding: 2322 2322 65
Width: 2286
GlyphClass: 2
Flags: W
LayerCount: 2
Fore
SplineSet
2033 1448 m 1,0,-1
 1940 1448 l 1,1,-1
 1940 1590 l 2,2,3
 1940 1618 1940 1618 1918 1643 c 0,4,5
 1869 1698 1869 1698 1791 1714 c 1,6,7
 1698 1721 1698 1721 1632 1727 c 1,8,9
 1492 1736 1492 1736 1433 1792 c 0,10,11
 1363 1857 1363 1857 1364 2008 c 1,12,-1
 1364 2144 l 1,13,-1
 1478 2144 l 1,14,-1
 1478 2038 l 1,15,16
 1487 1886 1487 1886 1587 1886 c 0,17,18
 1599 1886 1599 1886 1777 1862 c 0,19,20
 1844 1853 1844 1853 1909 1802 c 1,21,22
 1992 1732 1992 1732 2016 1665 c 0,23,24
 2033 1616 2033 1616 2033 1587 c 2,25,-1
 2033 1448 l 1,0,-1
2032 1364 m 1,26,-1
 2032 182 l 1,27,-1
 1861 182 l 1,28,-1
 1861 1364 l 1,29,-1
 1640 1364 l 1,30,-1
 1640 1498 l 1,31,-1
 2287 1498 l 1,32,-1
 2287 1364 l 1,33,-1
 2032 1364 l 1,26,-1
1493 1364 m 1,34,-1
 1493 182 l 1,35,-1
 1322 182 l 1,36,-1
 1322 786 l 1,37,-1
 1078 786 l 1,38,-1
 1078 927 l 1,39,-1
 1322 927 l 1,40,-1
 1322 1364 l 1,41,-1
 1101 1364 l 1,42,-1
 1101 1498 l 1,43,-1
 1748 1498 l 1,44,-1
 1748 1364 l 1,45,-1
 1493 1364 l 1,34,-1
852 288 m 1,46,47
 814 276 814 276 769 263.5 c 128,-1,48
 724 251 724 251 667 246 c 1,49,-1
 559 240 l 1,50,51
 447 240 447 240 358 262.5 c 128,-1,52
 269 285 269 285 207 331.5 c 128,-1,53
 145 378 145 378 112 448.5 c 128,-1,54
 79 519 79 519 79 616 c 2,55,-1
 79 650 l 1,56,-1
 239 650 l 1,57,58
 239 590 239 590 252.5 546.5 c 128,-1,59
 266 503 266 503 295 473.5 c 128,-1,60
 324 444 324 444 369.5 427 c 128,-1,61
 415 410 415 410 479 403 c 1,62,-1
 654 398 l 2,63,64
 664 398 664 398 685.5 401.5 c 128,-1,65
 707 405 707 405 734 414 c 128,-1,66
 761 423 761 423 789.5 437.5 c 128,-1,67
 818 452 818 452 841.5 474.5 c 128,-1,68
 865 497 865 497 880 527.5 c 128,-1,69
 895 558 895 558 895 599 c 0,70,71
 895 663 895 663 868 712.5 c 128,-1,72
 841 762 841 762 792.5 796 c 128,-1,73
 744 830 744 830 675.5 848 c 128,-1,74
 607 866 607 866 524 866 c 1,75,-1
 450 860 l 1,76,77
 435 860 435 860 428 855 c 1,78,-1
 417 850 l 1,79,-1
 417 1023 l 1,80,-1
 438 1015 l 1,81,-1
 491 1015 l 1,82,-1
 601 1023 l 1,83,84
 651 1031 651 1031 693 1048.5 c 128,-1,85
 735 1066 735 1066 765 1091.5 c 128,-1,86
 795 1117 795 1117 812 1150.5 c 128,-1,87
 829 1184 829 1184 829 1226 c 0,88,89
 829 1335 829 1335 679 1383 c 1,90,-1
 590 1394 l 1,91,-1
 579 1394 l 2,92,93
 568 1394 568 1394 556 1394.5 c 128,-1,94
 544 1395 544 1395 530 1395 c 0,95,96
 506 1395 506 1395 480 1391.5 c 128,-1,97
 454 1388 454 1388 428.5 1375.5 c 128,-1,98
 403 1363 403 1363 380 1339 c 128,-1,99
 357 1315 357 1315 338 1274 c 1,100,-1
 321 1221 l 1,101,-1
 164 1223 l 1,102,103
 179 1311 179 1311 215.5 1369 c 128,-1,104
 252 1427 252 1427 306 1462 c 128,-1,105
 360 1497 360 1497 429.5 1511.5 c 128,-1,106
 499 1526 499 1526 580 1526 c 0,107,108
 659 1526 659 1526 734 1510 c 128,-1,109
 809 1494 809 1494 867 1458 c 128,-1,110
 925 1422 925 1422 960 1364 c 128,-1,111
 995 1306 995 1306 995 1221 c 0,112,113
 995 1182 995 1182 986 1145 c 128,-1,114
 977 1108 977 1108 959 1075.5 c 128,-1,115
 941 1043 941 1043 913 1016.5 c 128,-1,116
 885 990 885 990 846 972 c 1,117,-1
 766 944 l 1,118,119
 822 936 822 936 876.5 908.5 c 128,-1,120
 931 881 931 881 974 836 c 128,-1,121
 1017 791 1017 791 1043.5 730.5 c 128,-1,122
 1070 670 1070 670 1070 597 c 0,123,124
 1070 377 1070 377 852 288 c 1,46,47
EndSplineSet
Validated: 37
EndChar

StartChar: l.o
Encoding: 2323 2323 66
Width: 2286
GlyphClass: 2
Flags: W
LayerCount: 2
Fore
SplineSet
1905 1463 m 1,0,1
 1900 1476 1900 1476 1876 1514 c 1,2,-1
 1706 1756 l 1,3,-1
 1658 1806 l 1,4,-1
 1605 1849 l 1,5,-1
 1506 1908 l 1,6,-1
 1384 1964 l 1,7,-1
 1272 1999 l 1,8,-1
 1239 2020 l 1,9,-1
 1224 2046 l 1,10,-1
 1213 2081 l 1,11,-1
 1213 2126 l 1,12,-1
 1221 2147 l 1,13,-1
 1234 2164 l 1,14,-1
 1261 2174 l 1,15,-1
 1304 2179 l 1,16,-1
 1368 2157 l 1,17,-1
 1549 2068 l 1,18,-1
 1650 1992 l 1,19,-1
 1810 1836 l 1,20,-1
 1884 1719 l 1,21,-1
 1950 1572 l 1,22,-1
 1991 1463 l 1,23,-1
 1905 1463 l 1,0,1
2032 1364 m 1,24,-1
 2032 182 l 1,25,-1
 1861 182 l 1,26,-1
 1861 1364 l 1,27,-1
 1640 1364 l 1,28,-1
 1640 1498 l 1,29,-1
 2287 1498 l 1,30,-1
 2287 1364 l 1,31,-1
 2032 1364 l 1,24,-1
1493 1364 m 1,32,-1
 1493 182 l 1,33,-1
 1322 182 l 1,34,-1
 1322 786 l 1,35,-1
 1078 786 l 1,36,-1
 1078 927 l 1,37,-1
 1322 927 l 1,38,-1
 1322 1364 l 1,39,-1
 1101 1364 l 1,40,-1
 1101 1498 l 1,41,-1
 1748 1498 l 1,42,-1
 1748 1364 l 1,43,-1
 1493 1364 l 1,32,-1
852 288 m 1,44,45
 814 276 814 276 769 263.5 c 128,-1,46
 724 251 724 251 667 246 c 1,47,-1
 559 240 l 1,48,49
 447 240 447 240 358 262.5 c 128,-1,50
 269 285 269 285 207 331.5 c 128,-1,51
 145 378 145 378 112 448.5 c 128,-1,52
 79 519 79 519 79 616 c 2,53,-1
 79 650 l 1,54,-1
 239 650 l 1,55,56
 239 590 239 590 252.5 546.5 c 128,-1,57
 266 503 266 503 295 473.5 c 128,-1,58
 324 444 324 444 369.5 427 c 128,-1,59
 415 410 415 410 479 403 c 1,60,-1
 654 398 l 2,61,62
 664 398 664 398 685.5 401.5 c 128,-1,63
 707 405 707 405 734 414 c 128,-1,64
 761 423 761 423 789.5 437.5 c 128,-1,65
 818 452 818 452 841.5 474.5 c 128,-1,66
 865 497 865 497 880 527.5 c 128,-1,67
 895 558 895 558 895 599 c 0,68,69
 895 663 895 663 868 712.5 c 128,-1,70
 841 762 841 762 792.5 796 c 128,-1,71
 744 830 744 830 675.5 848 c 128,-1,72
 607 866 607 866 524 866 c 1,73,-1
 450 860 l 1,74,75
 435 860 435 860 428 855 c 1,76,-1
 417 850 l 1,77,-1
 417 1023 l 1,78,-1
 438 1015 l 1,79,-1
 491 1015 l 1,80,-1
 601 1023 l 1,81,82
 651 1031 651 1031 693 1048.5 c 128,-1,83
 735 1066 735 1066 765 1091.5 c 128,-1,84
 795 1117 795 1117 812 1150.5 c 128,-1,85
 829 1184 829 1184 829 1226 c 0,86,87
 829 1335 829 1335 679 1383 c 1,88,-1
 590 1394 l 1,89,-1
 579 1394 l 2,90,91
 568 1394 568 1394 556 1394.5 c 128,-1,92
 544 1395 544 1395 530 1395 c 0,93,94
 506 1395 506 1395 480 1391.5 c 128,-1,95
 454 1388 454 1388 428.5 1375.5 c 128,-1,96
 403 1363 403 1363 380 1339 c 128,-1,97
 357 1315 357 1315 338 1274 c 1,98,-1
 321 1221 l 1,99,-1
 164 1223 l 1,100,101
 179 1311 179 1311 215.5 1369 c 128,-1,102
 252 1427 252 1427 306 1462 c 128,-1,103
 360 1497 360 1497 429.5 1511.5 c 128,-1,104
 499 1526 499 1526 580 1526 c 0,105,106
 659 1526 659 1526 734 1510 c 128,-1,107
 809 1494 809 1494 867 1458 c 128,-1,108
 925 1422 925 1422 960 1364 c 128,-1,109
 995 1306 995 1306 995 1221 c 0,110,111
 995 1182 995 1182 986 1145 c 128,-1,112
 977 1108 977 1108 959 1075.5 c 128,-1,113
 941 1043 941 1043 913 1016.5 c 128,-1,114
 885 990 885 990 846 972 c 1,115,-1
 766 944 l 1,116,117
 822 936 822 936 876.5 908.5 c 128,-1,118
 931 881 931 881 974 836 c 128,-1,119
 1017 791 1017 791 1043.5 730.5 c 128,-1,120
 1070 670 1070 670 1070 597 c 0,121,122
 1070 377 1070 377 852 288 c 1,44,45
EndSplineSet
Validated: 5
EndChar

StartChar: l.au
Encoding: 2324 2324 67
Width: 2286
GlyphClass: 2
Flags: W
LayerCount: 2
Fore
SplineSet
2007 1463 m 1,0,-1
 1968 1557 l 1,1,-1
 1909 1666 l 2,2,3
 1886 1709 1886 1709 1864 1742 c 128,-1,4
 1842 1775 1842 1775 1812.5 1807 c 128,-1,5
 1783 1839 1783 1839 1742 1873.5 c 128,-1,6
 1701 1908 1701 1908 1640 1950 c 1,7,-1
 1491 2040 l 1,8,-1
 1453 2088 l 1,9,-1
 1445 2116 l 1,10,-1
 1458 2149 l 1,11,-1
 1506 2172 l 1,12,-1
 1549 2164 l 1,13,-1
 1623 2131 l 1,14,-1
 1666 2108 l 2,15,16
 1690 2095 1690 2095 1712.5 2081.5 c 128,-1,17
 1735 2068 1735 2068 1755 2045 c 1,18,-1
 1826 1982 l 1,19,-1
 1906 1870 l 1,20,-1
 1991 1732 l 1,21,22
 2093 1522 2093 1522 2093 1458 c 1,23,-1
 2007 1463 l 1,0,-1
1789 1463 m 1,24,-1
 1712 1534 l 2,25,26
 1661 1580 1661 1580 1587.5 1627 c 128,-1,27
 1514 1674 1514 1674 1417 1719 c 1,28,-1
 1300 1763 l 1,29,-1
 1120 1804 l 1,30,-1
 1016 1819 l 1,31,-1
 988 1857 l 1,32,-1
 975 1895 l 1,33,-1
 975 1926 l 1,34,-1
 1009 1964 l 1,35,-1
 1054 1976 l 1,36,-1
 1166 1961 l 2,37,38
 1257 1948 1257 1948 1354 1910 c 128,-1,39
 1451 1872 1451 1872 1547 1808.5 c 128,-1,40
 1643 1745 1643 1745 1730.5 1657.5 c 128,-1,41
 1818 1570 1818 1570 1890 1458 c 1,42,-1
 1789 1463 l 1,24,-1
2032 1364 m 1,43,-1
 2032 182 l 1,44,-1
 1861 182 l 1,45,-1
 1861 1364 l 1,46,-1
 1640 1364 l 1,47,-1
 1640 1498 l 1,48,-1
 2287 1498 l 1,49,-1
 2287 1364 l 1,50,-1
 2032 1364 l 1,43,-1
1493 1364 m 1,51,-1
 1493 182 l 1,52,-1
 1322 182 l 1,53,-1
 1322 786 l 1,54,-1
 1078 786 l 1,55,-1
 1078 927 l 1,56,-1
 1322 927 l 1,57,-1
 1322 1364 l 1,58,-1
 1101 1364 l 1,59,-1
 1101 1498 l 1,60,-1
 1748 1498 l 1,61,-1
 1748 1364 l 1,62,-1
 1493 1364 l 1,51,-1
852 288 m 1,63,64
 814 276 814 276 769 263.5 c 128,-1,65
 724 251 724 251 667 246 c 1,66,-1
 559 240 l 1,67,68
 447 240 447 240 358 262.5 c 128,-1,69
 269 285 269 285 207 331.5 c 128,-1,70
 145 378 145 378 112 448.5 c 128,-1,71
 79 519 79 519 79 616 c 2,72,-1
 79 650 l 1,73,-1
 239 650 l 1,74,75
 239 590 239 590 252.5 546.5 c 128,-1,76
 266 503 266 503 295 473.5 c 128,-1,77
 324 444 324 444 369.5 427 c 128,-1,78
 415 410 415 410 479 403 c 1,79,-1
 654 398 l 2,80,81
 664 398 664 398 685.5 401.5 c 128,-1,82
 707 405 707 405 734 414 c 128,-1,83
 761 423 761 423 789.5 437.5 c 128,-1,84
 818 452 818 452 841.5 474.5 c 128,-1,85
 865 497 865 497 880 527.5 c 128,-1,86
 895 558 895 558 895 599 c 0,87,88
 895 663 895 663 868 712.5 c 128,-1,89
 841 762 841 762 792.5 796 c 128,-1,90
 744 830 744 830 675.5 848 c 128,-1,91
 607 866 607 866 524 866 c 1,92,-1
 450 860 l 1,93,94
 435 860 435 860 428 855 c 1,95,-1
 417 850 l 1,96,-1
 417 1023 l 1,97,-1
 438 1015 l 1,98,-1
 491 1015 l 1,99,-1
 601 1023 l 1,100,101
 651 1031 651 1031 693 1048.5 c 128,-1,102
 735 1066 735 1066 765 1091.5 c 128,-1,103
 795 1117 795 1117 812 1150.5 c 128,-1,104
 829 1184 829 1184 829 1226 c 0,105,106
 829 1335 829 1335 679 1383 c 1,107,-1
 590 1394 l 1,108,-1
 579 1394 l 2,109,110
 568 1394 568 1394 556 1394.5 c 128,-1,111
 544 1395 544 1395 530 1395 c 0,112,113
 506 1395 506 1395 480 1391.5 c 128,-1,114
 454 1388 454 1388 428.5 1375.5 c 128,-1,115
 403 1363 403 1363 380 1339 c 128,-1,116
 357 1315 357 1315 338 1274 c 1,117,-1
 321 1221 l 1,118,-1
 164 1223 l 1,119,120
 179 1311 179 1311 215.5 1369 c 128,-1,121
 252 1427 252 1427 306 1462 c 128,-1,122
 360 1497 360 1497 429.5 1511.5 c 128,-1,123
 499 1526 499 1526 580 1526 c 0,124,125
 659 1526 659 1526 734 1510 c 128,-1,126
 809 1494 809 1494 867 1458 c 128,-1,127
 925 1422 925 1422 960 1364 c 128,-1,128
 995 1306 995 1306 995 1221 c 0,129,130
 995 1182 995 1182 986 1145 c 128,-1,131
 977 1108 977 1108 959 1075.5 c 128,-1,132
 941 1043 941 1043 913 1016.5 c 128,-1,133
 885 990 885 990 846 972 c 1,134,-1
 766 944 l 1,135,136
 822 936 822 936 876.5 908.5 c 128,-1,137
 931 881 931 881 974 836 c 128,-1,138
 1017 791 1017 791 1043.5 730.5 c 128,-1,139
 1070 670 1070 670 1070 597 c 0,140,141
 1070 377 1070 377 852 288 c 1,63,64
EndSplineSet
Validated: 5
EndChar

StartChar: l.ka
Encoding: 2325 2325 68
Width: 1751
GlyphClass: 2
Flags: W
AnchorPoint: "Anchor-0" 951 1464 basechar 0
LayerCount: 2
Fore
SplineSet
975 1364 m 1,0,-1
 975 1064 l 1,1,-1
 1028 1097 l 1,2,-1
 1098 1127 l 1,3,-1
 1162 1143 l 1,4,-1
 1231 1148 l 1,5,6
 1409 1148 1409 1148 1533 1041.5 c 128,-1,7
 1657 935 1657 935 1657 758 c 128,-1,8
 1657 581 1657 581 1546.5 460.5 c 128,-1,9
 1436 340 1436 340 1258 340 c 1,10,-1
 1167 350 l 1,11,-1
 1167 499 l 1,12,-1
 1236 490 l 1,13,14
 1332 490 1332 490 1409.5 558.5 c 128,-1,15
 1487 627 1487 627 1487 744 c 128,-1,16
 1487 861 1487 861 1424 922 c 128,-1,17
 1361 983 1361 983 1241 983 c 1,18,-1
 1173 975 l 1,19,-1
 1135 965 l 1,20,-1
 1018 906 l 1,21,22
 985 888 985 888 975 866 c 1,23,-1
 975 182 l 1,24,-1
 810 182 l 1,25,-1
 810 467 l 1,26,-1
 685 408 l 1,27,-1
 595 390 l 1,28,-1
 536 388 l 1,29,30
 347 388 347 388 228.5 495 c 128,-1,31
 110 602 110 602 110 774.5 c 128,-1,32
 110 947 110 947 217 1050 c 128,-1,33
 324 1153 324 1153 539 1153 c 1,34,-1
 629 1148 l 1,35,-1
 677 997 l 1,36,-1
 560 1016 l 1,37,38
 446 1016 446 1016 362 954.5 c 128,-1,39
 278 893 278 893 278 774 c 128,-1,40
 278 655 278 655 368 589 c 1,41,-1
 446 553 l 1,42,-1
 539 541 l 1,43,44
 597 541 597 541 640 555 c 1,45,-1
 688 568 l 1,46,-1
 773 622 l 1,47,-1
 805 655 l 1,48,-1
 805 1364 l 1,49,-1
 -1 1364 l 1,50,-1
 -1 1498 l 1,51,-1
 1752 1498 l 1,52,-1
 1752 1364 l 1,53,-1
 975 1364 l 1,0,-1
EndSplineSet
Validated: 1
EndChar

StartChar: l.kh
Encoding: 2326 2326 69
Width: 1939
GlyphClass: 2
Flags: W
LayerCount: 2
Fore
SplineSet
1465 507 m 1,0,-1
 1402 485 l 1,1,-1
 1259 472 l 1,2,3
 1259 453 1259 453 1250 432 c 2,4,-1
 1221 363 l 1,5,6
 1125 182 1125 182 822 182 c 0,7,8
 571 182 571 182 422 342 c 256,9,10
 273 502 273 502 273 714 c 1,11,-1
 113 741 l 1,12,-1
 113 896 l 1,13,-1
 137 885 l 1,14,-1
 198 874 l 1,15,-1
 431 874 l 1,16,17
 522 887 522 887 578.5 939 c 128,-1,18
 635 991 635 991 635 1064.5 c 128,-1,19
 635 1138 635 1138 615.5 1182 c 128,-1,20
 596 1226 596 1226 571 1262 c 2,21,-1
 497 1364 l 1,22,-1
 -1 1364 l 1,23,-1
 -1 1498 l 1,24,-1
 1940 1498 l 1,25,-1
 1940 1364 l 1,26,-1
 1684 1364 l 1,27,-1
 1684 182 l 1,28,-1
 1514 182 l 1,29,-1
 1514 533 l 1,30,-1
 1465 507 l 1,0,-1
1514 1364 m 1,31,-1
 678 1364 l 1,32,-1
 718 1308 l 1,33,34
 753 1257 753 1257 784 1145 c 1,35,-1
 795 1063 l 1,36,37
 795 833 795 833 581 751 c 0,38,39
 513 725 513 725 422 725 c 1,40,41
 422 688 422 688 428 667 c 2,42,-1
 441 616 l 1,43,-1
 462 563 l 1,44,-1
 497 507 l 1,45,46
 604 332 604 332 832 332 c 0,47,48
 1003 332 1003 332 1068 438 c 1,49,50
 1087 472 1087 472 1104 512 c 1,51,52
 923 609 923 609 922 820 c 1,53,54
 922 1127 922 1127 1259 1173 c 1,55,-1
 1356 1178 l 1,56,-1
 1376 1175 l 1,57,-1
 1397 1036 l 1,58,-1
 1306 1039 l 2,59,60
 1215 1041 1215 1041 1158 982.5 c 128,-1,61
 1101 924 1101 924 1101 847 c 128,-1,62
 1101 770 1101 770 1130.5 718.5 c 128,-1,63
 1160 667 1160 667 1247 632 c 1,64,-1
 1338 621 l 1,65,-1
 1386 627 l 1,66,-1
 1465 661 l 1,67,-1
 1514 725 l 1,68,-1
 1514 1364 l 1,31,-1
EndSplineSet
Validated: 33
EndChar

StartChar: l.ga
Encoding: 2327 2327 70
Width: 1570
GlyphClass: 2
Flags: W
LayerCount: 2
Fore
SplineSet
448 853 m 1,0,1
 278 853 278 853 278 745 c 0,2,3
 278 653 278 653 328.5 590.5 c 128,-1,4
 379 528 379 528 483 528 c 0,5,6
 656 528 656 528 682 787 c 1,7,-1
 687 879 l 1,8,9
 687 1186 687 1186 502 1361 c 1,10,-1
 -1 1361 l 1,11,-1
 -1 1498 l 1,12,-1
 1571 1498 l 1,13,-1
 1571 1364 l 1,14,-1
 1317 1364 l 1,15,-1
 1317 182 l 1,16,-1
 1140 182 l 1,17,-1
 1140 1364 l 1,18,-1
 695 1364 l 1,19,20
 711 1334 711 1334 728 1308 c 1,21,22
 745 1284 745 1284 756 1255 c 2,23,-1
 805 1130 l 1,24,25
 853 999 853 999 853 879 c 0,26,27
 853 373 853 373 461 373 c 0,28,29
 230 373 230 373 141 570 c 0,30,31
 112 635 112 635 113 720 c 1,32,33
 113 845 113 845 217 922 c 1,34,-1
 262 947 l 1,35,-1
 326 967 l 1,36,-1
 453 1000 l 1,37,-1
 448 853 l 1,0,1
EndSplineSet
Validated: 33
EndChar

StartChar: l.gha
Encoding: 2328 2328 71
Width: 1366
GlyphClass: 2
Flags: W
LayerCount: 2
Fore
SplineSet
912 462 m 1,0,-1
 873 429 l 1,1,-1
 827 411 l 1,2,-1
 713 381 l 1,3,-1
 609 373 l 1,4,5
 435 373 435 373 316.5 457.5 c 128,-1,6
 198 542 198 542 198 664.5 c 128,-1,7
 198 787 198 787 274 853 c 1,8,-1
 327 891 l 1,9,-1
 401 919 l 1,10,11
 350 927 350 927 324 941 c 2,12,-1
 260 975 l 1,13,14
 167 1044 167 1044 167 1132.5 c 128,-1,15
 167 1221 167 1221 203 1282 c 1,16,-1
 231 1324 l 1,17,-1
 263 1361 l 1,18,-1
 -1 1361 l 1,19,-1
 -1 1498 l 1,20,-1
 1367 1498 l 1,21,-1
 1367 1364 l 1,22,-1
 1112 1364 l 1,23,-1
 1112 182 l 1,24,-1
 942 182 l 1,25,-1
 942 499 l 1,26,-1
 912 462 l 1,0,-1
480 1364 m 1,27,28
 435 1351 435 1351 380 1287 c 1,29,-1
 358 1255 l 1,30,-1
 337 1194 l 1,31,-1
 337 1162 l 2,32,33
 337 1099 337 1099 386.5 1056 c 128,-1,34
 436 1013 436 1013 520 997 c 1,35,-1
 688 991 l 1,36,-1
 699 997 l 1,37,-1
 699 876 l 1,38,-1
 609 869 l 1,39,-1
 540 853 l 1,40,41
 378 813 378 813 378 688 c 128,-1,42
 378 563 378 563 534 525 c 1,43,-1
 635 518 l 1,44,-1
 734 528 l 1,45,46
 782 536 782 536 817 563 c 1,47,-1
 848 584 l 1,48,-1
 939 693 l 1,49,-1
 939 1364 l 1,50,-1
 480 1364 l 1,27,28
EndSplineSet
Validated: 1
EndChar

StartChar: l.nga
Encoding: 2329 2329 72
Width: 1464
GlyphClass: 2
Flags: W
LayerCount: 2
Fore
SplineSet
1434 965 m 1,0,1
 1434 918 1434 918 1396 871 c 1,2,-1
 1351 843 l 1,3,-1
 1305 832 l 1,4,5
 1244 832 1244 832 1216 871 c 1,6,-1
 1183 914 l 1,7,-1
 1173 965 l 1,8,9
 1173 1042 1173 1042 1255 1082 c 1,10,-1
 1305 1092 l 1,11,12
 1396 1092 1396 1092 1422 1021 c 1,13,-1
 1434 965 l 1,0,1
1045 1364 m 1,14,-1
 1045 1034 l 1,15,-1
 558 1034 l 1,16,-1
 464 1026 l 1,17,18
 421 1026 421 1026 379 1000.5 c 128,-1,19
 337 975 337 975 337 918 c 128,-1,20
 337 861 337 861 398 830 c 1,21,-1
 469 813 l 1,22,-1
 848 823 l 1,23,24
 959 823 959 823 1052 742 c 128,-1,25
 1145 661 1145 661 1145 523 c 128,-1,26
 1145 385 1145 385 1042 286 c 128,-1,27
 939 187 939 187 754 187 c 1,28,-1
 642 182 l 1,29,30
 312 182 312 182 182 360 c 1,31,-1
 108 555 l 1,32,-1
 271 555 l 1,33,-1
 297 480 l 1,34,-1
 321 437 l 1,35,36
 410 325 410 325 635 325 c 2,37,-1
 720 325 l 1,38,39
 872 345 872 345 944 434 c 0,40,41
 976 475 976 475 975.5 540 c 128,-1,42
 975 605 975 605 917 648 c 1,43,-1
 853 670 l 1,44,-1
 774 678 l 1,45,-1
 390 678 l 1,46,-1
 337 690 l 1,47,48
 273 706 273 706 223.5 774.5 c 128,-1,49
 174 843 174 843 174 919 c 0,50,51
 174 1069 174 1069 312 1140 c 1,52,-1
 368 1156 l 1,53,-1
 454 1173 l 1,54,-1
 888 1173 l 1,55,-1
 888 1364 l 1,56,-1
 -1 1364 l 1,57,-1
 -1 1498 l 1,58,-1
 1465 1498 l 1,59,-1
 1465 1364 l 1,60,-1
 1045 1364 l 1,14,-1
EndSplineSet
Validated: 33
EndChar

StartChar: l.ca
Encoding: 2330 2330 73
Width: 1401
GlyphClass: 2
Flags: W
LayerCount: 2
Fore
SplineSet
1146 1364 m 1,0,-1
 1146 182 l 1,1,-1
 975 182 l 1,2,-1
 975 490 l 1,3,-1
 922 454 l 1,4,-1
 864 421 l 1,5,-1
 752 385 l 1,6,-1
 635 373 l 1,7,8
 487 373 487 373 409 415 c 0,9,10
 241 505 241 505 241 709 c 0,11,12
 241 808 241 808 332 914 c 1,13,-1
 401 983 l 1,14,-1
 103 983 l 1,15,-1
 103 1125 l 1,16,-1
 827 1125 l 1,17,-1
 827 983 l 1,18,-1
 635 983 l 1,19,-1
 523 912 l 1,20,21
 446 850 446 850 416 765 c 1,22,-1
 409 711 l 1,23,24
 409 605 409 605 487 558 c 1,25,-1
 558 528 l 1,26,-1
 657 520 l 1,27,-1
 754 531 l 1,28,29
 792 540 792 540 845 566 c 1,30,-1
 929 614 l 1,31,32
 942 624 942 624 952 637 c 128,-1,33
 962 650 962 650 973 664 c 1,34,-1
 973 1364 l 1,35,-1
 -1 1364 l 1,36,-1
 -1 1498 l 1,37,-1
 1402 1498 l 1,38,-1
 1402 1364 l 1,39,-1
 1146 1364 l 1,0,-1
EndSplineSet
Validated: 1
EndChar

StartChar: l.cha
Encoding: 2331 2331 74
Width: 1566
GlyphClass: 2
Flags: W
LayerCount: 2
Fore
SplineSet
1199 1364 m 1,0,-1
 1199 1119 l 1,1,2
 1361 1074 1361 1074 1421.5 983.5 c 128,-1,3
 1482 893 1482 893 1482 774 c 0,4,5
 1482 533 1482 533 1300 384 c 128,-1,6
 1118 235 1118 235 805 235 c 0,7,8
 367 235 367 235 237 452 c 0,9,10
 193 525 193 525 193 639.5 c 128,-1,11
 193 754 193 754 273 807 c 1,12,-1
 329 845 l 1,13,-1
 401 871 l 1,14,15
 358 878 358 878 324 901 c 1,16,-1
 260 935 l 1,17,18
 215 965 215 965 189.5 1002 c 128,-1,19
 164 1039 164 1039 164 1117.5 c 128,-1,20
 164 1196 164 1196 210 1265 c 1,21,-1
 249 1313 l 1,22,-1
 299 1364 l 1,23,-1
 -1 1364 l 1,24,-1
 -1 1498 l 1,25,-1
 1567 1498 l 1,26,-1
 1567 1364 l 1,27,-1
 1199 1364 l 1,0,-1
1315 845 m 1,28,29
 1302 906 1302 906 1260.5 943 c 128,-1,30
 1219 980 1219 980 1159 980 c 0,31,32
 1051 980 1051 980 1018 891 c 1,33,-1
 1008 837 l 1,34,-1
 1018 794 l 2,35,36
 1022 775 1022 775 1040 751 c 1,37,-1
 1082 714 l 1,38,-1
 970 616 l 1,39,40
 934 639 934 639 926 650 c 2,41,-1
 888 701 l 1,42,-1
 864 762 l 1,43,-1
 856 832 l 1,44,45
 856 1005 856 1005 942 1069 c 1,46,-1
 965 1087 l 1,47,-1
 1023 1109 l 1,48,-1
 1051 1112 l 1,49,-1
 1051 1364 l 1,50,-1
 502 1364 l 1,51,-1
 451 1323 l 1,52,-1
 419 1290 l 1,53,54
 333 1196 333 1196 335 1121 c 1,55,56
 335 1045 335 1045 412 1006 c 128,-1,57
 489 967 489 967 528 967 c 1,58,-1
 630 959 l 1,59,-1
 673 962 l 1,60,61
 693 962 693 962 699 967 c 1,62,-1
 699 823 l 1,63,-1
 667 823 l 2,64,65
 635 823 635 823 606 813 c 1,66,-1
 526 789 l 1,67,68
 368 725 368 725 368 618 c 128,-1,69
 368 511 368 511 490.5 449 c 128,-1,70
 613 387 613 387 763 387 c 0,71,72
 1025 387 1025 387 1175 488.5 c 128,-1,73
 1325 590 1325 590 1325 762 c 0,74,75
 1325 815 1325 815 1315 845 c 1,28,29
EndSplineSet
Validated: 33
EndChar

StartChar: l.ja
Encoding: 2332 2332 75
Width: 1711
GlyphClass: 2
Flags: W
LayerCount: 2
Fore
SplineSet
1455 1364 m 1,0,-1
 1455 182 l 1,1,-1
 1285 182 l 1,2,-1
 1285 935 l 1,3,-1
 939 935 l 1,4,-1
 1008 837 l 1,5,6
 1045 742 1045 742 1049 696 c 1,7,-1
 1051 645 l 1,8,9
 1051 456 1051 456 869 347 c 1,10,-1
 795 310 l 1,11,12
 731 286 731 286 640 286 c 0,13,14
 406 286 406 286 274 455 c 128,-1,15
 142 624 142 624 142 952 c 2,16,-1
 142 1051 l 1,17,-1
 152 1082 l 1,18,-1
 317 1082 l 1,19,-1
 305 1042 l 1,20,-1
 305 861 l 2,21,22
 305 810 305 810 317 782 c 1,23,-1
 363 635 l 1,24,25
 430 451 430 451 635 451 c 0,26,27
 739 451 739 451 804 516 c 128,-1,28
 869 581 869 581 869 678.5 c 128,-1,29
 869 776 869 776 795 866 c 1,30,-1
 721 935 l 1,31,-1
 582 935 l 1,32,-1
 582 1084 l 1,33,-1
 1283 1084 l 1,34,-1
 1283 1364 l 1,35,-1
 -1 1364 l 1,36,-1
 -1 1498 l 1,37,-1
 1712 1498 l 1,38,-1
 1712 1364 l 1,39,-1
 1455 1364 l 1,0,-1
EndSplineSet
Validated: 1
EndChar

StartChar: l.jha
Encoding: 2333 2333 76
Width: 1633
GlyphClass: 2
Flags: W
LayerCount: 2
Fore
SplineSet
1379 1364 m 1,0,-1
 1379 182 l 1,1,-1
 1208 182 l 1,2,-1
 1208 597 l 1,3,-1
 1077 597 l 1,4,-1
 1088 528 l 1,5,6
 1088 376 1088 376 978.5 292 c 128,-1,7
 869 208 869 208 694 187 c 1,8,-1
 579 182 l 1,9,10
 586 134 586 134 594 118 c 1,11,-1
 625 65 l 1,12,13
 641 43 641 43 673 22 c 2,14,-1
 731 -16 l 1,15,-1
 805 -26 l 1,16,-1
 859 -26 l 1,17,-1
 912 -13 l 1,18,-1
 848 -175 l 1,19,-1
 792 -181 l 1,20,-1
 744 -175 l 1,21,22
 712 -175 712 -175 694 -164 c 1,23,-1
 657 -151 l 1,24,-1
 579 -108 l 2,25,26
 543 -88 543 -88 521 -57 c 1,27,-1
 465 14 l 1,28,-1
 422 96 l 1,29,-1
 401 185 l 1,30,-1
 220 208 l 1,31,-1
 129 347 l 1,32,-1
 231 480 l 1,33,-1
 380 480 l 1,34,-1
 484 334 l 1,35,-1
 649 328 l 1,36,37
 761 328 761 328 844 394 c 1,38,39
 929 460 929 460 929 524.5 c 128,-1,40
 929 589 929 589 902.5 618 c 128,-1,41
 876 647 876 647 805 660 c 1,42,-1
 699 670 l 1,43,-1
 391 670 l 1,44,-1
 332 675 l 1,45,-1
 279 690 l 1,46,47
 205 706 205 706 162 767.5 c 128,-1,48
 119 829 119 829 119 898 c 0,49,50
 119 1026 119 1026 210.5 1094 c 128,-1,51
 302 1162 302 1162 529 1162 c 1,52,-1
 635 1158 l 1,53,-1
 764 1148 l 1,54,-1
 764 1364 l 1,55,-1
 -1 1364 l 1,56,-1
 -1 1498 l 1,57,-1
 1634 1498 l 1,58,-1
 1634 1364 l 1,59,-1
 1379 1364 l 1,0,-1
1206 1364 m 1,60,-1
 909 1364 l 1,61,-1
 909 983 l 1,62,-1
 835 1005 l 1,63,-1
 742 1015 l 1,64,-1
 409 1018 l 2,65,66
 331 1019 331 1019 296 963 c 0,67,68
 282 941 282 941 282 899.5 c 128,-1,69
 282 858 282 858 324 823 c 1,70,-1
 380 807 l 1,71,-1
 452 807 l 1,72,-1
 750 829 l 1,73,74
 863 829 863 829 917 800 c 1,75,-1
 1003 738 l 1,76,-1
 1206 738 l 1,77,-1
 1206 1364 l 1,60,-1
EndSplineSet
Validated: 33
EndChar

StartChar: l.nya
Encoding: 2334 2334 77
Width: 1444
GlyphClass: 2
Flags: W
LayerCount: 2
Fore
SplineSet
1189 1364 m 1,0,-1
 1189 182 l 1,1,-1
 1018 182 l 1,2,-1
 1018 1364 l 1,3,-1
 -1 1364 l 1,4,-1
 -1 1498 l 1,5,-1
 1445 1498 l 1,6,-1
 1445 1364 l 1,7,-1
 1189 1364 l 1,0,-1
475 1175 m 1,8,9
 819 1175 819 1175 886 840 c 1,10,-1
 1112 840 l 1,11,-1
 1112 698 l 1,12,-1
 875 698 l 1,13,14
 875 597 875 597 835 533.5 c 128,-1,15
 795 470 795 470 678 411 c 1,16,-1
 569 376 l 1,17,-1
 462 366 l 1,18,-1
 342 373 l 1,19,20
 262 384 262 384 198 420 c 128,-1,21
 134 456 134 456 124 470 c 1,22,-1
 124 670 l 1,23,-1
 137 650 l 1,24,-1
 180 616 l 1,25,-1
 261 568 l 1,26,-1
 313 544 l 1,27,28
 363 528 363 528 411 528 c 0,29,30
 547 528 547 528 626 597.5 c 128,-1,31
 705 667 705 667 705 771 c 128,-1,32
 705 875 705 875 628.5 949 c 128,-1,33
 552 1023 552 1023 441 1023 c 1,34,-1
 337 1008 l 1,35,-1
 268 986 l 1,36,-1
 268 1138 l 1,37,-1
 337 1156 l 1,38,-1
 475 1175 l 1,8,9
EndSplineSet
Validated: 5
EndChar

StartChar: l.tta
Encoding: 2335 2335 78
Width: 1240
GlyphClass: 2
Flags: W
LayerCount: 2
Fore
SplineSet
922 1364 m 1,0,-1
 922 972 l 1,1,-1
 571 972 l 2,2,3
 535 972 535 972 497 959 c 2,4,-1
 443 941 l 1,5,6
 316 878 316 878 316 701 c 0,7,8
 316 566 316 566 410 482 c 128,-1,9
 504 398 504 398 681 398 c 128,-1,10
 858 398 858 398 944 477 c 1,11,-1
 965 507 l 1,12,-1
 984 546 l 1,13,-1
 994 594 l 1,14,-1
 994 653 l 1,15,-1
 1157 653 l 1,16,-1
 1152 560 l 1,17,18
 1152 517 1152 517 1135 482 c 2,19,-1
 1106 421 l 1,20,-1
 1069 371 l 1,21,22
 933 235 933 235 679.5 235 c 128,-1,23
 426 235 426 235 280.5 361.5 c 128,-1,24
 135 488 135 488 134.5 716 c 128,-1,25
 134 944 134 944 312 1056 c 1,26,-1
 382 1082 l 1,27,-1
 486 1114 l 1,28,-1
 763 1114 l 1,29,-1
 763 1364 l 1,30,-1
 -1 1364 l 1,31,-1
 -1 1498 l 1,32,-1
 1241 1498 l 1,33,-1
 1241 1364 l 1,34,-1
 922 1364 l 1,0,-1
EndSplineSet
Validated: 33
EndChar

StartChar: l.ttha
Encoding: 2336 2336 79
Width: 1240
GlyphClass: 2
Flags: W
LayerCount: 2
Fore
SplineSet
667 983 m 2,0,1
 311 983 311 983 309 712 c 1,2,3
 309 566 309 566 396 476.5 c 128,-1,4
 483 387 483 387 657.5 387 c 128,-1,5
 832 387 832 387 913 466.5 c 128,-1,6
 994 546 994 546 994 670 c 0,7,8
 994 728 994 728 944 802 c 1,9,-1
 888 861 l 1,10,-1
 1028 935 l 1,11,-1
 1093 863 l 1,12,13
 1157 775 1157 775 1157 664 c 0,14,15
 1157 476 1157 476 1035.5 355.5 c 128,-1,16
 914 235 914 235 672 235 c 128,-1,17
 430 235 430 235 286 362.5 c 128,-1,18
 142 490 142 490 142 685.5 c 128,-1,19
 142 881 142 881 257 1000 c 128,-1,20
 372 1119 372 1119 586 1125 c 1,21,-1
 763 1127 l 1,22,-1
 763 1364 l 1,23,-1
 -1 1364 l 1,24,-1
 -1 1498 l 1,25,-1
 1241 1498 l 1,26,-1
 1241 1364 l 1,27,-1
 906 1364 l 1,28,-1
 906 983 l 1,29,-1
 667 983 l 2,0,1
EndSplineSet
Validated: 1
EndChar

StartChar: l.dda
Encoding: 2337 2337 80
Width: 1246
GlyphClass: 2
Flags: W
LayerCount: 2
Fore
SplineSet
922 1364 m 1,0,-1
 922 1034 l 1,1,-1
 558 1034 l 1,2,-1
 464 1026 l 1,3,4
 422 1026 422 1026 379.5 1000.5 c 128,-1,5
 337 975 337 975 337 918 c 128,-1,6
 337 861 337 861 398 830 c 1,7,-1
 470 813 l 1,8,-1
 848 823 l 1,9,10
 960 823 960 823 1053.5 741 c 128,-1,11
 1147 659 1147 659 1146.5 522 c 128,-1,12
 1146 385 1146 385 1042.5 286 c 128,-1,13
 939 187 939 187 754 187 c 1,14,-1
 642 182 l 1,15,16
 312 182 312 182 182 360 c 1,17,-1
 108 555 l 1,18,-1
 271 555 l 1,19,-1
 297 480 l 1,20,-1
 321 437 l 1,21,22
 410 325 410 325 635 325 c 2,23,-1
 720 325 l 1,24,25
 873 345 873 345 944 434 c 0,26,27
 977 475 977 475 976 540 c 128,-1,28
 975 605 975 605 917 648 c 1,29,-1
 853 670 l 1,30,-1
 774 678 l 1,31,-1
 390 678 l 1,32,-1
 337 690 l 1,33,34
 273 706 273 706 223.5 774.5 c 128,-1,35
 174 843 174 843 174 919 c 0,36,37
 174 1069 174 1069 312 1140 c 1,38,-1
 368 1156 l 1,39,-1
 454 1173 l 1,40,-1
 769 1173 l 1,41,-1
 769 1364 l 1,42,-1
 -1 1364 l 1,43,-1
 -1 1498 l 1,44,-1
 1247 1498 l 1,45,-1
 1247 1364 l 1,46,-1
 922 1364 l 1,0,-1
EndSplineSet
Validated: 33
EndChar

StartChar: l.ddha
Encoding: 2338 2338 81
Width: 1324
GlyphClass: 2
Flags: W
LayerCount: 2
Fore
SplineSet
917 1364 m 1,0,-1
 917 991 l 1,1,-1
 718 997 l 1,2,3
 437 997 437 997 337 844 c 0,4,5
 299 787 299 787 299 698 c 0,6,7
 299 560 299 560 388 477.5 c 128,-1,8
 477 395 477 395 629 395 c 1,9,-1
 624 451 l 1,10,11
 624 619 624 619 714.5 732 c 128,-1,12
 805 845 805 845 973 845 c 0,13,14
 1071 845 1071 845 1156 776 c 1,15,16
 1239 707 1239 707 1239 605 c 0,17,18
 1239 437 1239 437 1097 340 c 128,-1,19
 955 243 955 243 693 243 c 128,-1,20
 431 243 431 243 282.5 365.5 c 128,-1,21
 134 488 134 488 134 714 c 0,22,23
 134 884 134 884 262 1006 c 0,24,25
 389 1127 389 1127 603 1127 c 2,26,-1
 774 1127 l 1,27,-1
 774 1364 l 1,28,-1
 -1 1364 l 1,29,-1
 -1 1498 l 1,30,-1
 1325 1498 l 1,31,-1
 1325 1364 l 1,32,-1
 917 1364 l 1,0,-1
1074 632 m 1,33,34
 1069 650 1069 650 1048 672 c 1,35,-1
 1010 693 l 1,36,-1
 965 701 l 1,37,38
 840 701 840 701 800 553 c 1,39,-1
 784 398 l 1,40,-1
 792 388 l 1,41,-1
 805 385 l 1,42,-1
 851 393 l 1,43,-1
 939 419 l 2,44,45
 1083 462 1083 462 1082 592 c 1,46,-1
 1074 632 l 1,33,34
EndSplineSet
Validated: 33
EndChar

StartChar: l.nna
Encoding: 2339 2339 82
Width: 1604
GlyphClass: 2
Flags: W
LayerCount: 2
Fore
SplineSet
1350 1364 m 1,0,-1
 1350 182 l 1,1,-1
 1179 182 l 1,2,-1
 1179 1364 l 1,3,-1
 958 1364 l 1,4,-1
 958 1498 l 1,5,-1
 1605 1498 l 1,6,-1
 1605 1364 l 1,7,-1
 1350 1364 l 1,0,-1
906 1364 m 1,8,-1
 906 960 l 2,9,10
 906 752 906 752 815.5 664.5 c 128,-1,11
 725 577 725 577 565 577 c 0,12,13
 326 577 326 577 238 757 c 1,14,-1
 212 830 l 1,15,-1
 195 942 l 1,16,-1
 195 1364 l 1,17,-1
 -1 1364 l 1,18,-1
 -1 1498 l 1,19,-1
 1033 1498 l 1,20,-1
 1033 1364 l 1,21,-1
 906 1364 l 1,8,-1
730 1364 m 1,22,-1
 368 1364 l 1,23,-1
 368 889 l 1,24,-1
 385 838 l 2,25,26
 402 786 402 786 450 757 c 1,27,28
 499 726 499 726 560 726 c 0,29,30
 675 726 675 726 720 838 c 1,31,-1
 730 955 l 1,32,-1
 730 1364 l 1,22,-1
EndSplineSet
Validated: 5
EndChar

StartChar: l.ta
Encoding: 2340 2340 83
Width: 1395
GlyphClass: 2
Flags: W
LayerCount: 2
Fore
SplineSet
1135 1364 m 1,0,-1
 1135 182 l 1,1,-1
 970 182 l 1,2,-1
 970 896 l 1,3,-1
 822 944 l 1,4,-1
 736 960 l 1,5,-1
 657 965 l 1,6,7
 514 965 514 965 398 884.5 c 128,-1,8
 282 804 282 804 283 670 c 0,9,10
 283 588 283 588 323 507.5 c 128,-1,11
 363 427 363 427 441 378 c 1,12,-1
 504 340 l 1,13,-1
 598 299 l 1,14,-1
 555 185 l 1,15,-1
 428 220 l 1,16,17
 276 271 276 271 200 389 c 128,-1,18
 124 507 124 507 124 644 c 0,19,20
 124 919 124 919 337 1039 c 1,21,-1
 430 1084 l 1,22,-1
 530 1109 l 1,23,-1
 685 1120 l 1,24,-1
 837 1095 l 1,25,-1
 906 1079 l 1,26,27
 922 1079 922 1079 933 1069 c 1,28,-1
 965 1058 l 1,29,-1
 965 1364 l 1,30,-1
 -1 1364 l 1,31,-1
 -1 1498 l 1,32,-1
 1396 1498 l 1,33,-1
 1396 1364 l 1,34,-1
 1135 1364 l 1,0,-1
EndSplineSet
Validated: 33
EndChar

StartChar: l.tha
Encoding: 2341 2341 84
Width: 1405
GlyphClass: 2
Flags: W
LayerCount: 2
Fore
SplineSet
1151 1364 m 1,0,-1
 1151 182 l 1,1,-1
 980 182 l 1,2,-1
 980 1364 l 1,3,-1
 808 1364 l 1,4,-1
 808 1498 l 1,5,-1
 1406 1498 l 1,6,-1
 1406 1364 l 1,7,-1
 1151 1364 l 1,0,-1
437 960 m 1,8,9
 632 990 632 990 632 1160.5 c 128,-1,10
 632 1331 632 1331 472 1331 c 0,11,12
 374 1331 374 1331 323 1248 c 1,13,-1
 302 1196 l 1,14,-1
 297 1166 l 1,15,-1
 132 1168 l 1,16,17
 132 1313 132 1313 229 1394 c 128,-1,18
 326 1475 326 1475 479 1475 c 128,-1,19
 632 1475 632 1475 721 1392.5 c 128,-1,20
 810 1310 810 1310 810 1146 c 128,-1,21
 810 982 810 982 693 896 c 128,-1,22
 576 810 576 810 353 810 c 2,23,-1
 284 810 l 1,24,-1
 254 815 l 1,25,-1
 254 751 l 1,26,-1
 270 700 l 1,27,28
 331 511 331 511 632 511 c 0,29,30
 754 511 754 511 872.5 569.5 c 128,-1,31
 991 628 991 628 1069 747 c 1,32,-1
 1066 521 l 1,33,34
 1031 486 1031 486 991 468 c 2,35,-1
 861 409 l 1,36,-1
 728 370 l 2,37,38
 684 357 684 357 622 356 c 1,39,40
 358 356 358 356 223.5 484 c 128,-1,41
 89 612 89 612 89 851 c 1,42,-1
 99 971 l 1,43,-1
 110 977 l 1,44,-1
 196 960 l 1,45,-1
 437 960 l 1,8,9
EndSplineSet
Validated: 5
EndChar

StartChar: l.da
Encoding: 2342 2342 85
Width: 1210
GlyphClass: 2
Flags: W
LayerCount: 2
Fore
SplineSet
886 1364 m 1,0,-1
 886 1002 l 1,1,-1
 550 1002 l 2,2,3
 515 1002 515 1002 467 988 c 1,4,-1
 411 970 l 1,5,6
 274 904 274 904 274 746 c 0,7,8
 274 641 274 641 353 564.5 c 128,-1,9
 432 488 432 488 545 488 c 1,10,-1
 593 485 l 1,11,-1
 678 493 l 1,12,-1
 699 502 l 1,13,-1
 667 655 l 1,14,-1
 795 706 l 1,15,-1
 985 594 l 1,16,-1
 1016 469 l 1,17,-1
 869 411 l 1,18,-1
 998 198 l 1,19,-1
 827 139 l 1,20,-1
 742 373 l 1,21,-1
 716 358 l 1,22,-1
 678 347 l 1,23,-1
 593 345 l 1,24,25
 389 345 389 345 246 451.5 c 128,-1,26
 103 558 103 558 103 752 c 0,27,28
 103 871 103 871 165.5 975 c 128,-1,29
 228 1079 228 1079 355 1112 c 1,30,-1
 465 1132 l 1,31,-1
 728 1132 l 1,32,-1
 728 1364 l 1,33,-1
 -1 1364 l 1,34,-1
 -1 1498 l 1,35,-1
 1211 1498 l 1,36,-1
 1211 1364 l 1,37,-1
 886 1364 l 1,0,-1
EndSplineSet
Validated: 1
EndChar

StartChar: l.dha
Encoding: 2343 2343 86
Width: 1342
GlyphClass: 2
Flags: W
LayerCount: 2
Fore
SplineSet
1002 467 m 1,0,1
 981 446 981 446 938 425 c 1,2,-1
 814 383 l 1,3,-1
 694 353 l 1,4,-1
 585 345 l 1,5,6
 394 345 394 345 266 429 c 1,7,8
 140 514 140 514 140 661 c 128,-1,9
 140 808 140 808 283 886 c 1,10,-1
 366 914 l 1,11,-1
 281 939 l 1,12,-1
 207 979 l 1,13,14
 105 1051 105 1051 105 1183.5 c 128,-1,15
 105 1316 105 1316 192 1403 c 128,-1,16
 279 1490 279 1490 420 1490 c 1,17,-1
 512 1485 l 1,18,19
 552 1485 552 1485 598 1455 c 1,20,-1
 664 1394 l 1,21,-1
 692 1346 l 1,22,-1
 697 1254 l 2,23,24
 697 1246 697 1246 684 1211 c 1,25,-1
 664 1168 l 2,26,27
 656 1150 656 1150 643 1135 c 1,28,-1
 547 1189 l 1,29,-1
 569 1237 l 1,30,-1
 574 1290 l 1,31,-1
 552 1330 l 1,32,-1
 521 1351 l 1,33,-1
 481 1363 l 1,34,-1
 441 1363 l 2,35,36
 374 1363 374 1363 331 1309.5 c 128,-1,37
 288 1256 288 1256 288 1184 c 128,-1,38
 288 1112 288 1112 343 1053.5 c 128,-1,39
 398 995 398 995 491 995 c 1,40,-1
 664 987 l 1,41,-1
 675 992 l 1,42,-1
 675 865 l 1,43,-1
 569 865 l 1,44,-1
 529 856 l 1,45,46
 433 856 433 856 375.5 800 c 128,-1,47
 318 744 318 744 318 683 c 0,48,49
 318 571 318 571 415 523 c 1,50,-1
 502 497 l 1,51,-1
 619 489 l 1,52,53
 744 489 744 489 884 572 c 1,54,55
 944 609 944 609 1005 670 c 1,56,-1
 1002 467 l 1,0,1
1088 1364 m 1,57,-1
 1088 182 l 1,58,-1
 917 182 l 1,59,-1
 917 1364 l 1,60,-1
 746 1364 l 1,61,-1
 746 1498 l 1,62,-1
 1343 1498 l 1,63,-1
 1343 1364 l 1,64,-1
 1088 1364 l 1,57,-1
EndSplineSet
Validated: 5
EndChar

StartChar: l.na
Encoding: 2344 2344 87
Width: 1487
GlyphClass: 2
Flags: W
LayerCount: 2
Fore
SplineSet
1229 1364 m 1,0,-1
 1229 182 l 1,1,-1
 1061 182 l 1,2,-1
 1061 930 l 1,3,-1
 523 930 l 1,4,-1
 480 922 l 1,5,6
 459 922 459 922 454 917 c 1,7,-1
 411 906 l 1,8,9
 300 858 300 858 300 741 c 0,10,11
 300 659 300 659 355 609 c 1,12,-1
 411 571 l 1,13,-1
 480 560 l 1,14,-1
 528 560 l 1,15,16
 600 579 600 579 628.5 609.5 c 128,-1,17
 657 640 657 640 657 709 c 1,18,-1
 652 752 l 1,19,-1
 619 794 l 1,20,-1
 795 794 l 1,21,-1
 817 749 l 1,22,-1
 827 701 l 1,23,24
 827 505 827 505 654 429 c 0,25,26
 593 403 593 403 502 403 c 0,27,28
 340 403 340 403 236 484.5 c 128,-1,29
 132 566 132 566 132 741 c 0,30,31
 132 853 132 853 173.5 919.5 c 128,-1,32
 215 986 215 986 305 1036 c 1,33,-1
 375 1058 l 1,34,-1
 484 1079 l 1,35,-1
 1059 1079 l 1,36,-1
 1059 1364 l 1,37,-1
 -1 1364 l 1,38,-1
 -1 1498 l 1,39,-1
 1488 1498 l 1,40,-1
 1488 1364 l 1,41,-1
 1229 1364 l 1,0,-1
EndSplineSet
Validated: 1
EndChar

StartChar: l.nnna
Encoding: 2345 2345 88
Width: 1487
GlyphClass: 2
Flags: W
LayerCount: 2
Fore
SplineSet
597 -33 m 1,0,-1
 551 -53 l 1,1,-1
 503 -64 l 1,2,3
 473 -64 473 -64 455 -53 c 1,4,-1
 412 -33 l 1,5,-1
 384 8 l 1,6,-1
 376 56 l 1,7,8
 376 135 376 135 450 175 c 1,9,-1
 503 186 l 1,10,11
 554 186 554 186 595 153 c 128,-1,12
 636 120 636 120 636 56 c 1,13,14
 637 16 637 16 597 -33 c 1,0,-1
1229 1364 m 1,15,-1
 1229 182 l 1,16,-1
 1061 182 l 1,17,-1
 1061 930 l 1,18,-1
 523 930 l 1,19,-1
 480 922 l 1,20,21
 459 922 459 922 454 917 c 1,22,-1
 411 906 l 1,23,24
 300 858 300 858 300 741 c 0,25,26
 300 659 300 659 355 609 c 1,27,-1
 411 571 l 1,28,-1
 480 560 l 1,29,-1
 528 560 l 1,30,31
 600 579 600 579 628.5 609.5 c 128,-1,32
 657 640 657 640 657 709 c 1,33,-1
 652 752 l 1,34,-1
 619 794 l 1,35,-1
 795 794 l 1,36,-1
 817 749 l 1,37,-1
 827 701 l 1,38,39
 827 505 827 505 654 429 c 0,40,41
 593 403 593 403 502 403 c 0,42,43
 340 403 340 403 236 484.5 c 128,-1,44
 132 566 132 566 132 741 c 0,45,46
 132 853 132 853 173.5 919.5 c 128,-1,47
 215 986 215 986 305 1036 c 1,48,-1
 375 1058 l 1,49,-1
 484 1079 l 1,50,-1
 1059 1079 l 1,51,-1
 1059 1364 l 1,52,-1
 -1 1364 l 1,53,-1
 -1 1498 l 1,54,-1
 1488 1498 l 1,55,-1
 1488 1364 l 1,56,-1
 1229 1364 l 1,15,-1
EndSplineSet
Validated: 33
Ligature2: "'nukt' Nukta Forms in Devanagari lookup 0 subtable" l.na s.nukta
EndChar

StartChar: l.pa
Encoding: 2346 2346 89
Width: 1332
GlyphClass: 2
Flags: W
LayerCount: 2
Fore
SplineSet
1077 1364 m 1,0,-1
 1077 182 l 1,1,-1
 901 182 l 1,2,-1
 901 536 l 1,3,-1
 856 505 l 1,4,-1
 813 485 l 1,5,6
 757 462 757 462 728 462 c 1,7,-1
 635 454 l 1,8,9
 374 454 374 454 273 640 c 1,10,-1
 244 714 l 1,11,-1
 220 826 l 1,12,-1
 220 1364 l 1,13,-1
 -1 1364 l 1,14,-1
 -1 1498 l 1,15,-1
 1333 1498 l 1,16,-1
 1333 1364 l 1,17,-1
 1077 1364 l 1,0,-1
899 1364 m 1,18,-1
 390 1364 l 1,19,-1
 390 858 l 2,20,21
 390 783 390 783 416 736 c 1,22,23
 475 614 475 614 645 614 c 0,24,25
 721 614 721 614 827 670 c 1,26,-1
 858 688 l 1,27,-1
 899 728 l 1,28,-1
 899 1364 l 1,18,-1
EndSplineSet
Validated: 1
EndChar

StartChar: l.pha
Encoding: 2347 2347 90
Width: 1770
GlyphClass: 2
Flags: W
AnchorPoint: "Anchor-0" 939 1464 basechar 0
LayerCount: 2
Fore
SplineSet
987 1364 m 1,0,-1
 987 1047 l 1,1,-1
 1071 1090 l 1,2,-1
 1167 1112 l 1,3,-1
 1279 1120 l 1,4,5
 1462 1120 1462 1120 1585.5 1006.5 c 128,-1,6
 1709 893 1709 893 1711 698 c 1,7,8
 1711 568 1711 568 1645 469.5 c 128,-1,9
 1579 371 1579 371 1470 342 c 1,10,-1
 1364 312 l 1,11,-1
 1228 302 l 1,12,-1
 1228 464 l 1,13,-1
 1252 456 l 1,14,-1
 1284 456 l 2,15,16
 1396 456 1396 456 1468 529 c 128,-1,17
 1540 602 1540 602 1540 716 c 128,-1,18
 1540 830 1540 830 1465.5 897.5 c 128,-1,19
 1391 965 1391 965 1262 965 c 128,-1,20
 1133 965 1133 965 1061 914 c 1,21,-1
 987 850 l 1,22,-1
 987 182 l 1,23,-1
 816 182 l 1,24,-1
 816 541 l 1,25,-1
 738 488 l 1,26,-1
 656 462 l 1,27,-1
 578 454 l 1,28,29
 324 454 324 454 214 646 c 0,30,31
 174 716 174 716 174 826 c 2,32,-1
 174 1364 l 1,33,-1
 -1 1364 l 1,34,-1
 -1 1498 l 1,35,-1
 1771 1498 l 1,36,-1
 1771 1364 l 1,37,-1
 987 1364 l 1,0,-1
812 1364 m 1,38,-1
 344 1364 l 1,39,-1
 344 858 l 2,40,41
 344 805 344 805 355 784 c 1,42,-1
 368 736 l 1,43,44
 426 614 426 614 593 614 c 0,45,46
 646 614 646 614 715 645 c 1,47,-1
 757 672 l 1,48,-1
 784 696 l 1,49,-1
 812 733 l 1,50,-1
 812 1364 l 1,38,-1
EndSplineSet
Validated: 1
EndChar

StartChar: l.ba
Encoding: 2348 2348 91
Width: 1369
GlyphClass: 2
Flags: W
LayerCount: 2
Fore
SplineSet
1114 1364 m 1,0,-1
 1114 182 l 1,1,-1
 943 182 l 1,2,-1
 943 1364 l 1,3,-1
 -1 1364 l 1,4,-1
 -1 1498 l 1,5,-1
 1370 1498 l 1,6,-1
 1370 1364 l 1,7,-1
 1114 1364 l 1,0,-1
939 471 m 1,8,9
 784 389 784 389 604 385 c 1,10,11
 433 383 433 383 311.5 464 c 128,-1,12
 190 545 190 545 157 663.5 c 128,-1,13
 124 782 124 782 145.5 902 c 128,-1,14
 167 1022 167 1022 284 1106 c 128,-1,15
 401 1190 401 1190 579 1190 c 0,16,17
 731 1190 731 1190 819 1160 c 1,18,-1
 819 1035 l 1,19,20
 814 1038 814 1038 767.5 1044.5 c 128,-1,21
 721 1051 721 1051 659.5 1055 c 128,-1,22
 598 1059 598 1059 545 1054 c 1,23,-1
 609 933 l 2,24,25
 673 812 673 812 738 689 c 128,-1,26
 803 566 803 566 805 566 c 0,27,28
 835 571 835 571 868 586 c 128,-1,29
 901 601 901 601 918.5 611.5 c 128,-1,30
 936 622 936 622 939 625 c 1,31,-1
 939 471 l 1,8,9
430 1015 m 1,32,33
 300 953 300 953 286 822 c 0,34,35
 271 683 271 683 387 591 c 0,36,37
 525 481 525 481 699 520 c 1,38,39
 565 768 565 768 430 1015 c 1,32,33
EndSplineSet
Validated: 33
EndChar

StartChar: l.bha
Encoding: 2349 2349 92
Width: 1531
GlyphClass: 2
Flags: W
LayerCount: 2
Fore
SplineSet
526 759 m 1,0,-1
 440 759 l 2,1,2
 363 759 363 759 333 742 c 0,3,4
 270 707 270 707 270 617 c 1,5,-1
 275 545 l 1,6,7
 288 482 288 482 336 463 c 1,8,-1
 409 453 l 1,9,10
 475 453 475 453 515 527 c 1,11,-1
 526 604 l 1,12,-1
 526 759 l 1,0,-1
706 756 m 1,13,-1
 706 575 l 1,14,-1
 696 489 l 1,15,16
 650 298 650 298 414 298 c 0,17,18
 279 298 279 298 191.5 377 c 128,-1,19
 104 456 104 456 104 614 c 0,20,21
 104 703 104 703 147 772.5 c 128,-1,22
 190 842 190 842 264 868 c 1,23,-1
 323 883 l 1,24,25
 346 883 346 883 368 889 c 1,26,-1
 424 898 l 1,27,-1
 526 898 l 1,28,-1
 526 1238 l 2,29,30
 526 1256 526 1256 518 1269 c 1,31,-1
 505 1294 l 1,32,33
 462 1353 462 1353 387 1353 c 0,34,35
 257 1353 257 1353 257 1214 c 1,36,-1
 264 1185 l 1,37,-1
 289 1158 l 1,38,-1
 318 1137 l 1,39,-1
 345 1132 l 1,40,-1
 206 1035 l 1,41,-1
 153 1071 l 1,42,-1
 119 1110 l 1,43,44
 103 1139 103 1139 99 1158 c 1,45,-1
 94 1219 l 1,46,47
 94 1333 94 1333 174 1413 c 128,-1,48
 254 1493 254 1493 412.5 1493 c 128,-1,49
 571 1493 571 1493 658 1376 c 1,50,-1
 704 1256 l 1,51,-1
 704 905 l 1,52,-1
 1100 905 l 1,53,-1
 1100 1363 l 1,54,-1
 882 1363 l 1,55,-1
 882 1496 l 1,56,-1
 1532 1496 l 1,57,-1
 1532 1363 l 1,58,-1
 1276 1363 l 1,59,-1
 1276 181 l 1,60,-1
 1106 181 l 1,61,-1
 1106 756 l 1,62,-1
 706 756 l 1,13,-1
EndSplineSet
Validated: 1
EndChar

StartChar: l.ma
Encoding: 2350 2350 93
Width: 1639
GlyphClass: 2
Flags: W
LayerCount: 2
Fore
SplineSet
1386 1364 m 1,0,-1
 1386 182 l 1,1,-1
 1210 182 l 1,2,-1
 1210 823 l 1,3,-1
 781 823 l 1,4,-1
 773 544 l 1,5,6
 736 343 736 343 464 345 c 1,7,8
 320 345 320 345 227 423.5 c 128,-1,9
 134 502 134 502 134 676 c 128,-1,10
 134 850 134 850 294 930 c 1,11,-1
 357 949 l 1,12,-1
 454 965 l 1,13,-1
 603 965 l 1,14,-1
 603 1364 l 1,15,-1
 -1 1364 l 1,16,-1
 -1 1498 l 1,17,-1
 1640 1498 l 1,18,-1
 1640 1364 l 1,19,-1
 1386 1364 l 1,0,-1
1210 1364 m 1,20,-1
 781 1364 l 1,21,-1
 781 970 l 1,22,-1
 1210 970 l 1,23,-1
 1210 1364 l 1,20,-1
611 650 m 1,24,-1
 611 823 l 1,25,-1
 454 826 l 1,26,27
 413 820 413 820 405 813 c 1,28,-1
 377 802 l 1,29,30
 347 792 347 792 325.5 769 c 128,-1,31
 304 746 304 746 299 678 c 1,32,33
 299 592 299 592 324.5 552 c 128,-1,34
 350 512 350 512 416 497 c 1,35,-1
 464 493 l 1,36,37
 530 489 530 489 589 541 c 1,38,-1
 606 576 l 1,39,-1
 613 624 l 1,40,-1
 611 650 l 1,24,-1
EndSplineSet
Validated: 33
EndChar

StartChar: l.ya
Encoding: 2351 2351 94
Width: 1515
GlyphClass: 2
Flags: W
LayerCount: 2
Fore
SplineSet
1259 1364 m 1,0,-1
 1259 182 l 1,1,-1
 1090 182 l 1,2,-1
 1090 533 l 1,3,-1
 1031 493 l 1,4,-1
 960 456 l 1,5,-1
 827 416 l 1,6,-1
 688 403 l 1,7,8
 437 403 437 403 295.5 536.5 c 128,-1,9
 154 670 154 670 154 935 c 1,10,-1
 156 1023 l 1,11,-1
 230 1002 l 1,12,-1
 316 991 l 1,13,-1
 454 991 l 2,14,15
 507 991 507 991 558 1028.5 c 128,-1,16
 609 1066 609 1066 609 1135 c 0,17,18
 609 1151 609 1151 596 1183 c 1,19,-1
 566 1242 l 1,20,-1
 464 1364 l 1,21,-1
 -1 1364 l 1,22,-1
 -1 1498 l 1,23,-1
 1516 1498 l 1,24,-1
 1516 1364 l 1,25,-1
 1259 1364 l 1,0,-1
1087 1364 m 1,26,-1
 657 1364 l 1,27,-1
 728 1265 l 1,28,29
 774 1166 774 1166 774 1090 c 0,30,31
 774 924 774 924 540 861 c 1,32,-1
 408 850 l 1,33,-1
 294 861 l 1,34,-1
 302 792 l 2,35,36
 307 754 307 754 324 731 c 1,37,-1
 358 678 l 1,38,39
 470 550 470 550 683 549 c 0,40,41
 848 549 848 549 982 629 c 1,42,-1
 1034 667 l 1,43,-1
 1087 714 l 1,44,-1
 1087 1364 l 1,26,-1
EndSplineSet
Validated: 1
EndChar

StartChar: l.ra
Encoding: 2352 2352 95
Width: 1165
GlyphClass: 2
Flags: W
LayerCount: 2
Fore
SplineSet
769 1364 m 1,0,-1
 846 1214 l 1,1,-1
 861 1132 l 1,2,-1
 869 1056 l 1,3,4
 869 852 869 852 699 741 c 1,5,-1
 625 704 l 1,6,7
 561 680 561 680 470 680 c 1,8,-1
 465 627 l 1,9,10
 465 475 465 475 560 392.5 c 128,-1,11
 655 310 655 310 838 310 c 1,12,-1
 881 312 l 2,13,14
 895 313 895 313 899 317 c 1,15,-1
 987 350 l 1,16,-1
 987 206 l 1,17,-1
 902 190 l 1,18,-1
 774 182 l 1,19,20
 464 182 464 182 356 408 c 0,21,22
 315 494 315 494 317 624 c 1,23,-1
 322 685 l 1,24,-1
 167 714 l 1,25,-1
 167 861 l 1,26,-1
 327 813 l 1,27,-1
 399 808 l 1,28,29
 620 808 620 808 691 938 c 0,30,31
 717 986 717 986 718 1047 c 1,32,33
 718 1183 718 1183 635 1282 c 1,34,-1
 556 1364 l 1,35,-1
 -1 1364 l 1,36,-1
 -1 1498 l 1,37,-1
 1166 1498 l 1,38,-1
 1166 1364 l 1,39,-1
 769 1364 l 1,0,-1
EndSplineSet
Validated: 33
EndChar

StartChar: l.rra
Encoding: 2353 2353 96
Width: 1165
GlyphClass: 2
Flags: W
LayerCount: 2
Fore
SplineSet
293 87 m 1,0,-1
 247 67 l 1,1,-1
 199 56 l 1,2,3
 169 56 169 56 151 67 c 1,4,-1
 108 87 l 1,5,-1
 80 128 l 1,6,-1
 72 176 l 1,7,8
 72 255 72 255 146 295 c 1,9,-1
 199 306 l 1,10,11
 250 306 250 306 291 272.5 c 128,-1,12
 332 239 332 239 332 176 c 1,13,14
 333 136 333 136 293 87 c 1,0,-1
769 1364 m 1,15,-1
 846 1214 l 1,16,-1
 861 1132 l 1,17,-1
 869 1056 l 1,18,19
 869 852 869 852 699 741 c 1,20,-1
 625 704 l 1,21,22
 561 680 561 680 470 680 c 1,23,-1
 465 627 l 1,24,25
 465 475 465 475 560 392.5 c 128,-1,26
 655 310 655 310 838 310 c 1,27,-1
 881 312 l 2,28,29
 895 313 895 313 899 317 c 1,30,-1
 987 350 l 1,31,-1
 987 206 l 1,32,-1
 902 190 l 1,33,-1
 774 182 l 1,34,35
 464 182 464 182 356 408 c 0,36,37
 315 494 315 494 317 624 c 1,38,-1
 322 685 l 1,39,-1
 167 714 l 1,40,-1
 167 861 l 1,41,-1
 327 813 l 1,42,-1
 399 808 l 1,43,44
 620 808 620 808 691 938 c 0,45,46
 717 986 717 986 718 1047 c 1,47,48
 718 1183 718 1183 635 1282 c 1,49,-1
 556 1364 l 1,50,-1
 -1 1364 l 1,51,-1
 -1 1498 l 1,52,-1
 1166 1498 l 1,53,-1
 1166 1364 l 1,54,-1
 769 1364 l 1,15,-1
EndSplineSet
Validated: 33
EndChar

StartChar: l.la
Encoding: 2354 2354 97
Width: 1674
GlyphClass: 2
Flags: W
LayerCount: 2
Fore
SplineSet
1419 1364 m 1,0,-1
 1419 182 l 1,1,-1
 1249 182 l 1,2,-1
 1249 952 l 1,3,-1
 1143 968 l 1,4,5
 1020 968 1020 968 964 808 c 1,6,-1
 946 683 l 1,7,-1
 944 650 l 1,8,-1
 810 650 l 1,9,-1
 812 683 l 2,10,11
 812 688 812 688 803 733.5 c 128,-1,12
 794 779 794 779 768 831 c 0,13,14
 699 965 699 965 565 965 c 0,15,16
 433 965 433 965 368 895 c 128,-1,17
 303 825 303 825 302 663.5 c 128,-1,18
 301 502 301 502 380 406 c 128,-1,19
 459 310 459 310 603 315 c 2,20,-1
 675 318 l 1,21,-1
 741 328 l 1,22,-1
 805 361 l 1,23,-1
 805 203 l 1,24,-1
 728 188 l 1,25,-1
 593 180 l 1,26,27
 389 180 389 180 261 303 c 1,28,29
 134 428 134 428 134 648 c 0,30,31
 134 866 134 866 244.5 992 c 128,-1,32
 355 1118 355 1118 545 1120 c 1,33,34
 646 1120 646 1120 725.5 1075.5 c 128,-1,35
 805 1031 805 1031 863 920 c 1,36,-1
 895 1003 l 1,37,-1
 933 1044 l 1,38,-1
 975 1072 l 1,39,-1
 1061 1098 l 1,40,-1
 1198 1098 l 1,41,-1
 1247 1090 l 1,42,-1
 1247 1364 l 1,43,-1
 -1 1364 l 1,44,-1
 -1 1498 l 1,45,-1
 1675 1498 l 1,46,-1
 1675 1364 l 1,47,-1
 1419 1364 l 1,0,-1
EndSplineSet
Validated: 33
EndChar

StartChar: l.lla
Encoding: 2355 2355 98
Width: 1748
GlyphClass: 2
Flags: W
LayerCount: 2
Fore
SplineSet
1749 1364 m 1,0,-1
 1264 1364 l 1,1,-1
 1264 1079 l 1,2,3
 1336 1071 1336 1071 1376 1057 c 0,4,5
 1622 971 1622 971 1622 685 c 0,6,7
 1622 439 1622 439 1469 323 c 1,8,9
 1347 229 1347 229 1150 229 c 0,10,11
 1099 229 1099 229 1067 233 c 128,-1,12
 1035 237 1035 237 1014 246 c 1,13,-1
 995 397 l 1,14,15
 1033 381 1033 381 1066 376 c 128,-1,16
 1099 371 1099 371 1142 371 c 0,17,18
 1284 371 1284 371 1363 448 c 128,-1,19
 1442 525 1442 525 1442 683 c 0,20,21
 1442 802 1442 802 1384 866 c 1,22,23
 1315 940 1315 940 1172 940 c 0,24,25
 1081 940 1081 940 1018 858 c 1,26,27
 954 772 954 772 929 640 c 0,28,29
 887 420 887 420 783 325 c 0,30,31
 687 237 687 237 530 237 c 0,32,33
 349 237 349 237 237 307 c 0,34,35
 74 408 74 408 74 637 c 0,36,37
 74 882 74 882 227 999 c 0,38,39
 349 1092 349 1092 545 1092 c 0,40,41
 585 1092 585 1092 649 1084 c 0,42,43
 665 1082 665 1082 682 1077 c 1,44,-1
 700 924 l 1,45,46
 662 940 662 940 629 945 c 128,-1,47
 596 950 596 950 553 950 c 0,48,49
 411 950 411 950 332 873.5 c 128,-1,50
 253 797 253 797 253 640 c 0,51,52
 253 518 253 518 311 455 c 0,53,54
 380 381 380 381 524 381 c 0,55,56
 706 381 706 381 776 722 c 1,57,58
 828 968 828 968 979 1049 c 0,59,60
 1027 1075 1027 1075 1126 1084 c 1,61,-1
 1126 1364 l 1,62,-1
 -1 1364 l 1,63,-1
 -1 1498 l 1,64,-1
 1749 1498 l 1,65,-1
 1749 1364 l 1,0,-1
EndSplineSet
Validated: 1
EndChar

StartChar: l.llla
Encoding: 2356 2356 99
Width: 1748
GlyphClass: 2
Flags: W
LayerCount: 2
Fore
SplineSet
933 -73 m 1,0,-1
 887 -93 l 1,1,-1
 839 -104 l 1,2,3
 809 -104 809 -104 791 -93 c 1,4,-1
 748 -73 l 1,5,-1
 720 -32 l 1,6,-1
 712 16 l 1,7,8
 712 95 712 95 786 135 c 1,9,-1
 839 146 l 1,10,11
 890 146 890 146 931 113 c 128,-1,12
 972 80 972 80 972 16 c 1,13,14
 973 -24 973 -24 933 -73 c 1,0,-1
1749 1364 m 1,15,-1
 1264 1364 l 1,16,-1
 1264 1079 l 1,17,18
 1336 1071 1336 1071 1376 1057 c 0,19,20
 1622 971 1622 971 1622 685 c 0,21,22
 1622 439 1622 439 1469 323 c 1,23,24
 1347 229 1347 229 1150 229 c 0,25,26
 1099 229 1099 229 1067 233 c 128,-1,27
 1035 237 1035 237 1014 246 c 1,28,-1
 995 397 l 1,29,30
 1033 381 1033 381 1066 376 c 128,-1,31
 1099 371 1099 371 1142 371 c 0,32,33
 1284 371 1284 371 1363 448 c 128,-1,34
 1442 525 1442 525 1442 683 c 0,35,36
 1442 802 1442 802 1384 866 c 1,37,38
 1315 940 1315 940 1172 940 c 0,39,40
 1081 940 1081 940 1018 858 c 1,41,42
 954 772 954 772 929 640 c 0,43,44
 887 420 887 420 783 325 c 0,45,46
 687 237 687 237 530 237 c 0,47,48
 349 237 349 237 237 307 c 0,49,50
 74 408 74 408 74 637 c 0,51,52
 74 882 74 882 227 999 c 0,53,54
 349 1092 349 1092 545 1092 c 0,55,56
 585 1092 585 1092 649 1084 c 0,57,58
 665 1082 665 1082 682 1077 c 1,59,-1
 700 924 l 1,60,61
 662 940 662 940 629 945 c 128,-1,62
 596 950 596 950 553 950 c 0,63,64
 411 950 411 950 332 873.5 c 128,-1,65
 253 797 253 797 253 640 c 0,66,67
 253 518 253 518 311 455 c 0,68,69
 380 381 380 381 524 381 c 0,70,71
 706 381 706 381 776 722 c 1,72,73
 828 968 828 968 979 1049 c 0,74,75
 1027 1075 1027 1075 1126 1084 c 1,76,-1
 1126 1364 l 1,77,-1
 -1 1364 l 1,78,-1
 -1 1498 l 1,79,-1
 1749 1498 l 1,80,-1
 1749 1364 l 1,15,-1
EndSplineSet
Validated: 33
Ligature2: "'nukt' Nukta Forms in Devanagari lookup 0 subtable" l.lla s.nukta
EndChar

StartChar: l.va
Encoding: 2357 2357 100
Width: 1295
GlyphClass: 2
Flags: W
LayerCount: 2
Fore
SplineSet
1041 1364 m 1,0,-1
 1041 182 l 1,1,-1
 867 182 l 1,2,-1
 867 441 l 1,3,-1
 805 408 l 1,4,-1
 729 381 l 1,5,-1
 640 366 l 1,6,-1
 571 360 l 1,7,8
 400 360 400 360 271 474.5 c 128,-1,9
 142 589 142 589 142 771.5 c 128,-1,10
 142 954 142 954 257.5 1063.5 c 128,-1,11
 373 1173 373 1173 604 1173 c 1,12,-1
 688 1170 l 1,13,-1
 711 1162 l 1,14,-1
 752 1002 l 1,15,-1
 683 1018 l 1,16,-1
 604 1026 l 1,17,18
 445 1026 445 1026 356 915 c 1,19,20
 315 866 315 866 317 782 c 1,21,22
 317 696 317 696 371 621 c 128,-1,23
 425 546 425 546 553 523 c 1,24,-1
 622 518 l 1,25,26
 648 520 648 520 688.5 521.5 c 128,-1,27
 729 523 729 523 790 568 c 2,28,-1
 864 624 l 1,29,-1
 864 1364 l 1,30,-1
 -1 1364 l 1,31,-1
 -1 1498 l 1,32,-1
 1296 1498 l 1,33,-1
 1296 1364 l 1,34,-1
 1041 1364 l 1,0,-1
EndSplineSet
Validated: 33
EndChar

StartChar: l.sha
Encoding: 2358 2358 101
Width: 1630
GlyphClass: 2
Flags: W
LayerCount: 2
Fore
SplineSet
1376 1364 m 1,0,-1
 1376 182 l 1,1,-1
 1205 182 l 1,2,-1
 1205 1364 l 1,3,-1
 984 1364 l 1,4,-1
 984 1498 l 1,5,-1
 1631 1498 l 1,6,-1
 1631 1364 l 1,7,-1
 1376 1364 l 1,0,-1
791 713 m 1,8,9
 658 578 658 578 443 578 c 1,10,-1
 518 489 l 1,11,-1
 560 390 l 1,12,13
 573 337 573 337 645 293 c 1,14,-1
 701 268 l 1,15,-1
 762 260 l 1,16,-1
 791 263 l 1,17,18
 809 263 809 263 821 273 c 1,19,-1
 847 281 l 1,20,-1
 890 316 l 1,21,-1
 900 311 l 1,22,-1
 847 162 l 1,23,-1
 773 143 l 1,24,-1
 709 138 l 1,25,26
 558 138 558 138 439 268 c 0,27,28
 397 314 397 314 374 384 c 0,29,30
 322 537 322 537 198 585 c 1,31,-1
 132 596 l 1,32,-1
 89 593 l 1,33,-1
 89 783 l 1,34,-1
 118 758 l 1,35,-1
 176 732 l 1,36,-1
 254 710 l 1,37,-1
 323 705 l 1,38,39
 523 705 523 705 641.5 792.5 c 128,-1,40
 760 880 760 880 760 1073 c 0,41,42
 760 1217 760 1217 686.5 1283.5 c 128,-1,43
 613 1350 613 1350 511 1350 c 128,-1,44
 409 1350 409 1350 353 1278 c 0,45,46
 327 1244 327 1244 326 1199 c 1,47,48
 326 1121 326 1121 400 1070 c 1,49,-1
 462 1048 l 1,50,-1
 528 1043 l 1,51,-1
 643 1056 l 1,52,-1
 576 916 l 1,53,-1
 544 913 l 1,54,-1
 419 921 l 1,55,56
 284 947 284 947 222 1011 c 128,-1,57
 160 1075 160 1075 160 1160 c 0,58,59
 160 1315 160 1315 252 1406.5 c 128,-1,60
 344 1498 344 1498 518.5 1498 c 128,-1,61
 693 1498 693 1498 807.5 1387.5 c 128,-1,62
 922 1277 922 1277 921.5 1063.5 c 128,-1,63
 921 850 921 850 791 713 c 1,8,9
EndSplineSet
Validated: 33
EndChar

StartChar: l.ssa
Encoding: 2359 2359 102
Width: 1361
GlyphClass: 2
Flags: W
LayerCount: 2
Fore
SplineSet
1109 1364 m 1,0,-1
 1109 182 l 1,1,-1
 938 182 l 1,2,-1
 938 1364 l 1,3,-1
 717 1364 l 1,4,-1
 717 1498 l 1,5,-1
 1362 1498 l 1,6,-1
 1362 1364 l 1,7,-1
 1109 1364 l 1,0,-1
965 512 m 1,8,-1
 881 466 l 1,9,-1
 752 424 l 1,10,-1
 686 413 l 1,11,-1
 622 411 l 1,12,13
 437 411 437 411 300.5 533 c 128,-1,14
 164 655 164 655 164 850 c 2,15,-1
 164 1364 l 1,16,-1
 -1 1364 l 1,17,-1
 -1 1497 l 1,18,-1
 813 1497 l 1,19,-1
 813 1364 l 1,20,-1
 473 1364 l 1,21,-1
 976 723 l 1,22,-1
 976 522 l 1,23,-1
 965 512 l 1,8,-1
337 1350 m 1,24,-1
 337 863 l 2,25,26
 337 752 337 752 418 662.5 c 128,-1,27
 499 573 499 573 635 573 c 2,28,-1
 657 573 l 2,29,30
 678 573 678 573 699 578 c 2,31,-1
 772 596 l 1,32,33
 817 604 817 604 838 626 c 1,34,-1
 891 667 l 1,35,-1
 337 1350 l 1,24,-1
EndSplineSet
Validated: 5
EndChar

StartChar: l.sa
Encoding: 2360 2360 103
Width: 1678
GlyphClass: 2
Flags: W
LayerCount: 2
Fore
SplineSet
1423 1364 m 1,0,-1
 1423 182 l 1,1,-1
 1252 182 l 1,2,-1
 1252 762 l 1,3,-1
 922 762 l 1,4,-1
 922 909 l 1,5,-1
 1252 909 l 1,6,-1
 1252 1364 l 1,7,-1
 678 1364 l 1,8,-1
 731 1313 l 1,9,10
 856 1188 856 1188 856 1042.5 c 128,-1,11
 856 897 856 897 751 788 c 1,12,13
 645 680 645 680 449 680 c 1,14,-1
 444 632 l 1,15,16
 444 480 444 480 541 397.5 c 128,-1,17
 638 315 638 315 825 315 c 1,18,-1
 864 317 l 1,19,-1
 912 334 l 1,20,-1
 965 360 l 1,21,-1
 965 206 l 1,22,-1
 886 190 l 1,23,-1
 752 182 l 1,24,25
 443 182 443 182 335 408 c 0,26,27
 294 494 294 494 294 624 c 1,28,-1
 300 685 l 1,29,-1
 145 714 l 1,30,-1
 145 861 l 1,31,-1
 305 813 l 1,32,-1
 433 808 l 1,33,34
 457 813 457 813 501 822.5 c 128,-1,35
 545 832 545 832 586 857 c 0,36,37
 688 919 688 919 688 1042 c 128,-1,38
 688 1165 688 1165 569 1282 c 1,39,-1
 444 1364 l 1,40,-1
 -1 1364 l 1,41,-1
 -1 1498 l 1,42,-1
 1679 1498 l 1,43,-1
 1679 1364 l 1,44,-1
 1423 1364 l 1,0,-1
EndSplineSet
Validated: 1
EndChar

StartChar: l.ha
Encoding: 2361 2361 104
Width: 1271
GlyphClass: 2
Flags: W
LayerCount: 2
Fore
SplineSet
912 1365 m 1,0,-1
 912 1016 l 1,1,-1
 566 1019 l 2,2,3
 469 1020 469 1020 428 1002 c 0,4,5
 388 984 388 984 380 925 c 1,6,-1
 380 904 l 1,7,-1
 396 867 l 1,8,-1
 431 830 l 1,9,-1
 454 816 l 1,10,-1
 569 835 l 1,11,-1
 688 846 l 1,12,-1
 739 843 l 2,13,14
 864 836 864 836 950 790 c 0,15,16
 1034 744 1034 744 1079.5 691 c 128,-1,17
 1125 638 1125 638 1125 559 c 0,18,19
 1125 417 1125 417 1034 343 c 1,20,-1
 934 302 l 1,21,-1
 845 406 l 1,22,-1
 881 414 l 1,23,-1
 917 432 l 1,24,25
 975 465 975 465 975 523.5 c 128,-1,26
 975 582 975 582 929 631.5 c 128,-1,27
 883 681 883 681 749 702 c 1,28,-1
 686 704 l 1,29,30
 478 704 478 704 378.5 641.5 c 128,-1,31
 279 579 279 579 279 470 c 128,-1,32
 279 361 279 361 401 278 c 1,33,34
 523 193 523 193 693 193 c 2,35,-1
 795 193 l 1,36,-1
 795 41 l 1,37,-1
 752 39 l 1,38,39
 527 39 527 39 357 126 c 1,40,41
 259 175 259 175 191.5 264 c 128,-1,42
 124 353 124 353 124 494 c 0,43,44
 124 590 124 590 210 691 c 1,45,-1
 263 729 l 1,46,-1
 327 763 l 1,47,-1
 268 819 l 1,48,49
 246 843 246 843 225 947 c 1,50,51
 225 1064 225 1064 366 1128 c 1,52,-1
 507 1157 l 1,53,-1
 764 1157 l 1,54,-1
 764 1364 l 1,55,-1
 -1 1364 l 1,56,-1
 -1 1498 l 1,57,-1
 1272 1498 l 1,58,-1
 1272 1365 l 1,59,-1
 912 1365 l 1,0,-1
EndSplineSet
Validated: 33
EndChar

StartChar: uni093A
Encoding: 2362 2362 105
Width: 0
GlyphClass: 2
Flags: W
LayerCount: 2
Fore
SplineSet
-304 1460 m 1,0,-1
 -304 1899 l 1,1,-1
 -132 1899 l 1,2,-1
 -132 1480 l 1,3,-1
 -178 1480 l 1,4,-1
 -304 1460 l 1,0,-1
EndSplineSet
Validated: 1
EndChar

StartChar: uni093B
Encoding: 2363 2363 106
Width: 645
GlyphClass: 2
Flags: W
LayerCount: 2
Fore
SplineSet
391 1364 m 1,0,-1
 391 182 l 1,1,-1
 220 182 l 1,2,-1
 220 1364 l 1,3,-1
 -1 1364 l 1,4,-1
 -1 1498 l 1,5,-1
 646 1498 l 1,6,-1
 646 1364 l 1,7,-1
 391 1364 l 1,0,-1
221 1480 m 1,8,-1
 221 1899 l 1,9,-1
 393 1899 l 1,10,-1
 393 1480 l 1,11,-1
 347 1480 l 1,12,-1
 221 1480 l 1,8,-1
EndSplineSet
Validated: 5
EndChar

StartChar: s.nukta
Encoding: 2364 2364 107
Width: 0
GlyphClass: 4
Flags: W
LayerCount: 2
Fore
SplineSet
-248 22 m 1,0,1
 -266 -21 -266 -21 -323 -49 c 1,2,-1
 -374 -60 l 1,3,4
 -404 -60 -404 -60 -422 -49 c 2,5,-1
 -463 -22 l 1,6,7
 -487 -1 -487 -1 -501 68 c 1,8,9
 -501 113 -501 113 -463 159 c 1,10,-1
 -422 187 l 1,11,-1
 -374 199 l 1,12,-1
 -320 190 l 1,13,-1
 -280 164 l 1,14,15
 -262 146 -262 146 -248 118 c 1,16,-1
 -240 68 l 1,17,-1
 -248 22 l 1,0,1
EndSplineSet
Validated: 1
EndChar

StartChar: s.avagraha
Encoding: 2365 2365 108
Width: 1056
GlyphClass: 2
Flags: W
LayerCount: 2
Fore
SplineSet
418 1347 m 1,0,-1
 383 1309 l 1,1,2
 309 1261 309 1261 309 1165 c 0,3,4
 309 1053 309 1053 474 997 c 1,5,-1
 777 892 l 1,6,7
 854 849 854 849 898 765 c 128,-1,8
 942 681 942 681 942 587 c 0,9,10
 942 173 942 173 495 173 c 0,11,12
 205 173 205 173 88 457 c 1,13,-1
 197 587 l 1,14,-1
 221 511 l 1,15,16
 236 431 236 431 320 379 c 1,17,18
 404 329 404 329 513.5 329 c 128,-1,19
 623 329 623 329 712 392 c 128,-1,20
 801 455 801 455 801 581 c 128,-1,21
 801 707 801 707 642 780 c 1,22,-1
 333 894 l 1,23,24
 256 924 256 924 212 998 c 128,-1,25
 168 1072 168 1072 168 1162 c 0,26,27
 168 1338 168 1338 290 1436 c 1,28,-1
 307 1445 l 1,29,-1
 402 1461 l 1,30,31
 417 1461 417 1461 424 1466 c 1,32,-1
 1057 1464 l 1,33,-1
 1057 1347 l 1,34,-1
 418 1347 l 1,0,-1
EndSplineSet
Validated: 1
EndChar

StartChar: vs.aa
Encoding: 2366 2366 109
Width: 645
GlyphClass: 4
Flags: W
LayerCount: 2
Fore
SplineSet
391 1364 m 1,0,-1
 391 182 l 1,1,-1
 220 182 l 1,2,-1
 220 1364 l 1,3,-1
 -1 1364 l 1,4,-1
 -1 1498 l 1,5,-1
 646 1498 l 1,6,-1
 646 1364 l 1,7,-1
 391 1364 l 1,0,-1
EndSplineSet
Validated: 1
EndChar

StartChar: vs.i
Encoding: 2367 2367 110
Width: 645
GlyphClass: 4
Flags: W
LayerCount: 2
Fore
SplineSet
1412 1603 m 1,0,-1
 1391 1577 l 1,1,-1
 1348 1564 l 1,2,-1
 1317 1572 l 1,3,-1
 1274 1596 l 1,4,-1
 1261 1615 l 1,5,-1
 1145 1713 l 1,6,-1
 960 1844 l 1,7,-1
 866 1897 l 1,8,9
 644 1999 644 1999 516 1999 c 0,10,11
 453 1999 453 1999 400.5 1982 c 128,-1,12
 348 1965 348 1965 310 1933.5 c 128,-1,13
 272 1902 272 1902 251 1857.5 c 128,-1,14
 230 1813 230 1813 230 1758 c 0,15,16
 230 1647 230 1647 304 1570 c 1,17,-1
 337 1535 l 1,18,-1
 385 1498 l 1,19,-1
 646 1498 l 1,20,-1
 646 1364 l 1,21,-1
 391 1364 l 1,22,-1
 391 182 l 1,23,-1
 220 182 l 1,24,-1
 220 1364 l 1,25,-1
 -1 1364 l 1,26,-1
 -1 1498 l 1,27,-1
 198 1498 l 1,28,-1
 151 1548 l 1,29,-1
 124 1588 l 2,30,31
 100 1624 100 1624 88 1662 c 0,32,33
 76 1701 76 1701 76 1749 c 0,34,35
 76 1836 76 1836 104.5 1907 c 128,-1,36
 133 1978 133 1978 184.5 2029 c 128,-1,37
 236 2080 236 2080 309 2108 c 128,-1,38
 382 2136 382 2136 471 2136 c 0,39,40
 562 2137 562 2137 644 2123 c 0,41,42
 725 2109 725 2109 805 2083 c 2,43,-1
 875 2060 l 1,44,45
 921 2043 921 2043 972.5 2015.5 c 128,-1,46
 1024 1988 1024 1988 1082 1951 c 1,47,-1
 1165 1908 l 1,48,49
 1178 1900 1178 1900 1218.5 1870 c 128,-1,50
 1259 1840 1259 1840 1274 1824 c 1,51,-1
 1364 1748 l 1,52,-1
 1402 1710 l 1,53,-1
 1420 1641 l 1,54,55
 1420 1624 1420 1624 1412 1603 c 1,0,-1
EndSplineSet
Validated: 33
EndChar

StartChar: vs.ii
Encoding: 2368 2368 111
Width: 645
GlyphClass: 4
Flags: W
LayerCount: 2
Fore
SplineSet
391 1364 m 1,0,-1
 391 183 l 1,1,-1
 220 183 l 1,2,-1
 220 1364 l 1,3,-1
 -1 1364 l 1,4,-1
 -1 1498 l 1,5,-1
 249 1498 l 1,6,7
 244 1536 244 1536 211 1616.5 c 128,-1,8
 178 1697 178 1697 123 1778 c 0,9,10
 -13 1978 -13 1978 -145 1977 c 0,11,12
 -227 1977 -227 1977 -288 1927.5 c 128,-1,13
 -349 1878 -349 1878 -349 1788 c 0,14,15
 -349 1697 -349 1697 -313 1652 c 1,16,-1
 -275 1608 l 1,17,-1
 -275 1535 l 1,18,-1
 -285 1522 l 1,19,-1
 -305 1511 l 1,20,-1
 -333 1506 l 1,21,-1
 -368 1514 l 1,22,-1
 -414 1540 l 1,23,-1
 -435 1559 l 1,24,-1
 -472 1628 l 1,25,-1
 -496 1713 l 1,26,-1
 -504 1783 l 1,27,28
 -504 1922 -504 1922 -409 2019.5 c 128,-1,29
 -314 2117 -314 2117 -140.5 2117.5 c 128,-1,30
 33 2118 33 2118 175 1957 c 128,-1,31
 317 1796 317 1796 386 1498 c 1,32,-1
 646 1498 l 1,33,-1
 646 1364 l 1,34,-1
 391 1364 l 1,0,-1
EndSplineSet
Validated: 33
EndChar

StartChar: vs.u
Encoding: 2369 2369 112
Width: 0
GlyphClass: 4
Flags: W
LayerCount: 2
Fore
SplineSet
-259 -479 m 1,0,-1
 -363 -484 l 1,1,2
 -432 -484 -432 -484 -506.5 -474 c 128,-1,3
 -581 -464 -581 -464 -649.5 -446.5 c 128,-1,4
 -718 -429 -718 -429 -775 -406 c 128,-1,5
 -832 -383 -832 -383 -866 -360 c 2,6,-1
 -1061 -228 l 1,7,-1
 -960 -96 l 1,8,9
 -939 -134 -939 -134 -878.5 -173.5 c 128,-1,10
 -818 -213 -818 -213 -737 -246 c 128,-1,11
 -656 -279 -656 -279 -561.5 -302 c 128,-1,12
 -467 -325 -467 -325 -379 -325 c 2,13,-1
 -297 -325 l 2,14,15
 -281 -325 -281 -325 -243.5 -317 c 128,-1,16
 -206 -309 -206 -309 -167.5 -286.5 c 128,-1,17
 -129 -264 -129 -264 -100 -219.5 c 128,-1,18
 -71 -175 -71 -175 -71 -104 c 0,19,20
 -71 -32 -71 -32 -129 19 c 1,21,-1
 -198 51 l 1,22,-1
 -315 62 l 1,23,24
 -347 62 -347 62 -406 37 c 1,25,-1
 -510 -37 l 1,26,-1
 -640 54 l 1,27,-1
 -566 115 l 1,28,-1
 -493 160 l 1,29,-1
 -388 194 l 1,30,-1
 -281 204 l 1,31,32
 -230 204 -230 204 -162 194 c 128,-1,33
 -94 184 -94 184 -33 149.5 c 128,-1,34
 28 115 28 115 69 51 c 128,-1,35
 110 -13 110 -13 110 -119 c 0,36,37
 111 -431 111 -431 -259 -479 c 1,0,-1
EndSplineSet
Validated: 33
EndChar

StartChar: vs.uu
Encoding: 2370 2370 113
Width: 0
GlyphClass: 4
Flags: W
LayerCount: 2
Fore
SplineSet
313 -461 m 1,0,-1
 239 -316 l 2,1,2
 218 -276 218 -276 192 -239 c 128,-1,3
 166 -202 166 -202 135 -164 c 1,4,-1
 33 -45 l 1,5,-1
 -44 19 l 1,6,-1
 -79 46 l 1,7,-1
 -196 93 l 1,8,-1
 -310 102 l 1,9,10
 -340 102 -340 102 -370.5 90 c 128,-1,11
 -401 78 -401 78 -429 53.5 c 128,-1,12
 -457 29 -457 29 -474 -5 c 128,-1,13
 -491 -39 -491 -39 -491 -82 c 0,14,15
 -491 -168 -491 -168 -414 -223 c 1,16,-1
 -350 -247 l 1,17,-1
 -239 -247 l 1,18,-1
 -196 -247 l 1,19,-1
 -142 -223 l 1,20,-1
 -116 -207 l 1,21,-1
 -153 -364 l 1,22,-1
 -292 -385 l 1,23,24
 -454 -385 -454 -385 -553.5 -302.5 c 128,-1,25
 -653 -220 -653 -220 -653 -77 c 0,26,27
 -653 32 -653 32 -576.5 116 c 128,-1,28
 -500 200 -500 200 -361 224 c 1,29,-1
 -287 230 l 1,30,31
 -151 230 -151 230 -35 170 c 128,-1,32
 81 110 81 110 201 -19 c 1,33,-1
 323 -179 l 1,34,-1
 432 -385 l 1,35,-1
 313 -461 l 1,0,-1
EndSplineSet
Validated: 1
EndChar

StartChar: vs.vr
Encoding: 2371 2371 114
Width: 0
GlyphClass: 4
Flags: W
LayerCount: 2
Fore
SplineSet
-195 264 m 1,0,-1
 -151 256 l 1,1,-1
 -151 126 l 1,2,-1
 -180 137 l 1,3,-1
 -350 131 l 2,4,5
 -424 129 -424 129 -480.5 77 c 128,-1,6
 -537 25 -537 25 -537 -49 c 0,7,8
 -537 -182 -537 -182 -350 -209 c 1,9,-1
 -233 -220 l 1,10,-1
 -172 -220 l 1,11,-1
 -39 -186 l 1,12,13
 -26 -186 -26 -186 -4 -173 c 1,14,-1
 39 -151 l 1,15,-1
 39 -313 l 1,16,-1
 -14 -341 l 1,17,-1
 -105 -361 l 1,18,19
 -151 -361 -151 -361 -172 -372 c 1,20,-1
 -286 -377 l 1,21,22
 -475 -377 -475 -377 -598 -285 c 0,23,24
 -723 -191 -723 -191 -723 -47 c 0,25,26
 -723 209 -723 209 -398 256 c 1,27,-1
 -195 264 l 1,0,-1
EndSplineSet
Validated: 1
EndChar

StartChar: vs.vrr
Encoding: 2372 2372 115
Width: 0
GlyphClass: 4
Flags: W
LayerCount: 2
Fore
SplineSet
135 -481 m 1,0,1
 92 -506 92 -506 60 -518 c 0,2,3
 -36 -557 -36 -557 -129 -557 c 0,4,5
 -258 -557 -258 -557 -354 -494 c 1,6,7
 -471 -422 -471 -422 -471 -299 c 0,8,9
 -471 -242 -471 -242 -428 -182 c 1,10,11
 -416 -162 -416 -162 -385 -137 c 1,12,13
 -436 -117 -436 -117 -457 -100 c 0,14,15
 -535 -39 -535 -39 -534 59 c 1,16,17
 -534 196 -534 196 -350 248 c 1,18,19
 -291 260 -291 260 -168 264 c 1,20,-1
 -132 159 l 1,21,22
 -142 174 -142 174 -260 147 c 1,23,24
 -383 122 -383 122 -383 39 c 0,25,26
 -383 -10 -383 -10 -334 -51 c 0,27,28
 -322 -61 -322 -61 -282 -76 c 1,29,30
 -270 -68 -270 -68 -260 -68 c 1,31,32
 -190 -52 -190 -52 -145 -51 c 0,33,34
 -110 -51 -110 -51 -82 -53 c 0,35,36
 -51 -55 -51 -55 -24 -64 c 1,37,-1
 27 -182 l 1,38,39
 -6 -176 -6 -176 -18 -176 c 1,40,41
 -96 -164 -96 -164 -113 -162 c 1,42,43
 -191 -162 -191 -162 -248 -195 c 1,44,45
 -311 -226 -311 -226 -311 -301 c 0,46,47
 -311 -442 -311 -442 -133 -442 c 0,48,49
 -80 -442 -80 -442 -4 -399 c 1,50,51
 21 -391 21 -391 64 -363 c 1,52,-1
 135 -481 l 1,0,1
EndSplineSet
Validated: 33
EndChar

StartChar: vs.chandrae
Encoding: 2373 2373 116
Width: 0
GlyphClass: 4
Flags: W
AnchorPoint: "Anchor-0" -258 1464 mark 0
LayerCount: 2
Fore
SplineSet
-106 1645 m 1,0,1
 -226 1607 -226 1607 -299 1607 c 0,2,3
 -533 1607 -533 1607 -664 1701 c 128,-1,4
 -795 1795 -795 1795 -795 1962 c 2,5,-1
 -795 1999 l 1,6,-1
 -794 2027 l 1,7,-1
 -630 2029 l 1,8,9
 -630 1909 -630 1909 -571 1847.5 c 128,-1,10
 -512 1786 -512 1786 -385 1760 c 1,11,-1
 -296 1752 l 1,12,13
 -120 1752 -120 1752 -43 1884 c 1,14,-1
 -14 2029 l 1,15,-1
 157 2029 l 1,16,-1
 163 1991 l 1,17,18
 163 1739 163 1739 -106 1645 c 1,0,1
EndSplineSet
Validated: 1
EndChar

StartChar: vs.short.e
Encoding: 2374 2374 117
Width: 0
GlyphClass: 4
Flags: W
AnchorPoint: "Anchor-0" -288 1464 mark 0
LayerCount: 2
Fore
SplineSet
-197 1448 m 1,0,-1
 -310 1448 l 1,1,-1
 -310 1590 l 2,2,3
 -310 1618 -310 1618 -332 1643 c 0,4,5
 -381 1698 -381 1698 -459 1714 c 1,6,7
 -552 1721 -552 1721 -618 1727 c 1,8,9
 -758 1736 -758 1736 -817 1792 c 0,10,11
 -887 1857 -887 1857 -886 2008 c 1,12,-1
 -886 2144 l 1,13,-1
 -772 2144 l 1,14,-1
 -772 2038 l 1,15,16
 -763 1890 -763 1890 -663 1886 c 0,17,18
 -651 1885 -651 1885 -473 1862 c 0,19,20
 -369 1848 -369 1848 -326 1814 c 1,21,22
 -225 1730 -225 1730 -219 1677 c 1,23,24
 -197 1621 -197 1621 -197 1587 c 2,25,-1
 -197 1448 l 1,0,-1
EndSplineSet
Validated: 33
EndChar

StartChar: vs.e
Encoding: 2375 2375 118
Width: 0
GlyphClass: 4
Flags: W
AnchorPoint: "Anchor-0" -258 1464 mark 0
LayerCount: 2
Fore
SplineSet
-259 1464 m 1,0,-1
 -285 1515 l 1,1,-1
 -419 1704 l 1,2,-1
 -510 1808 l 1,3,-1
 -604 1876 l 1,4,-1
 -719 1938 l 1,5,-1
 -783 1965 l 1,6,-1
 -898 1999 l 1,7,-1
 -927 2021 l 1,8,-1
 -954 2082 l 1,9,-1
 -954 2127 l 1,10,-1
 -945 2148 l 1,11,-1
 -929 2164 l 1,12,-1
 -906 2175 l 1,13,-1
 -866 2181 l 1,14,-1
 -802 2159 l 1,15,-1
 -738 2130 l 1,16,-1
 -617 2069 l 1,17,-1
 -517 1993 l 1,18,-1
 -376 1863 l 1,19,-1
 -344 1823 l 1,20,-1
 -304 1765 l 1,21,-1
 -238 1632 l 1,22,-1
 -187 1512 l 1,23,-1
 -173 1464 l 1,24,-1
 -259 1464 l 1,0,-1
EndSplineSet
Validated: 1
EndChar

StartChar: vs.ai
Encoding: 2376 2376 119
Width: 0
GlyphClass: 4
Flags: W
AnchorPoint: "Anchor-0" -328 1463 mark 0
LayerCount: 2
Fore
SplineSet
-203 1465 m 1,0,-1
 -242 1558 l 2,1,2
 -257 1593 -257 1593 -289 1640 c 1,3,4
 -323 1688 -323 1688 -358.5 1736.5 c 128,-1,5
 -394 1785 -394 1785 -427.5 1824 c 128,-1,6
 -461 1863 -461 1863 -478 1876 c 0,7,8
 -510 1902 -510 1902 -574.5 1951 c 128,-1,9
 -639 2000 -639 2000 -724 2043 c 1,10,-1
 -765 2091 l 1,11,-1
 -765 2133 l 1,12,-1
 -757 2153 l 1,13,-1
 -709 2173 l 1,14,-1
 -666 2166 l 1,15,-1
 -594 2133 l 1,16,-1
 -549 2110 l 2,17,18
 -548 2109 -548 2109 -509 2087 c 0,19,20
 -488 2075 -488 2075 -453 2049 c 1,21,-1
 -386 1985 l 1,22,-1
 -301 1873 l 1,23,-1
 -221 1734 l 1,24,-1
 -142 1561 l 2,25,26
 -119 1510 -119 1510 -117 1460 c 1,27,-1
 -203 1465 l 1,0,-1
-427 1465 m 1,28,-1
 -501 1538 l 2,29,30
 -543 1579 -543 1579 -629 1631 c 1,31,32
 -704 1675 -704 1675 -799 1721 c 1,33,-1
 -916 1766 l 1,34,-1
 -1095 1807 l 1,35,-1
 -1202 1822 l 1,36,-1
 -1241 1896 l 1,37,-1
 -1241 1929 l 1,38,-1
 -1207 1965 l 1,39,-1
 -1161 1980 l 1,40,-1
 -1108 1980 l 1,41,-1
 -1052 1963 l 1,42,43
 -927 1942 -927 1942 -807 1882 c 128,-1,44
 -687 1822 -687 1822 -588.5 1746 c 128,-1,45
 -490 1670 -490 1670 -419.5 1593 c 128,-1,46
 -349 1516 -349 1516 -323 1460 c 1,47,-1
 -427 1465 l 1,28,-1
EndSplineSet
Validated: 1
EndChar

StartChar: vs.chandra
Encoding: 2377 2377 120
Width: 645
GlyphClass: 4
Flags: W
LayerCount: 2
Fore
SplineSet
494 1645 m 1,0,1
 374 1607 374 1607 301 1607 c 0,2,3
 67 1607 67 1607 -64 1701 c 128,-1,4
 -195 1795 -195 1795 -195 1962 c 2,5,-1
 -195 1999 l 1,6,-1
 -194 2027 l 1,7,-1
 -30 2029 l 1,8,9
 -30 1909 -30 1909 29 1847.5 c 128,-1,10
 88 1786 88 1786 215 1760 c 1,11,-1
 304 1752 l 1,12,13
 480 1752 480 1752 557 1884 c 1,14,-1
 586 2029 l 1,15,-1
 757 2029 l 1,16,-1
 763 1991 l 1,17,18
 763 1739 763 1739 494 1645 c 1,0,1
391 1364 m 1,19,-1
 391 182 l 1,20,-1
 220 182 l 1,21,-1
 220 1364 l 1,22,-1
 -1 1364 l 1,23,-1
 -1 1498 l 1,24,-1
 646 1498 l 1,25,-1
 646 1364 l 1,26,-1
 391 1364 l 1,19,-1
EndSplineSet
Validated: 1
Ligature2: "'psts' Post Base Substitutions in Devanagari lookup 10 subtable" vs.aa vs.chandrae
EndChar

StartChar: vs.short.o
Encoding: 2378 2378 121
Width: 645
GlyphClass: 4
Flags: W
LayerCount: 2
Fore
SplineSet
383 1448 m 1,0,-1
 290 1448 l 1,1,-1
 290 1590 l 2,2,3
 290 1618 290 1618 268 1643 c 0,4,5
 219 1698 219 1698 141 1714 c 1,6,7
 48 1721 48 1721 -18 1727 c 1,8,9
 -158 1736 -158 1736 -217 1792 c 0,10,11
 -287 1857 -287 1857 -286 2008 c 1,12,-1
 -286 2144 l 1,13,-1
 -172 2144 l 1,14,-1
 -172 2038 l 1,15,16
 -163 1886 -163 1886 -63 1886 c 0,17,18
 -51 1886 -51 1886 127 1862 c 0,19,20
 194 1853 194 1853 259 1802 c 1,21,22
 342 1732 342 1732 366 1665 c 0,23,24
 383 1616 383 1616 383 1587 c 2,25,-1
 383 1448 l 1,0,-1
391 1364 m 1,26,-1
 391 182 l 1,27,-1
 220 182 l 1,28,-1
 220 1364 l 1,29,-1
 -1 1364 l 1,30,-1
 -1 1498 l 1,31,-1
 646 1498 l 1,32,-1
 646 1364 l 1,33,-1
 391 1364 l 1,26,-1
EndSplineSet
Validated: 37
EndChar

StartChar: vs.o
Encoding: 2379 2379 122
Width: 645
GlyphClass: 4
Flags: W
LayerCount: 2
Fore
SplineSet
247 1468 m 1,0,-1
 208 1561 l 2,1,2
 195 1594 195 1594 161 1642.5 c 128,-1,3
 127 1691 127 1691 91.5 1739.5 c 128,-1,4
 56 1788 56 1788 23 1827 c 128,-1,5
 -10 1866 -10 1866 -27 1879 c 0,6,7
 -60 1905 -60 1905 -124.5 1954 c 128,-1,8
 -189 2003 -189 2003 -274 2046 c 1,9,-1
 -315 2094 l 1,10,-1
 -315 2136 l 1,11,-1
 -307 2156 l 1,12,-1
 -259 2176 l 1,13,-1
 -216 2169 l 1,14,-1
 -144 2136 l 1,15,-1
 -99 2113 l 1,16,17
 -81 2102 -81 2102 -59.5 2090 c 128,-1,18
 -38 2078 -38 2078 -3 2052 c 1,19,-1
 64 1988 l 1,20,-1
 149 1876 l 1,21,-1
 229 1737 l 1,22,-1
 308 1564 l 1,23,24
 331 1508 331 1508 333 1463 c 1,25,-1
 247 1468 l 1,0,-1
391 1364 m 1,26,-1
 391 182 l 1,27,-1
 220 182 l 1,28,-1
 220 1364 l 1,29,-1
 -1 1364 l 1,30,-1
 -1 1498 l 1,31,-1
 646 1498 l 1,32,-1
 646 1364 l 1,33,-1
 391 1364 l 1,26,-1
EndSplineSet
Validated: 5
EndChar

StartChar: vs.au
Encoding: 2380 2380 123
Width: 645
GlyphClass: 4
Flags: W
LayerCount: 2
Fore
SplineSet
356 1463 m 1,0,-1
 317 1557 l 1,1,-1
 258 1666 l 2,2,3
 235 1709 235 1709 213 1742 c 128,-1,4
 191 1775 191 1775 161.5 1807 c 128,-1,5
 132 1839 132 1839 91 1873.5 c 128,-1,6
 50 1908 50 1908 -11 1950 c 1,7,-1
 -160 2040 l 1,8,-1
 -198 2088 l 1,9,-1
 -206 2116 l 1,10,-1
 -193 2149 l 1,11,-1
 -145 2172 l 1,12,-1
 -102 2164 l 1,13,-1
 -28 2131 l 1,14,-1
 15 2108 l 2,15,16
 39 2095 39 2095 61.5 2081.5 c 128,-1,17
 84 2068 84 2068 104 2045 c 1,18,-1
 175 1982 l 1,19,-1
 255 1870 l 1,20,-1
 340 1732 l 1,21,22
 442 1522 442 1522 442 1458 c 1,23,-1
 356 1463 l 1,0,-1
138 1463 m 1,24,-1
 61 1534 l 2,25,26
 10 1580 10 1580 -63.5 1627 c 128,-1,27
 -137 1674 -137 1674 -234 1719 c 1,28,-1
 -351 1763 l 1,29,-1
 -531 1804 l 1,30,-1
 -635 1819 l 1,31,-1
 -663 1857 l 1,32,-1
 -676 1895 l 1,33,-1
 -676 1926 l 1,34,-1
 -642 1964 l 1,35,-1
 -597 1976 l 1,36,-1
 -485 1961 l 2,37,38
 -394 1948 -394 1948 -297 1910 c 128,-1,39
 -200 1872 -200 1872 -104 1808.5 c 128,-1,40
 -8 1745 -8 1745 79.5 1657.5 c 128,-1,41
 167 1570 167 1570 239 1458 c 1,42,-1
 138 1463 l 1,24,-1
391 1364 m 1,43,-1
 391 182 l 1,44,-1
 220 182 l 1,45,-1
 220 1364 l 1,46,-1
 -1 1364 l 1,47,-1
 -1 1498 l 1,48,-1
 646 1498 l 1,49,-1
 646 1364 l 1,50,-1
 391 1364 l 1,43,-1
EndSplineSet
Validated: 5
EndChar

StartChar: vs.virama
Encoding: 2381 2381 124
Width: 0
GlyphClass: 4
Flags: W
LayerCount: 2
Fore
SplineSet
63 -302 m 1,0,-1
 -565 39 l 1,1,-1
 -417 148 l 1,2,-1
 148 -233 l 1,3,-1
 63 -302 l 1,0,-1
EndSplineSet
Validated: 1
EndChar

StartChar: uni094E
Encoding: 2382 2382 125
Width: 645
GlyphClass: 2
Flags: W
LayerCount: 2
Fore
SplineSet
391 1364 m 1,0,-1
 391 182 l 1,1,-1
 220 182 l 1,2,-1
 220 1364 l 1,3,-1
 220 1498 l 1,4,-1
 646 1498 l 1,5,-1
 646 1364 l 1,6,-1
 391 1364 l 1,0,-1
EndSplineSet
Validated: 1
EndChar

StartChar: s.aw
Encoding: 2383 2383 126
Width: 645
GlyphClass: 2
Flags: W
LayerCount: 2
Fore
SplineSet
414 1397 m 1,0,-1
 334 1444 l 1,1,-1
 405 1567 l 2,2,3
 419 1591 419 1591 412 1624 c 0,4,5
 397 1696 397 1696 338 1749 c 1,6,7
 260 1802 260 1802 206 1840 c 1,8,9
 90 1917 90 1917 67 1995 c 1,10,11
 38 2087 38 2087 115 2217 c 1,12,-1
 183 2335 l 1,13,-1
 282 2278 l 1,14,-1
 229 2186 l 1,15,16
 160 2050 160 2050 247 2000 c 0,17,18
 257 1994 257 1994 399 1884 c 0,19,20
 453 1843 453 1843 484 1766 c 1,21,22
 521 1664 521 1664 508 1594 c 0,23,24
 498 1543 498 1543 484 1518 c 2,25,-1
 414 1397 l 1,0,-1
352 1419 m 1,26,-1
 260 1410 l 1,27,-1
 247 1552 l 2,28,29
 245 1580 245 1580 221 1603 c 0,30,31
 167 1653 167 1653 88 1662 c 1,32,33
 -5 1661 -5 1661 -71 1662 c 1,34,35
 -212 1658 -212 1658 -275 1709 c 1,36,37
 -351 1768 -351 1768 -363 1918 c 1,38,-1
 -375 2054 l 1,39,-1
 -261 2063 l 1,40,-1
 -252 1958 l 1,41,42
 -230 1807 -230 1807 -130 1816 c 0,43,44
 -118 1817 -118 1817 61 1809 c 0,45,46
 132 1806 132 1806 198 1760 c 0,47,48
 287 1698 287 1698 317 1633 c 0,49,50
 338 1586 338 1586 340 1557 c 2,51,-1
 352 1419 l 1,26,-1
391 1364 m 1,52,-1
 391 182 l 1,53,-1
 220 182 l 1,54,-1
 220 1364 l 1,55,-1
 -1 1364 l 1,56,-1
 -1 1498 l 1,57,-1
 646 1498 l 1,58,-1
 646 1364 l 1,59,-1
 391 1364 l 1,52,-1
EndSplineSet
Validated: 37
EndChar

StartChar: aum
Encoding: 2384 2384 127
Width: 2329
GlyphClass: 2
Flags: W
LayerCount: 2
Fore
SplineSet
1423 1990 m 0,0,1
 1423 1944 1423 1944 1388.5 1909.5 c 128,-1,2
 1354 1875 1354 1875 1308 1875 c 0,3,4
 1263 1875 1263 1875 1229.5 1908 c 128,-1,5
 1196 1941 1196 1941 1196 1990 c 0,6,7
 1196 2038 1196 2038 1228 2069.5 c 128,-1,8
 1260 2101 1260 2101 1308 2101 c 0,9,10
 1354 2101 1354 2101 1388.5 2069.5 c 128,-1,11
 1423 2038 1423 2038 1423 1990 c 0,0,1
1867 1952 m 1,12,13
 1870 1931 1870 1931 1870 1914 c 0,14,15
 1870 1779 1870 1779 1785 1688 c 0,16,17
 1644 1536 1644 1536 1298 1537 c 0,18,19
 973 1537 973 1537 840 1675 c 0,20,21
 754 1763 754 1763 754 1899 c 0,22,23
 754 1917 754 1917 755.5 1929 c 128,-1,24
 757 1941 757 1941 760 1952 c 1,25,-1
 922 1952 l 1,26,27
 917 1896 917 1896 925 1863 c 1,28,29
 978 1672 978 1672 1300 1672 c 0,30,31
 1521 1672 1521 1672 1623 1761 c 0,32,33
 1684 1814 1684 1814 1699 1952 c 1,34,-1
 1867 1952 l 1,12,13
2240 885 m 0,35,36
 2240 664 2240 664 2121 527 c 0,37,38
 1988 375 1988 375 1745 376 c 0,39,40
 1511 376 1511 376 1359 544 c 1,41,-1
 1463 658 l 1,42,43
 1524 576 1524 576 1582.5 546.5 c 128,-1,44
 1641 517 1641 517 1766 517 c 0,45,46
 1931 517 1931 517 2011 622 c 128,-1,47
 2091 727 2091 727 2091 908 c 0,48,49
 2091 1060 2091 1060 1995.5 1168 c 128,-1,50
 1900 1276 1900 1276 1745 1276 c 0,51,52
 1649 1276 1649 1276 1573 1205 c 128,-1,53
 1497 1134 1497 1134 1446 1020 c 0,54,55
 1380 870 1380 870 1285 804 c 0,56,57
 1216 756 1216 756 1133 756 c 0,58,59
 1100 756 1100 756 1080.5 762 c 128,-1,60
 1061 768 1061 768 1044 773 c 1,61,62
 1057 740 1057 740 1064 722 c 1,63,64
 1082 658 1082 658 1082 597 c 0,65,66
 1082 402 1082 402 954 297 c 128,-1,67
 826 192 826 192 607 192 c 0,68,69
 264 192 264 192 142 418 c 0,70,71
 102 492 102 492 89 644 c 1,72,-1
 241 644 l 1,73,74
 249 540 249 540 272 491 c 0,75,76
 346 336 346 336 561 336 c 0,77,78
 598 336 598 336 619 339 c 1,79,80
 766 352 766 352 842.5 413 c 128,-1,81
 919 474 919 474 919 595 c 0,82,83
 919 755 919 755 767 826 c 1,84,85
 661 877 661 877 510 877 c 0,86,87
 436 877 436 877 429 872 c 1,88,-1
 429 1017 l 1,89,90
 459 1015 459 1015 475 1015 c 0,91,92
 605 1015 605 1015 704 1052 c 0,93,94
 853 1108 853 1108 853 1236 c 0,95,96
 853 1332 853 1332 781 1373 c 128,-1,97
 709 1414 709 1414 602 1414 c 0,98,99
 437 1414 437 1414 366 1324 c 0,100,101
 342 1294 342 1294 325 1233 c 1,102,-1
 168 1233 l 1,103,104
 184 1337 184 1337 219 1388 c 0,105,106
 325 1542 325 1542 592 1542 c 0,107,108
 762 1542 762 1542 874 1472 c 0,109,110
 1007 1390 1007 1390 1008 1230 c 0,111,112
 1008 1070 1008 1070 877 996 c 1,113,114
 834 973 834 973 744 951 c 1,115,116
 787 938 787 938 813 930 c 1,117,118
 895 900 895 900 940 868 c 1,119,120
 953 862 953 862 974.5 858.5 c 128,-1,121
 996 855 996 855 1021 855 c 0,122,123
 1100 855 1100 855 1164 895 c 1,124,125
 1252 948 1252 948 1308 1073 c 0,126,127
 1382 1241 1382 1241 1473 1319 c 0,128,129
 1577 1407 1577 1407 1735 1406 c 1,130,131
 1948 1406 1948 1406 2094 1262.5 c 128,-1,132
 2240 1119 2240 1119 2240 885 c 0,35,36
EndSplineSet
Validated: 33
EndChar

StartChar: vs.udatta
Encoding: 2385 2385 128
Width: 0
GlyphClass: 4
Flags: W
AnchorPoint: "Anchor-0" -498 1464 mark 0
LayerCount: 2
Fore
SplineSet
-649 1481 m 1,0,-1
 -649 1949 l 1,1,-1
 -477 1949 l 1,2,-1
 -477 1500 l 1,3,-1
 -523 1500 l 1,4,-1
 -649 1481 l 1,0,-1
EndSplineSet
Validated: 1
EndChar

StartChar: vs.anudatta
Encoding: 2386 2386 129
Width: 0
GlyphClass: 4
Flags: W
LayerCount: 2
Fore
SplineSet
-74 -118 m 1,0,-1
 -74 -277 l 1,1,-1
 -954 -277 l 1,2,-1
 -954 -118 l 1,3,-1
 -74 -118 l 1,0,-1
EndSplineSet
Validated: 1
EndChar

StartChar: uni0953
Encoding: 2387 2387 130
Width: 0
GlyphClass: 4
Flags: W
AnchorPoint: "Anchor-0" -328 1464 mark 0
LayerCount: 2
Fore
SplineSet
-749 1945 m 1,0,-1
 -482 1945 l 1,1,-1
 -326 1486 l 1,2,-1
 -456 1486 l 1,3,-1
 -749 1945 l 1,0,-1
EndSplineSet
Validated: 1
EndChar

StartChar: vs.acute.accent
Encoding: 2388 2388 131
Width: 0
GlyphClass: 4
Flags: W
AnchorPoint: "Anchor-0" -328 1464 mark 0
LayerCount: 2
Fore
SplineSet
-326 1486 m 1,0,-1
 -456 1486 l 1,1,-1
 -300 1945 l 1,2,-1
 -33 1945 l 1,3,-1
 -326 1486 l 1,0,-1
EndSplineSet
Validated: 1
EndChar

StartChar: uni0955
Encoding: 2389 2389 132
Width: 0
GlyphClass: 2
Flags: W
LayerCount: 2
Fore
SplineSet
-156 1928 m 1,0,1
 -276 1890 -276 1890 -349 1890 c 0,2,3
 -583 1890 -583 1890 -714 1984 c 128,-1,4
 -845 2078 -845 2078 -845 2245 c 2,5,-1
 -845 2282 l 1,6,-1
 -844 2310 l 1,7,-1
 -680 2312 l 1,8,9
 -680 2192 -680 2192 -621 2130.5 c 128,-1,10
 -562 2069 -562 2069 -435 2043 c 1,11,-1
 -346 2035 l 1,12,13
 -170 2035 -170 2035 -93 2167 c 1,14,-1
 -64 2312 l 1,15,-1
 107 2312 l 1,16,-1
 113 2274 l 1,17,18
 113 2022 113 2022 -156 1928 c 1,0,1
-259 1647 m 1,19,-1
 -430 1647 l 1,20,-1
 -751 1647 l 1,21,-1
 -751 1781 l 1,22,-1
 36 1781 l 1,23,-1
 36 1647 l 1,24,-1
 -259 1647 l 1,19,-1
EndSplineSet
Validated: 1
EndChar

StartChar: uni0956
Encoding: 2390 2390 133
Width: 0
GlyphClass: 2
Flags: W
LayerCount: 2
Fore
SplineSet
-158 50 m 1,0,1
 -338 -217 -338 -217 -606 -217 c 0,2,3
 -893 -217 -893 -217 -1034 50 c 1,4,-1
 -872 50 l 1,5,6
 -740 -86 -740 -86 -606 -85 c 0,7,8
 -460 -84 -460 -84 -340 50 c 1,9,-1
 -158 50 l 1,0,1
EndSplineSet
Validated: 33
EndChar

StartChar: uni0957
Encoding: 2391 2391 134
Width: 0
GlyphClass: 2
Flags: W
LayerCount: 2
Fore
SplineSet
-158 -240 m 1,0,1
 -338 -507 -338 -507 -606 -507 c 0,2,3
 -893 -507 -893 -507 -1034 -240 c 1,4,-1
 -872 -240 l 1,5,6
 -740 -376 -740 -376 -606 -375 c 0,7,8
 -460 -374 -460 -374 -340 -240 c 1,9,-1
 -158 -240 l 1,0,1
-158 40 m 1,10,11
 -338 -227 -338 -227 -606 -227 c 0,12,13
 -893 -227 -893 -227 -1034 40 c 1,14,-1
 -872 40 l 1,15,16
 -740 -96 -740 -96 -606 -95 c 0,17,18
 -460 -94 -460 -94 -340 40 c 1,19,-1
 -158 40 l 1,10,11
EndSplineSet
Validated: 33
EndChar

StartChar: l.qa
Encoding: 2392 2392 135
Width: 1751
GlyphClass: 2
Flags: W
AnchorPoint: "Anchor-0" 951 1464 basechar 0
LayerCount: 2
Fore
SplineSet
353 97 m 1,0,-1
 307 77 l 1,1,-1
 259 66 l 1,2,3
 229 66 229 66 211 77 c 1,4,-1
 168 97 l 1,5,-1
 140 138 l 1,6,-1
 132 186 l 1,7,8
 132 265 132 265 206 305 c 1,9,-1
 259 316 l 1,10,11
 310 316 310 316 351 283 c 128,-1,12
 392 250 392 250 392 186 c 1,13,14
 393 146 393 146 353 97 c 1,0,-1
975 1364 m 1,15,-1
 975 1064 l 1,16,-1
 1028 1097 l 1,17,-1
 1098 1127 l 1,18,-1
 1162 1143 l 1,19,-1
 1231 1148 l 1,20,21
 1409 1148 1409 1148 1533 1041.5 c 128,-1,22
 1657 935 1657 935 1657 758 c 128,-1,23
 1657 581 1657 581 1546.5 460.5 c 128,-1,24
 1436 340 1436 340 1258 340 c 1,25,-1
 1167 350 l 1,26,-1
 1167 499 l 1,27,-1
 1236 490 l 1,28,29
 1332 490 1332 490 1409.5 558.5 c 128,-1,30
 1487 627 1487 627 1487 744 c 128,-1,31
 1487 861 1487 861 1424 922 c 128,-1,32
 1361 983 1361 983 1241 983 c 1,33,-1
 1173 975 l 1,34,-1
 1135 965 l 1,35,-1
 1018 906 l 1,36,37
 985 888 985 888 975 866 c 1,38,-1
 975 182 l 1,39,-1
 810 182 l 1,40,-1
 810 467 l 1,41,-1
 685 408 l 1,42,-1
 595 390 l 1,43,-1
 536 388 l 1,44,45
 347 388 347 388 228.5 495 c 128,-1,46
 110 602 110 602 110 774.5 c 128,-1,47
 110 947 110 947 217 1050 c 128,-1,48
 324 1153 324 1153 539 1153 c 1,49,-1
 629 1148 l 1,50,-1
 677 997 l 1,51,-1
 560 1016 l 1,52,53
 446 1016 446 1016 362 954.5 c 128,-1,54
 278 893 278 893 278 774 c 128,-1,55
 278 655 278 655 368 589 c 1,56,-1
 446 553 l 1,57,-1
 539 541 l 1,58,59
 597 541 597 541 640 555 c 1,60,-1
 688 568 l 1,61,-1
 773 622 l 1,62,-1
 805 655 l 1,63,-1
 805 1364 l 1,64,-1
 -1 1364 l 1,65,-1
 -1 1498 l 1,66,-1
 1752 1498 l 1,67,-1
 1752 1364 l 1,68,-1
 975 1364 l 1,15,-1
EndSplineSet
Validated: 33
Ligature2: "'nukt' Nukta Forms in Devanagari lookup 0 subtable" l.ka s.nukta
EndChar

StartChar: l.khha
Encoding: 2393 2393 136
Width: 1939
GlyphClass: 2
Flags: W
LayerCount: 2
Fore
SplineSet
353 97 m 1,0,-1
 307 77 l 1,1,-1
 259 66 l 1,2,3
 229 66 229 66 211 77 c 1,4,-1
 168 97 l 1,5,-1
 140 138 l 1,6,-1
 132 186 l 1,7,8
 132 265 132 265 206 305 c 1,9,-1
 259 316 l 1,10,11
 310 316 310 316 351 283 c 128,-1,12
 392 250 392 250 392 186 c 1,13,14
 393 146 393 146 353 97 c 1,0,-1
1465 507 m 1,15,-1
 1402 485 l 1,16,-1
 1259 472 l 1,17,18
 1259 453 1259 453 1250 432 c 2,19,-1
 1221 363 l 1,20,21
 1125 182 1125 182 822 182 c 0,22,23
 571 182 571 182 422 342 c 256,24,25
 273 502 273 502 273 714 c 1,26,-1
 113 741 l 1,27,-1
 113 896 l 1,28,-1
 137 885 l 1,29,-1
 198 874 l 1,30,-1
 431 874 l 1,31,32
 522 887 522 887 578.5 939 c 128,-1,33
 635 991 635 991 635 1064.5 c 128,-1,34
 635 1138 635 1138 615.5 1182 c 128,-1,35
 596 1226 596 1226 571 1262 c 2,36,-1
 497 1364 l 1,37,-1
 -1 1364 l 1,38,-1
 -1 1498 l 1,39,-1
 1940 1498 l 1,40,-1
 1940 1364 l 1,41,-1
 1684 1364 l 1,42,-1
 1684 182 l 1,43,-1
 1514 182 l 1,44,-1
 1514 533 l 1,45,-1
 1465 507 l 1,15,-1
1514 1364 m 1,46,-1
 678 1364 l 1,47,-1
 718 1308 l 1,48,49
 753 1257 753 1257 784 1145 c 1,50,-1
 795 1063 l 1,51,52
 795 833 795 833 581 751 c 0,53,54
 513 725 513 725 422 725 c 1,55,56
 422 688 422 688 428 667 c 2,57,-1
 441 616 l 1,58,-1
 462 563 l 1,59,-1
 497 507 l 1,60,61
 604 332 604 332 832 332 c 0,62,63
 1003 332 1003 332 1068 438 c 1,64,65
 1087 472 1087 472 1104 512 c 1,66,67
 923 609 923 609 922 820 c 1,68,69
 922 1127 922 1127 1259 1173 c 1,70,-1
 1356 1178 l 1,71,-1
 1376 1175 l 1,72,-1
 1397 1036 l 1,73,-1
 1306 1039 l 2,74,75
 1215 1041 1215 1041 1158 982.5 c 128,-1,76
 1101 924 1101 924 1101 847 c 128,-1,77
 1101 770 1101 770 1130.5 718.5 c 128,-1,78
 1160 667 1160 667 1247 632 c 1,79,-1
 1338 621 l 1,80,-1
 1386 627 l 1,81,-1
 1465 661 l 1,82,-1
 1514 725 l 1,83,-1
 1514 1364 l 1,46,-1
EndSplineSet
Validated: 33
Ligature2: "'nukt' Nukta Forms in Devanagari lookup 0 subtable" l.kh s.nukta
EndChar

StartChar: l.ghha
Encoding: 2394 2394 137
Width: 1546
GlyphClass: 2
Flags: W
LayerCount: 2
Fore
SplineSet
523 -33 m 1,0,-1
 477 -53 l 1,1,-1
 429 -64 l 1,2,3
 399 -64 399 -64 381 -53 c 1,4,-1
 338 -33 l 1,5,-1
 310 8 l 1,6,-1
 302 56 l 1,7,8
 302 135 302 135 376 175 c 1,9,-1
 429 186 l 1,10,11
 480 186 480 186 521 152.5 c 128,-1,12
 562 119 562 119 562 56 c 1,13,14
 563 16 563 16 523 -33 c 1,0,-1
424 853 m 1,15,16
 254 853 254 853 254 745 c 0,17,18
 254 653 254 653 304.5 590.5 c 128,-1,19
 355 528 355 528 459 528 c 0,20,21
 632 528 632 528 658 787 c 1,22,-1
 663 879 l 1,23,24
 663 1186 663 1186 478 1361 c 1,25,-1
 -25 1361 l 1,26,-1
 -25 1498 l 1,27,-1
 1547 1498 l 1,28,-1
 1547 1364 l 1,29,-1
 1293 1364 l 1,30,-1
 1293 182 l 1,31,-1
 1116 182 l 1,32,-1
 1116 1364 l 1,33,-1
 671 1364 l 1,34,35
 687 1334 687 1334 704 1308 c 1,36,37
 721 1284 721 1284 732 1255 c 2,38,-1
 781 1130 l 1,39,40
 829 999 829 999 829 879 c 0,41,42
 829 373 829 373 437 373 c 0,43,44
 206 373 206 373 117 570 c 0,45,46
 88 635 88 635 89 720 c 1,47,48
 89 845 89 845 193 922 c 1,49,-1
 238 947 l 1,50,-1
 302 967 l 1,51,-1
 429 1000 l 1,52,-1
 424 853 l 1,15,16
EndSplineSet
Validated: 33
Ligature2: "'nukt' Nukta Forms in Devanagari lookup 0 subtable" l.ga s.nukta
EndChar

StartChar: l.za
Encoding: 2395 2395 138
Width: 1711
GlyphClass: 2
Flags: W
LayerCount: 2
Fore
SplineSet
713 -33 m 1,0,-1
 667 -53 l 1,1,-1
 619 -64 l 1,2,3
 589 -64 589 -64 571 -53 c 1,4,-1
 528 -33 l 1,5,-1
 500 8 l 1,6,-1
 492 56 l 1,7,8
 492 135 492 135 566 175 c 1,9,-1
 619 186 l 1,10,11
 670 186 670 186 711 152.5 c 128,-1,12
 752 119 752 119 752 56 c 1,13,14
 753 16 753 16 713 -33 c 1,0,-1
1455 1364 m 1,15,-1
 1455 182 l 1,16,-1
 1285 182 l 1,17,-1
 1285 935 l 1,18,-1
 939 935 l 1,19,-1
 1008 837 l 1,20,21
 1045 742 1045 742 1049 696 c 1,22,-1
 1051 645 l 1,23,24
 1051 456 1051 456 869 347 c 1,25,-1
 795 310 l 1,26,27
 731 286 731 286 640 286 c 0,28,29
 406 286 406 286 274 455 c 128,-1,30
 142 624 142 624 142 952 c 2,31,-1
 142 1051 l 1,32,-1
 152 1082 l 1,33,-1
 317 1082 l 1,34,-1
 305 1042 l 1,35,-1
 305 861 l 2,36,37
 305 810 305 810 317 782 c 1,38,-1
 363 635 l 1,39,40
 430 451 430 451 635 451 c 0,41,42
 739 451 739 451 804 516 c 128,-1,43
 869 581 869 581 869 678.5 c 128,-1,44
 869 776 869 776 795 866 c 1,45,-1
 721 935 l 1,46,-1
 582 935 l 1,47,-1
 582 1084 l 1,48,-1
 1283 1084 l 1,49,-1
 1283 1364 l 1,50,-1
 -1 1364 l 1,51,-1
 -1 1498 l 1,52,-1
 1712 1498 l 1,53,-1
 1712 1364 l 1,54,-1
 1455 1364 l 1,15,-1
EndSplineSet
Validated: 33
Ligature2: "'nukt' Nukta Forms in Devanagari lookup 0 subtable" l.ja s.nukta
EndChar

StartChar: l.dddha
Encoding: 2396 2396 139
Width: 1246
GlyphClass: 2
Flags: W
LayerCount: 2
Fore
SplineSet
713 -133 m 1,0,-1
 667 -153 l 1,1,-1
 619 -164 l 1,2,3
 589 -164 589 -164 571 -153 c 1,4,-1
 528 -133 l 1,5,-1
 500 -92 l 1,6,-1
 492 -44 l 1,7,8
 492 35 492 35 566 75 c 1,9,-1
 619 86 l 1,10,11
 670 86 670 86 711 52.5 c 128,-1,12
 752 19 752 19 752 -44 c 1,13,14
 753 -84 753 -84 713 -133 c 1,0,-1
922 1364 m 1,15,-1
 922 1034 l 1,16,-1
 558 1034 l 1,17,-1
 464 1026 l 1,18,19
 422 1026 422 1026 379.5 1000.5 c 128,-1,20
 337 975 337 975 337 918 c 128,-1,21
 337 861 337 861 398 830 c 1,22,-1
 470 813 l 1,23,-1
 848 823 l 1,24,25
 960 823 960 823 1053.5 741 c 128,-1,26
 1147 659 1147 659 1146.5 522 c 128,-1,27
 1146 385 1146 385 1042.5 286 c 128,-1,28
 939 187 939 187 754 187 c 1,29,-1
 642 182 l 1,30,31
 312 182 312 182 182 360 c 1,32,-1
 108 555 l 1,33,-1
 271 555 l 1,34,-1
 297 480 l 1,35,-1
 321 437 l 1,36,37
 410 325 410 325 635 325 c 2,38,-1
 720 325 l 1,39,40
 873 345 873 345 944 434 c 0,41,42
 977 475 977 475 976 540 c 128,-1,43
 975 605 975 605 917 648 c 1,44,-1
 853 670 l 1,45,-1
 774 678 l 1,46,-1
 390 678 l 1,47,-1
 337 690 l 1,48,49
 273 706 273 706 223.5 774.5 c 128,-1,50
 174 843 174 843 174 919 c 0,51,52
 174 1069 174 1069 312 1140 c 1,53,-1
 368 1156 l 1,54,-1
 454 1173 l 1,55,-1
 769 1173 l 1,56,-1
 769 1364 l 1,57,-1
 -1 1364 l 1,58,-1
 -1 1498 l 1,59,-1
 1247 1498 l 1,60,-1
 1247 1364 l 1,61,-1
 922 1364 l 1,15,-1
EndSplineSet
Validated: 33
Ligature2: "'nukt' Nukta Forms in Devanagari lookup 0 subtable" l.dda s.nukta
EndChar

StartChar: l.dddhha
Encoding: 2397 2397 140
Width: 1324
GlyphClass: 2
Flags: W
LayerCount: 2
Fore
SplineSet
713 -132 m 1,0,-1
 667 -152 l 1,1,-1
 619 -163 l 1,2,3
 589 -163 589 -163 571 -152 c 1,4,-1
 528 -132 l 1,5,-1
 500 -91 l 1,6,-1
 492 -43 l 1,7,8
 492 36 492 36 566 76 c 1,9,-1
 619 87 l 1,10,11
 670 87 670 87 711 53.5 c 128,-1,12
 752 20 752 20 752 -43 c 1,13,14
 753 -83 753 -83 713 -132 c 1,0,-1
917 1364 m 1,15,-1
 917 991 l 1,16,-1
 718 997 l 1,17,18
 437 997 437 997 337 844 c 0,19,20
 299 787 299 787 299 698 c 0,21,22
 299 560 299 560 388 477.5 c 128,-1,23
 477 395 477 395 629 395 c 1,24,-1
 624 451 l 1,25,26
 624 619 624 619 714.5 732 c 128,-1,27
 805 845 805 845 973 845 c 0,28,29
 1071 845 1071 845 1156 776 c 1,30,31
 1239 707 1239 707 1239 605 c 0,32,33
 1239 437 1239 437 1097 340 c 128,-1,34
 955 243 955 243 693 243 c 128,-1,35
 431 243 431 243 282.5 365.5 c 128,-1,36
 134 488 134 488 134 714 c 0,37,38
 134 884 134 884 262 1006 c 0,39,40
 389 1127 389 1127 603 1127 c 2,41,-1
 774 1127 l 1,42,-1
 774 1364 l 1,43,-1
 -1 1364 l 1,44,-1
 -1 1498 l 1,45,-1
 1325 1498 l 1,46,-1
 1325 1364 l 1,47,-1
 917 1364 l 1,15,-1
1074 632 m 1,48,49
 1069 650 1069 650 1048 672 c 1,50,-1
 1010 693 l 1,51,-1
 965 701 l 1,52,53
 840 701 840 701 800 553 c 1,54,-1
 784 398 l 1,55,-1
 792 388 l 1,56,-1
 805 385 l 1,57,-1
 851 393 l 1,58,-1
 939 419 l 2,59,60
 1083 462 1083 462 1082 592 c 1,61,-1
 1074 632 l 1,48,49
EndSplineSet
Validated: 33
Ligature2: "'nukt' Nukta Forms in Devanagari lookup 0 subtable" l.ddha s.nukta
EndChar

StartChar: l.fa
Encoding: 2398 2398 141
Width: 1770
GlyphClass: 2
Flags: W
AnchorPoint: "Anchor-0" 939 1464 basechar 0
LayerCount: 2
Fore
SplineSet
353 97 m 1,0,-1
 307 77 l 1,1,-1
 259 66 l 1,2,3
 229 66 229 66 211 77 c 1,4,-1
 168 97 l 1,5,-1
 140 138 l 1,6,-1
 132 186 l 1,7,8
 132 265 132 265 206 305 c 1,9,-1
 259 316 l 1,10,11
 310 316 310 316 351 283 c 128,-1,12
 392 250 392 250 392 186 c 1,13,14
 393 146 393 146 353 97 c 1,0,-1
987 1364 m 1,15,-1
 987 1047 l 1,16,-1
 1071 1090 l 1,17,-1
 1167 1112 l 1,18,-1
 1279 1120 l 1,19,20
 1462 1120 1462 1120 1585.5 1006.5 c 128,-1,21
 1709 893 1709 893 1711 698 c 1,22,23
 1711 568 1711 568 1645 469.5 c 128,-1,24
 1579 371 1579 371 1470 342 c 1,25,-1
 1364 312 l 1,26,-1
 1228 302 l 1,27,-1
 1228 464 l 1,28,-1
 1252 456 l 1,29,-1
 1284 456 l 2,30,31
 1396 456 1396 456 1468 529 c 128,-1,32
 1540 602 1540 602 1540 716 c 128,-1,33
 1540 830 1540 830 1465.5 897.5 c 128,-1,34
 1391 965 1391 965 1262 965 c 128,-1,35
 1133 965 1133 965 1061 914 c 1,36,-1
 987 850 l 1,37,-1
 987 182 l 1,38,-1
 816 182 l 1,39,-1
 816 541 l 1,40,-1
 738 488 l 1,41,-1
 656 462 l 1,42,-1
 578 454 l 1,43,44
 324 454 324 454 214 646 c 0,45,46
 174 716 174 716 174 826 c 2,47,-1
 174 1364 l 1,48,-1
 -1 1364 l 1,49,-1
 -1 1498 l 1,50,-1
 1771 1498 l 1,51,-1
 1771 1364 l 1,52,-1
 987 1364 l 1,15,-1
812 1364 m 1,53,-1
 344 1364 l 1,54,-1
 344 858 l 2,55,56
 344 805 344 805 355 784 c 1,57,-1
 368 736 l 1,58,59
 426 614 426 614 593 614 c 0,60,61
 646 614 646 614 715 645 c 1,62,-1
 757 672 l 1,63,-1
 784 696 l 1,64,-1
 812 733 l 1,65,-1
 812 1364 l 1,53,-1
EndSplineSet
Validated: 33
Ligature2: "'nukt' Nukta Forms in Devanagari lookup 0 subtable" l.pha s.nukta
EndChar

StartChar: l.yya
Encoding: 2399 2399 142
Width: 1515
GlyphClass: 2
Flags: W
LayerCount: 2
Fore
SplineSet
353 97 m 1,0,-1
 307 77 l 1,1,-1
 259 66 l 1,2,3
 229 66 229 66 211 77 c 1,4,-1
 168 97 l 1,5,-1
 140 138 l 1,6,-1
 132 186 l 1,7,8
 132 265 132 265 206 305 c 1,9,-1
 259 316 l 1,10,11
 310 316 310 316 351 283 c 128,-1,12
 392 250 392 250 392 186 c 1,13,14
 393 146 393 146 353 97 c 1,0,-1
1259 1364 m 1,15,-1
 1259 182 l 1,16,-1
 1090 182 l 1,17,-1
 1090 533 l 1,18,-1
 1031 493 l 1,19,-1
 960 456 l 1,20,-1
 827 416 l 1,21,-1
 688 403 l 1,22,23
 437 403 437 403 295.5 536.5 c 128,-1,24
 154 670 154 670 154 935 c 1,25,-1
 156 1023 l 1,26,-1
 230 1002 l 1,27,-1
 316 991 l 1,28,-1
 454 991 l 2,29,30
 507 991 507 991 558 1028.5 c 128,-1,31
 609 1066 609 1066 609 1135 c 0,32,33
 609 1151 609 1151 596 1183 c 1,34,-1
 566 1242 l 1,35,-1
 464 1364 l 1,36,-1
 -1 1364 l 1,37,-1
 -1 1498 l 1,38,-1
 1516 1498 l 1,39,-1
 1516 1364 l 1,40,-1
 1259 1364 l 1,15,-1
1087 1364 m 1,41,-1
 657 1364 l 1,42,-1
 728 1265 l 1,43,44
 774 1166 774 1166 774 1090 c 0,45,46
 774 924 774 924 540 861 c 1,47,-1
 408 850 l 1,48,-1
 294 861 l 1,49,-1
 302 792 l 2,50,51
 307 754 307 754 324 731 c 1,52,-1
 358 678 l 1,53,54
 470 550 470 550 683 549 c 0,55,56
 848 549 848 549 982 629 c 1,57,-1
 1034 667 l 1,58,-1
 1087 714 l 1,59,-1
 1087 1364 l 1,41,-1
EndSplineSet
Validated: 33
Ligature2: "'nukt' Nukta Forms in Devanagari lookup 0 subtable" l.ya s.nukta
EndChar

StartChar: l.vrr
Encoding: 2400 2400 143
Width: 1952
GlyphClass: 2
Flags: W
LayerCount: 2
Fore
SplineSet
1722 621 m 1,0,1
 1722 621 1722 621 1802 647 c 1,2,-1
 1787 671 l 1,3,-1
 1614 920 l 1,4,-1
 1764 989 l 1,5,-1
 1711 1118 l 1,6,-1
 1513 1197 l 1,7,-1
 1358 1133 l 1,8,-1
 1412 1004 l 1,9,-1
 1145 869 l 1,10,-1
 1145 1375 l 1,11,-1
 1952 1375 l 1,12,-1
 1952 1509 l 1,13,-1
 -1 1509 l 1,14,-1
 -1 1375 l 1,15,-1
 972 1375 l 1,16,-1
 972 813 l 1,17,-1
 720 699 l 1,18,-1
 754 752 l 1,19,-1
 792 854 l 1,20,21
 799 877 799 877 799 920 c 2,22,-1
 799 946 l 2,23,24
 799 1058 799 1058 725.5 1121 c 128,-1,25
 652 1184 652 1184 522 1184 c 1,26,-1
 405 1174 l 1,27,-1
 288 1144 l 1,28,-1
 187 1103 l 1,29,-1
 123 1064 l 1,30,-1
 187 923 l 1,31,-1
 197 925 l 1,32,-1
 283 978 l 2,33,34
 318 1000 318 1000 378 1016 c 1,35,36
 441 1034 441 1034 504 1034 c 1,37,-1
 563 1024 l 1,38,39
 608 1002 608 1002 621 967.5 c 128,-1,40
 634 933 634 933 634 860 c 128,-1,41
 634 787 634 787 581 686 c 1,42,-1
 533 613 l 1,43,-1
 251 483 l 1,44,-1
 326 343 l 1,45,-1
 975 681 l 1,46,-1
 975 193 l 1,47,-1
 1145 193 l 1,48,-1
 1145 732 l 1,49,-1
 1484 885 l 1,50,-1
 1623 737 l 1,51,52
 1609 728 1609 728 1599 720 c 1,53,54
 1546 694 1546 694 1476 655 c 1,55,56
 1299 583 1299 583 1314 447 c 1,57,58
 1323 352 1323 352 1408 297 c 0,59,60
 1431 283 1431 283 1483 269 c 1,61,62
 1455 240 1455 240 1446 219 c 1,63,64
 1410 155 1410 155 1416 98 c 0,65,66
 1429 -24 1429 -24 1554 -83 c 1,67,68
 1656 -135 1656 -135 1784 -121 c 0,69,70
 1869 -111 1869 -111 1968 -61 c 0,71,72
 1998 -46 1998 -46 2038 -16 c 1,73,-1
 1955 93 l 1,74,75
 1915 61 1915 61 1891 50 c 1,76,77
 1820 -1 1820 -1 1768 -7 c 0,78,79
 1591 -26 1591 -26 1575 114 c 0,80,81
 1567 188 1567 188 1626 226 c 1,82,83
 1679 265 1679 265 1757 274 c 1,84,85
 1774 274 1774 274 1853 270 c 1,86,87
 1864 272 1864 272 1898 269 c 1,88,-1
 1834 381 l 1,89,90
 1806 387 1806 387 1775 385 c 0,91,92
 1747 384 1747 384 1713 380 c 0,93,94
 1668 375 1668 375 1600 351 c 1,95,96
 1590 350 1590 350 1579 341 c 1,97,98
 1538 351 1538 351 1525 360 c 0,99,100
 1471 395 1471 395 1466 444 c 0,101,102
 1457 526 1457 526 1576 565 c 1,103,104
 1649 593 1649 593 1722 621 c 1,0,1
EndSplineSet
Validated: 41
EndChar

StartChar: l.vll
Encoding: 2401 2401 144
Width: 1674
GlyphClass: 2
Flags: W
LayerCount: 2
Fore
SplineSet
1397 379 m 1,0,1
 1403 383 1403 383 1457 429 c 0,2,3
 1492 458 1492 458 1495 461 c 0,4,5
 1515 485 1515 485 1518 493 c 1,6,7
 1518 493 1518 493 1533 513 c 1,8,9
 1533 513 1533 513 1545 532 c 1,10,11
 1545 532 1545 532 1572 590 c 0,12,13
 1573 591 1573 591 1590 645 c 1,14,15
 1604 693 1604 693 1602 761 c 1,16,17
 1599 820 1599 820 1578 875 c 128,-1,18
 1557 930 1557 930 1518 978 c 0,19,20
 1450 1060 1450 1060 1418 1060 c 0,21,22
 1417 1060 1417 1060 1416 1067 c 0,23,24
 1412 1101 1412 1101 1413 1364 c 1,25,-1
 1675 1364 l 1,26,-1
 1675 1498 l 1,27,-1
 -1 1498 l 1,28,-1
 -1 1364 l 1,29,-1
 1247 1364 l 1,30,-1
 1247 1090 l 1,31,-1
 1247 1101 l 1,32,33
 1096 1168 1096 1168 975 1072 c 0,34,35
 973 1070 973 1070 935 1042 c 0,36,37
 921 1031 921 1031 906 1009 c 0,38,39
 893 991 893 991 883 969.5 c 128,-1,40
 873 948 873 948 863 920 c 1,41,42
 805 1031 805 1031 725.5 1075.5 c 128,-1,43
 646 1120 646 1120 545 1120 c 1,44,45
 355 1118 355 1118 244.5 992 c 128,-1,46
 134 866 134 866 134 648 c 0,47,48
 134 428 134 428 261 303 c 1,49,50
 389 180 389 180 593 180 c 1,51,-1
 728 188 l 1,52,-1
 805 203 l 1,53,-1
 805 361 l 1,54,-1
 741 328 l 1,55,-1
 675 318 l 1,56,-1
 603 315 l 2,57,58
 460 309 460 309 380 406 c 0,59,60
 301 502 301 502 302 663.5 c 128,-1,61
 303 825 303 825 368 895 c 128,-1,62
 433 965 433 965 565 965 c 0,63,64
 701 965 701 965 768 831 c 0,65,66
 794 779 794 779 803 734 c 0,67,68
 812 687 812 687 812 683 c 2,69,-1
 810 650 l 1,70,-1
 944 650 l 1,71,-1
 946 683 l 1,72,-1
 964 808 l 1,73,74
 1020 968 1020 968 1197 982 c 1,75,76
 1308 963 1308 963 1364 928 c 128,-1,77
 1420 893 1420 893 1438 849 c 128,-1,78
 1456 805 1456 805 1447 743 c 128,-1,79
 1438 681 1438 681 1424 642 c 0,80,81
 1418 626 1418 626 1362 564 c 0,82,83
 1317 515 1317 515 1317 515 c 2,84,85
 1317 514 1317 514 1294 492 c 0,86,87
 1277 476 1277 476 1262 463 c 1,88,89
 1232 444 1232 444 1137 388 c 1,90,91
 978 303 978 303 1004 174 c 1,92,93
 1021 80 1021 80 1109 33 c 0,94,95
 1133 20 1133 20 1187 10 c 1,96,97
 1161 -21 1161 -21 1153 -42 c 1,98,99
 1122 -109 1122 -109 1133 -165 c 0,100,101
 1156 -286 1156 -286 1284 -335 c 1,102,103
 1390 -379 1390 -379 1517 -355 c 0,104,105
 1601 -339 1601 -339 1695 -281 c 0,106,107
 1725 -263 1725 -263 1762 -231 c 1,108,-1
 1670 -128 l 1,109,110
 1633 -164 1633 -164 1610 -176 c 1,111,112
 1544 -233 1544 -233 1492 -242 c 1,113,114
 1317 -276 1317 -276 1290 -137 c 0,115,116
 1276 -64 1276 -64 1332 -21 c 1,117,118
 1382 22 1382 22 1459 36 c 1,119,120
 1476 38 1476 38 1555 40 c 1,121,122
 1566 43 1566 43 1600 43 c 1,123,-1
 1528 149 l 1,124,125
 1499 153 1499 153 1469 149 c 0,126,127
 1441 146 1441 146 1406 139 c 0,128,129
 1362 130 1362 130 1297 101 c 1,130,131
 1287 99 1287 99 1276 89 c 1,132,133
 1234 96 1234 96 1221 104 c 0,134,135
 1165 135 1165 135 1156 183 c 0,136,137
 1140 265 1140 265 1256 312 c 1,138,139
 1327 346 1327 346 1397 379 c 1,0,1
EndSplineSet
Validated: 37
EndChar

StartChar: vs.vl
Encoding: 2402 2402 145
Width: 1674
GlyphClass: 4
Flags: W
LayerCount: 2
Fore
SplineSet
-313 88 m 0,0,1
 -425 104 -425 104 -476 53 c 0,2,3
 -477 52 -477 52 -500 35 c 0,4,5
 -509 28 -509 28 -518 15 c 0,6,7
 -525 5 -525 5 -531 -8 c 128,-1,8
 -537 -21 -537 -21 -543 -38 c 1,9,10
 -578 29 -578 29 -625.5 55.5 c 128,-1,11
 -673 82 -673 82 -734 82 c 0,12,13
 -848 81 -848 81 -914 5.5 c 128,-1,14
 -980 -70 -980 -70 -980 -201 c 0,15,16
 -980 -333 -980 -333 -904 -408 c 1,17,18
 -827 -482 -827 -482 -705 -482 c 1,19,-1
 -624 -477 l 1,20,-1
 -578 -468 l 1,21,-1
 -578 -373 l 1,22,-1
 -616 -393 l 1,23,-1
 -656 -399 l 1,24,-1
 -699 -401 l 2,25,26
 -785 -405 -785 -405 -833 -346 c 0,27,28
 -880 -289 -880 -289 -879.5 -192 c 128,-1,29
 -879 -95 -879 -95 -840 -53 c 128,-1,30
 -801 -11 -801 -11 -722 -11 c 0,31,32
 -641 -11 -641 -11 -600 -91 c 0,33,34
 -584 -123 -584 -123 -579 -150 c 0,35,36
 -574 -178 -574 -178 -574 -180 c 2,37,-1
 -575 -200 l 1,38,-1
 -494 -200 l 1,39,-1
 -493 -180 l 1,40,-1
 -482 -105 l 1,41,42
 -449 -9 -449 -9 -343 -1 c 1,43,44
 -276 -12 -276 -12 -242.5 -33 c 128,-1,45
 -209 -54 -209 -54 -198 -80.5 c 128,-1,46
 -187 -107 -187 -107 -192.5 -144 c 128,-1,47
 -198 -181 -198 -181 -217 -212.5 c 128,-1,48
 -236 -244 -236 -244 -265.5 -268 c 128,-1,49
 -295 -292 -295 -292 -319.5 -318.5 c 128,-1,50
 -344 -345 -344 -345 -363 -365 c 128,-1,51
 -382 -385 -382 -385 -386 -396 c 1,52,53
 -424 -441 -424 -441 -418 -520 c 0,54,55
 -413 -599 -413 -599 -353 -628 c 0,56,57
 -308 -650 -308 -650 -264 -652 c 128,-1,58
 -220 -654 -220 -654 -181 -644 c 128,-1,59
 -142 -634 -142 -634 -108.5 -616 c 128,-1,60
 -75 -598 -75 -598 -51.5 -580 c 128,-1,61
 -28 -562 -28 -562 -17 -547 c 128,-1,62
 -6 -532 -6 -532 -10 -528 c 0,63,64
 -33 -507 -33 -507 -34 -506 c 0,65,66
 -44 -493 -44 -493 -57 -483 c 0,67,68
 -62 -479 -62 -479 -79 -462 c 0,69,70
 -89 -452 -89 -452 -96.5 -447 c 128,-1,71
 -104 -442 -104 -442 -107.5 -443 c 128,-1,72
 -111 -444 -111 -444 -109 -454 c 0,73,74
 -107 -465 -107 -465 -112.5 -480 c 128,-1,75
 -118 -495 -118 -495 -128.5 -510.5 c 128,-1,76
 -139 -526 -139 -526 -153.5 -540 c 128,-1,77
 -168 -554 -168 -554 -185.5 -564 c 128,-1,78
 -203 -574 -203 -574 -221.5 -578.5 c 128,-1,79
 -240 -583 -240 -583 -258.5 -578.5 c 128,-1,80
 -277 -574 -277 -574 -294 -560 c 1,81,82
 -314 -541 -314 -541 -324 -517 c 0,83,84
 -326 -512 -326 -512 -326 -500 c 128,-1,85
 -326 -488 -326 -488 -320.5 -472 c 128,-1,86
 -315 -456 -315 -456 -303.5 -438 c 128,-1,87
 -292 -420 -292 -420 -272 -403 c 0,88,89
 -259 -392 -259 -392 -247.5 -382.5 c 128,-1,90
 -236 -373 -236 -373 -225.5 -364 c 128,-1,91
 -215 -355 -215 -355 -204 -345.5 c 128,-1,92
 -193 -336 -193 -336 -180 -324 c 0,93,94
 -152 -300 -152 -300 -134 -268.5 c 128,-1,95
 -116 -237 -116 -237 -107 -203 c 128,-1,96
 -98 -169 -98 -169 -99.5 -133.5 c 128,-1,97
 -101 -98 -101 -98 -114 -65 c 1,98,99
 -146 -8 -146 -8 -150 -3 c 0,100,101
 -179 37 -179 37 -211 60 c 1,102,103
 -229 75 -229 75 -313 88 c 0,0,1
EndSplineSet
Validated: 41
EndChar

StartChar: vs.vll
Encoding: 2403 2403 146
Width: 1674
GlyphClass: 4
Flags: W
LayerCount: 2
Fore
SplineSet
-368 81 m 0,0,1
 -487 106 -487 106 -548 56 c 0,2,3
 -549 55 -549 55 -572 38 c 0,4,5
 -581 31 -581 31 -590 18 c 0,6,7
 -597 8 -597 8 -603 -5 c 128,-1,8
 -609 -18 -609 -18 -615 -35 c 1,9,10
 -650 32 -650 32 -697.5 58.5 c 128,-1,11
 -745 85 -745 85 -806 85 c 0,12,13
 -920 84 -920 84 -986 8.5 c 128,-1,14
 -1052 -67 -1052 -67 -1052 -198 c 0,15,16
 -1052 -330 -1052 -330 -976 -405 c 1,17,18
 -899 -479 -899 -479 -777 -479 c 1,19,-1
 -696 -474 l 1,20,-1
 -650 -465 l 1,21,-1
 -650 -370 l 1,22,-1
 -688 -390 l 1,23,-1
 -728 -396 l 1,24,-1
 -771 -398 l 2,25,26
 -857 -402 -857 -402 -905 -343 c 0,27,28
 -952 -286 -952 -286 -951.5 -189 c 128,-1,29
 -951 -92 -951 -92 -912 -50 c 128,-1,30
 -873 -8 -873 -8 -794 -8 c 0,31,32
 -712 -8 -712 -8 -672 -88 c 0,33,34
 -656 -120 -656 -120 -651 -147 c 0,35,36
 -646 -175 -646 -175 -646 -177 c 2,37,-1
 -647 -197 l 1,38,-1
 -566 -197 l 1,39,-1
 -565 -177 l 1,40,-1
 -554 -102 l 1,41,42
 -521 -6 -521 -6 -415 2 c 1,43,44
 -348 -9 -348 -9 -314.5 -30 c 128,-1,45
 -281 -51 -281 -51 -270 -77.5 c 128,-1,46
 -259 -104 -259 -104 -264.5 -141 c 128,-1,47
 -270 -178 -270 -178 -278 -202 c 0,48,49
 -282 -212 -282 -212 -316 -249 c 0,50,51
 -343 -278 -343 -278 -342.5 -278 c 128,-1,52
 -342 -278 -342 -278 -356 -292 c 0,53,54
 -366 -302 -366 -302 -375 -309 c 1,55,56
 -394 -321 -394 -321 -451 -354 c 1,57,58
 -546 -406 -546 -406 -531 -482 c 0,59,60
 -520 -539 -520 -539 -467 -567 c 0,61,62
 -453 -575 -453 -575 -421 -581 c 1,63,64
 -436 -599 -436 -599 -441 -613 c 1,65,66
 -460 -653 -460 -653 -453 -686 c 0,67,68
 -439 -759 -439 -759 -362 -788 c 1,69,70
 -299 -814 -299 -814 -223 -800 c 0,71,72
 -173 -790 -173 -790 -116 -756 c 0,73,74
 -98 -745 -98 -745 -76 -725 c 1,75,-1
 -131 -664 l 1,76,77
 -153 -685 -153 -685 -167 -693 c 1,78,79
 -207 -727 -207 -727 -238 -733 c 0,80,81
 -343 -753 -343 -753 -359 -669 c 0,82,83
 -367 -625 -367 -625 -334 -600 c 1,84,85
 -304 -574 -304 -574 -258 -565 c 1,86,87
 -247 -565 -247 -565 -200 -563 c 1,88,89
 -193 -561 -193 -561 -173 -561 c 1,90,-1
 -216 -498 l 1,91,92
 -233 -495 -233 -495 -252 -498 c 0,93,94
 -268 -500 -268 -500 -289 -503 c 1,95,96
 -315 -509 -315 -509 -355 -526 c 0,97,98
 -361 -528 -361 -528 -367 -534 c 1,99,100
 -392 -529 -392 -529 -400 -525 c 0,101,102
 -434 -506 -434 -506 -439 -477 c 0,103,104
 -449 -428 -449 -428 -379 -400 c 1,105,106
 -337 -380 -337 -380 -295 -359 c 0,107,108
 -291 -357 -291 -357 -258 -330 c 0,109,110
 -237 -312 -237 -312 -236 -311 c 0,111,112
 -224 -296 -224 -296 -222 -292 c 2,113,-1
 -213 -279 l 1,114,-1
 -206 -268 l 1,115,-1
 -190 -233 l 2,116,117
 -189 -232 -189 -232 -179 -200 c 0,118,119
 -170 -171 -170 -171 -172 -130 c 0,120,121
 -173 -95 -173 -95 -186 -62 c 0,122,123
 -204 -16 -204 -16 -222 0 c 0,124,125
 -273 42 -273 42 -313 60 c 0,126,127
 -355 78 -355 78 -368 81 c 0,0,1
EndSplineSet
Validated: 41
EndChar

StartChar: vs.danda
Encoding: 2404 2404 147
Width: 780
GlyphClass: 2
Flags: W
LayerCount: 2
Fore
SplineSet
509 139 m 1,0,-1
 509 1459 l 1,1,-1
 676 1459 l 1,2,-1
 676 139 l 1,3,-1
 509 139 l 1,0,-1
EndSplineSet
Validated: 1
EndChar

StartChar: vs.double.danda
Encoding: 2405 2405 148
Width: 1042
GlyphClass: 2
Flags: W
LayerCount: 2
Fore
SplineSet
869 139 m 1,0,-1
 869 1459 l 1,1,-1
 1036 1459 l 1,2,-1
 1036 139 l 1,3,-1
 869 139 l 1,0,-1
384 139 m 1,4,-1
 384 1459 l 1,5,-1
 551 1459 l 1,6,-1
 551 139 l 1,7,-1
 384 139 l 1,4,-1
EndSplineSet
Validated: 1
EndChar

StartChar: l.zero
Encoding: 2406 2406 149
Width: 1102
GlyphClass: 2
Flags: W
LayerCount: 2
Fore
SplineSet
847 361 m 0,0,1
 730 262 730 262 547 262 c 0,2,3
 468 262 468 262 390 289 c 128,-1,4
 312 316 312 316 249.5 373 c 128,-1,5
 187 430 187 430 148.5 523 c 128,-1,6
 110 616 110 616 110 753 c 0,7,8
 110 844 110 844 138 928.5 c 128,-1,9
 166 1013 166 1013 222 1078.5 c 128,-1,10
 278 1144 278 1144 359 1182.5 c 128,-1,11
 440 1221 440 1221 547 1221 c 0,12,13
 636 1221 636 1221 716.5 1193 c 128,-1,14
 797 1165 797 1165 858 1106.5 c 128,-1,15
 919 1048 919 1048 955.5 960 c 128,-1,16
 992 872 992 872 992 753 c 0,17,18
 992 483 992 483 847 361 c 0,0,1
815 888 m 1,19,20
 782 976 782 976 713.5 1036 c 128,-1,21
 645 1096 645 1096 547 1096 c 0,22,23
 430 1096 430 1096 342 1000 c 1,24,-1
 304 944 l 1,25,-1
 268 832 l 1,26,-1
 262 690 l 1,27,28
 281 629 281 629 299.5 575.5 c 128,-1,29
 318 522 318 522 347.5 482.5 c 128,-1,30
 377 443 377 443 423 419 c 128,-1,31
 469 395 469 395 547 395 c 0,32,33
 667 395 667 395 759 491 c 1,34,-1
 794 550 l 1,35,-1
 832 682 l 1,36,-1
 837 766 l 1,37,38
 840 795 840 795 831.5 826.5 c 128,-1,39
 823 858 823 858 815 888 c 1,19,20
EndSplineSet
Validated: 1
EndChar

StartChar: l.one
Encoding: 2407 2407 150
Width: 1037
GlyphClass: 2
Flags: W
LayerCount: 2
Fore
SplineSet
803 568 m 1,0,-1
 757 408 l 1,1,-1
 684 238 l 1,2,-1
 642 161 l 1,3,-1
 620 126 l 1,4,-1
 463 126 l 1,5,-1
 516 230 l 1,6,-1
 549 316 l 1,7,-1
 666 680 l 1,8,-1
 692 773 l 1,9,-1
 681 781 l 1,10,-1
 628 750 l 1,11,-1
 612 745 l 2,12,13
 602 742 602 742 602 738 c 1,14,-1
 546 725 l 1,15,-1
 447 715 l 1,16,17
 287 715 287 715 191.5 804 c 128,-1,18
 96 893 96 893 96 1037 c 0,19,20
 96 1106 96 1106 125.5 1167 c 128,-1,21
 155 1228 155 1228 205.5 1275 c 128,-1,22
 256 1322 256 1322 322.5 1348.5 c 128,-1,23
 389 1375 389 1375 463 1375 c 0,24,25
 540 1375 540 1375 613 1356 c 128,-1,26
 686 1337 686 1337 742 1288 c 128,-1,27
 798 1239 798 1239 832 1152.5 c 128,-1,28
 866 1066 866 1066 866 928 c 1,29,30
 864 776 864 776 803 568 c 1,0,-1
618 1180 m 1,31,32
 607 1191 607 1191 554 1207 c 1,33,-1
 474 1218 l 1,34,35
 434 1218 434 1218 395 1210 c 128,-1,36
 356 1202 356 1202 327 1180.5 c 128,-1,37
 298 1159 298 1159 279.5 1124.5 c 128,-1,38
 261 1090 261 1090 261 1035 c 1,39,-1
 272 959 l 1,40,-1
 292 933 l 1,41,-1
 322 912 l 1,42,43
 335 905 335 905 352.5 896.5 c 128,-1,44
 370 888 370 888 391 877 c 1,45,-1
 516 867 l 1,46,47
 532 869 532 869 562 878.5 c 128,-1,48
 592 888 592 888 621 908 c 128,-1,49
 650 928 650 928 671 958.5 c 128,-1,50
 692 989 692 989 692 1035 c 0,51,52
 692 1129 692 1129 618 1180 c 1,31,32
EndSplineSet
Validated: 1
EndChar

StartChar: l.two
Encoding: 2408 2408 151
Width: 1098
GlyphClass: 2
Flags: W
LayerCount: 2
Fore
SplineSet
939 167 m 1,0,-1
 861 146 l 1,1,-1
 739 146 l 1,2,-1
 708 143 l 1,3,-1
 675 149 l 1,4,-1
 643 156 l 2,5,6
 630 159 630 159 614.5 165.5 c 128,-1,7
 599 172 599 172 579 184 c 1,8,-1
 521 215 l 1,9,-1
 462 273 l 1,10,-1
 409 370 l 1,11,-1
 369 479 l 1,12,-1
 345 583 l 1,13,-1
 191 583 l 1,14,-1
 154 708 l 1,15,-1
 249 875 l 1,16,-1
 419 875 l 1,17,-1
 462 750 l 1,18,19
 564 750 564 750 636 819 c 128,-1,20
 708 888 708 888 708 992 c 0,21,22
 708 1117 708 1117 645 1190.5 c 128,-1,23
 582 1264 582 1264 460 1264 c 2,24,-1
 436 1264 l 1,25,-1
 393 1261 l 2,26,27
 367 1259 367 1259 352 1259 c 128,-1,28
 337 1259 337 1259 317 1246 c 1,29,-1
 165 1205 l 1,30,-1
 122 1335 l 1,31,-1
 271 1378 l 1,32,-1
 436 1406 l 1,33,34
 525 1406 525 1406 604 1374.5 c 128,-1,35
 683 1343 683 1343 744 1290.5 c 128,-1,36
 805 1238 805 1238 841.5 1167 c 128,-1,37
 878 1096 878 1096 878 1013 c 0,38,39
 878 909 878 909 819.5 804.5 c 128,-1,40
 761 700 761 700 649 633 c 1,41,-1
 579 606 l 1,42,-1
 505 598 l 1,43,44
 518 466 518 466 582 377.5 c 128,-1,45
 646 289 646 289 761 289 c 1,46,-1
 867 306 l 1,47,-1
 939 324 l 1,48,-1
 939 167 l 1,0,-1
EndSplineSet
Validated: 1
EndChar

StartChar: l.three
Encoding: 2409 2409 152
Width: 1058
GlyphClass: 2
Flags: W
LayerCount: 2
Fore
SplineSet
811 436 m 1,0,1
 723 373 723 373 612 353 c 1,2,-1
 526 348 l 1,3,-1
 564 269 l 1,4,-1
 636 186 l 1,5,-1
 673 162 l 1,6,-1
 697 157 l 1,7,-1
 780 157 l 1,8,-1
 857 188 l 1,9,-1
 857 20 l 1,10,-1
 824 15 l 1,11,-1
 801 8 l 1,12,-1
 727 -8 l 1,13,14
 668 -8 668 -8 606.5 20 c 128,-1,15
 545 48 545 48 491 101 c 1,16,-1
 444 157 l 1,17,-1
 389 244 l 1,18,-1
 340 361 l 1,19,-1
 207 378 l 1,20,-1
 140 508 l 1,21,-1
 226 642 l 1,22,-1
 399 642 l 1,23,-1
 473 492 l 1,24,-1
 585 492 l 1,25,-1
 663 516 l 1,26,27
 762 564 762 564 760 681 c 1,28,29
 760 782 760 782 656 823 c 1,30,-1
 547 851 l 1,31,-1
 428 851 l 1,32,-1
 343 851 l 1,33,-1
 318 849 l 1,34,-1
 292 830 l 1,35,-1
 292 1038 l 1,36,-1
 335 1016 l 1,37,-1
 442 1014 l 2,38,39
 468 1014 468 1014 484 1019 c 1,40,-1
 567 1051 l 2,41,42
 655 1084 655 1084 654 1184 c 0,43,44
 654 1219 654 1219 643 1237 c 1,45,-1
 625 1259 l 1,46,47
 612 1289 612 1289 537 1313 c 1,48,-1
 460 1323 l 1,49,-1
 394 1323 l 1,50,51
 330 1308 330 1308 292.5 1298 c 128,-1,52
 255 1288 255 1288 229 1272 c 2,53,-1
 175 1237 l 1,54,-1
 112 1392 l 1,55,-1
 354 1456 l 1,56,-1
 447 1466 l 1,57,58
 511 1466 511 1466 578.5 1448 c 128,-1,59
 646 1430 646 1430 699.5 1392 c 128,-1,60
 753 1354 753 1354 787.5 1301 c 128,-1,61
 822 1248 822 1248 822 1179 c 0,62,63
 822 1070 822 1070 747 1003 c 1,64,-1
 712 980 l 1,65,-1
 663 953 l 1,66,67
 686 953 686 953 699 942 c 1,68,-1
 771 912 l 1,69,-1
 803 894 l 1,70,71
 920 808 920 808 920 663 c 0,72,73
 920 522 920 522 811 436 c 1,0,1
EndSplineSet
Validated: 33
EndChar

StartChar: l.four
Encoding: 2410 2410 153
Width: 1222
GlyphClass: 2
Flags: W
LayerCount: 2
Fore
SplineSet
974 804 m 1,0,1
 936 766 936 766 905 748 c 1,2,-1
 820 703 l 1,3,-1
 889 652 l 1,4,-1
 918 625 l 1,5,6
 994 556 994 556 996 431 c 1,7,8
 996 316 996 316 921 236.5 c 128,-1,9
 846 157 846 157 708 136 c 1,10,-1
 623 129 l 1,11,12
 455 129 455 129 342 204 c 128,-1,13
 229 279 229 279 229 431 c 0,14,15
 229 548 229 548 315 619 c 1,16,-1
 335 641 l 1,17,-1
 354 660 l 1,18,-1
 417 700 l 1,19,20
 265 756 265 756 188.5 859.5 c 128,-1,21
 112 963 112 963 112 1072 c 0,22,23
 112 1197 112 1197 196 1290 c 1,24,-1
 239 1330 l 1,25,-1
 292 1379 l 1,26,-1
 404 1272 l 1,27,-1
 346 1221 l 1,28,-1
 308 1173 l 1,29,-1
 287 1120 l 1,30,-1
 282 1059 l 1,31,32
 280 992 280 992 332 936.5 c 128,-1,33
 384 881 384 881 447 846 c 1,34,-1
 508 814 l 1,35,-1
 618 774 l 1,36,-1
 777 846 l 1,37,38
 940 952 940 952 940 1064 c 0,39,40
 940 1090 940 1090 935 1107 c 1,41,-1
 913 1163 l 1,42,-1
 892 1198 l 1,43,-1
 815 1267 l 1,44,-1
 920 1384 l 1,45,-1
 1017 1310 l 1,46,47
 1110 1193 1110 1193 1110 1076 c 0,48,49
 1109 931 1109 931 974 804 c 1,0,1
803 518 m 1,50,51
 780 558 780 558 719 591 c 1,52,-1
 673 606 l 1,53,-1
 610 627 l 1,54,-1
 538 604 l 1,55,-1
 521 599 l 1,56,-1
 506 591 l 1,57,58
 404 550 404 550 404 439 c 0,59,60
 404 322 404 322 532 274 c 1,61,-1
 658 263 l 1,62,-1
 716 279 l 2,63,64
 762 292 762 292 794 329.5 c 128,-1,65
 826 367 826 367 833 436 c 1,66,67
 833 480 833 480 803 518 c 1,50,51
EndSplineSet
Validated: 33
EndChar

StartChar: l.five
Encoding: 2411 2411 154
Width: 1236
GlyphClass: 2
Flags: W
LayerCount: 2
Fore
SplineSet
1121 1001 m 1,0,-1
 1108 932 l 1,1,-1
 1086 884 l 1,2,-1
 1063 834 l 1,3,-1
 999 765 l 1,4,5
 981 744 981 744 955.5 730.5 c 128,-1,6
 930 717 930 717 905 701 c 1,7,-1
 956 633 l 1,8,-1
 996 559 l 2,9,10
 1034 490 1034 490 1053.5 433 c 128,-1,11
 1073 376 1073 376 1073 330 c 1,12,-1
 1055 224 l 1,13,14
 1047 186 1047 186 1030 176 c 1,15,-1
 999 133 l 1,16,17
 973 95 973 95 926 59 c 1,18,-1
 836 6 l 1,19,-1
 732 107 l 1,20,-1
 796 150 l 1,21,-1
 821 163 l 1,22,-1
 831 168 l 1,23,24
 913 232 913 232 913 323 c 0,25,26
 913 366 913 366 905.5 400 c 128,-1,27
 898 434 898 434 873 483 c 1,28,-1
 817 578 l 1,29,-1
 773 633 l 1,30,-1
 725 613 l 1,31,-1
 661 592 l 1,32,-1
 532 578 l 1,33,-1
 442 578 l 1,34,-1
 362 605 l 1,35,-1
 296 639 l 1,36,-1
 234 692 l 2,37,38
 173 745 173 745 142.5 823.5 c 128,-1,39
 112 902 112 902 112 1014 c 0,40,41
 112 1070 112 1070 131.5 1167.5 c 128,-1,42
 151 1265 151 1265 205 1358 c 1,43,-1
 255 1448 l 1,44,-1
 426 1448 l 1,45,-1
 372 1387 l 1,46,-1
 277 1148 l 1,47,-1
 264 1027 l 1,48,49
 264 867 264 867 346 792 c 128,-1,50
 428 717 428 717 565 717 c 1,51,-1
 623 727 l 1,52,-1
 661 740 l 1,53,-1
 682 752 l 1,54,-1
 608 834 l 1,55,-1
 583 879 l 1,56,-1
 560 953 l 1,57,-1
 554 1025 l 1,58,59
 554 1083 554 1083 577 1134 c 128,-1,60
 600 1185 600 1185 638 1221 c 128,-1,61
 676 1257 676 1257 728 1276.5 c 128,-1,62
 780 1296 780 1296 839 1296 c 0,63,64
 890 1296 890 1296 940.5 1278 c 128,-1,65
 991 1260 991 1260 1032 1225 c 128,-1,66
 1073 1190 1073 1190 1098.5 1140 c 128,-1,67
 1124 1090 1124 1090 1124 1025 c 1,68,-1
 1121 1001 l 1,0,-1
951 1065 m 1,69,70
 933 1081 933 1081 928.5 1106 c 128,-1,71
 924 1131 924 1131 892 1146 c 1,72,-1
 842 1156 l 1,73,74
 788 1156 788 1156 745 1116 c 1,75,-1
 722 1068 l 1,76,-1
 714 1014 l 1,77,-1
 714 956 l 1,78,-1
 740 902 l 1,79,-1
 809 813 l 1,80,81
 835 815 835 815 855 834 c 2,82,-1
 895 874 l 2,83,84
 927 906 927 906 941.5 942 c 128,-1,85
 956 978 956 978 959 1014 c 1,86,87
 959 1044 959 1044 951 1065 c 1,69,70
EndSplineSet
Validated: 1
EndChar

StartChar: l.six
Encoding: 2412 2412 155
Width: 1083
GlyphClass: 2
Flags: W
LayerCount: 2
Fore
SplineSet
963 64 m 0,0,1
 956 44 956 44 940 22 c 2,2,-1
 913 -15 l 1,3,-1
 711 -15 l 1,4,-1
 732 3 l 1,5,-1
 753 29 l 1,6,-1
 783 67 l 1,7,-1
 796 123 l 1,8,9
 796 136 796 136 780 174 c 1,10,-1
 740 240 l 1,11,-1
 709 275 l 1,12,-1
 681 298 l 1,13,-1
 668 315 l 1,14,-1
 503 298 l 1,15,16
 330 298 330 298 221 384.5 c 128,-1,17
 112 471 112 471 112 613 c 0,18,19
 112 674 112 674 137.5 732.5 c 128,-1,20
 163 791 163 791 204 826 c 1,21,-1
 252 858 l 1,22,-1
 333 893 l 1,23,-1
 264 911 l 1,24,-1
 211 941 l 2,25,26
 178 959 178 959 150 1015 c 128,-1,27
 122 1071 122 1071 122 1137 c 0,28,29
 122 1196 122 1196 147.5 1249 c 128,-1,30
 173 1302 173 1302 222.5 1342.5 c 128,-1,31
 272 1383 272 1383 344.5 1407 c 128,-1,32
 417 1431 417 1431 516 1431 c 1,33,-1
 575 1428 l 1,34,-1
 593 1428 l 2,35,36
 623 1428 623 1428 638 1423 c 1,37,-1
 709 1409 l 1,38,-1
 735 1404 l 1,39,-1
 764 1396 l 1,40,-1
 783 1393 l 1,41,-1
 783 1249 l 1,42,-1
 722 1266 l 1,43,-1
 551 1289 l 1,44,-1
 484 1289 l 1,45,-1
 359 1249 l 1,46,47
 285 1208 285 1208 285 1127 c 0,48,49
 285 1050 285 1050 369 1002 c 1,50,-1
 452 972 l 1,51,-1
 582 962 l 2,52,53
 593 962 593 962 605 967 c 1,54,-1
 636 972 l 1,55,-1
 668 981 l 1,56,-1
 681 986 l 1,57,-1
 697 999 l 1,58,-1
 697 842 l 1,59,-1
 663 832 l 1,60,-1
 593 832 l 2,61,62
 540 832 540 832 484 817 c 128,-1,63
 428 802 428 802 383 774 c 128,-1,64
 338 746 338 746 310 706 c 128,-1,65
 282 666 282 666 282 616 c 0,66,67
 282 562 282 562 318 518 c 128,-1,68
 354 474 354 474 434 458 c 1,69,-1
 519 453 l 1,70,-1
 588 464 l 1,71,-1
 551 562 l 1,72,-1
 716 651 l 1,73,-1
 857 588 l 1,74,-1
 902 438 l 1,75,-1
 806 376 l 1,76,-1
 897 270 l 1,77,-1
 943 200 l 1,78,-1
 963 156 l 1,79,-1
 971 118 l 1,80,81
 971 88 971 88 963 64 c 0,0,1
EndSplineSet
Validated: 1
EndChar

StartChar: l.seven
Encoding: 2413 2413 156
Width: 1236
GlyphClass: 2
Flags: W
LayerCount: 2
Fore
SplineSet
1009 349 m 0,0,1
 882 144 882 144 626 144 c 0,2,3
 509 144 509 144 412.5 192 c 128,-1,4
 316 240 316 240 250 330 c 128,-1,5
 184 420 184 420 148 551 c 128,-1,6
 112 682 112 682 112 843 c 0,7,8
 112 912 112 912 118.5 983 c 128,-1,9
 125 1054 125 1054 144 1126 c 1,10,-1
 176 1262 l 1,11,-1
 199 1347 l 1,12,-1
 227 1421 l 1,13,-1
 370 1421 l 1,14,-1
 314 1224 l 1,15,-1
 275 1015 l 1,16,17
 270 982 270 982 265 940.5 c 128,-1,18
 260 899 260 899 260 847 c 2,19,-1
 260 729 l 1,20,21
 284 510 284 510 377.5 394.5 c 128,-1,22
 471 279 471 279 641 279 c 0,23,24
 697 279 697 279 741.5 297.5 c 128,-1,25
 786 316 786 316 817.5 344 c 128,-1,26
 849 372 849 372 870.5 404 c 128,-1,27
 892 436 892 436 903 461 c 2,28,-1
 951 578 l 1,29,-1
 870 545 l 1,30,-1
 780 540 l 1,31,32
 751 540 751 540 735 545 c 2,33,-1
 679 561 l 2,34,35
 644 571 644 571 612 602.5 c 128,-1,36
 580 634 580 634 556 676 c 128,-1,37
 532 718 532 718 518 769 c 128,-1,38
 504 820 504 820 504 868 c 0,39,40
 504 929 504 929 524.5 990 c 128,-1,41
 545 1051 545 1051 585.5 1099 c 128,-1,42
 626 1147 626 1147 683 1177.5 c 128,-1,43
 740 1208 740 1208 812 1208 c 0,44,45
 929 1208 929 1208 1011.5 1129.5 c 128,-1,46
 1094 1051 1094 1051 1118 891 c 1,47,-1
 1124 814 l 1,48,49
 1124 535 1124 535 1009 349 c 0,0,1
946 937 m 1,50,51
 925 1072 925 1072 812 1073 c 0,52,53
 761 1073 761 1073 705 1005 c 1,54,-1
 676 934 l 1,55,-1
 669 855 l 1,56,57
 669 766 669 766 706 718 c 128,-1,58
 743 670 743 670 812 670 c 256,59,60
 881 670 881 670 918 723 c 1,61,-1
 940 771 l 1,62,-1
 953 855 l 1,63,64
 953 904 953 904 946 937 c 1,50,51
EndSplineSet
Validated: 1
EndChar

StartChar: l.eight
Encoding: 2414 2414 157
Width: 1224
GlyphClass: 2
Flags: W
LayerCount: 2
Fore
SplineSet
1080 297 m 1,0,-1
 973 242 l 1,1,-1
 910 214 l 1,2,-1
 762 180 l 1,3,-1
 617 166 l 1,4,5
 503 166 503 166 410 200 c 128,-1,6
 317 234 317 234 250 292.5 c 128,-1,7
 183 351 183 351 147.5 431 c 128,-1,8
 112 511 112 511 112 606 c 0,9,10
 112 771 112 771 396 1011 c 1,11,-1
 591 1174 l 1,12,-1
 942 1439 l 1,13,-1
 1038 1317 l 1,14,-1
 864 1189 l 1,15,-1
 684 1048 l 1,16,-1
 582 971 l 1,17,-1
 495 899 l 1,18,-1
 460 869 l 1,19,20
 394 814 394 814 336.5 734 c 128,-1,21
 279 654 279 654 279 585 c 0,22,23
 279 478 279 478 330 412 c 1,24,-1
 375 372 l 1,25,-1
 429 339 l 1,26,-1
 551 303 l 1,27,-1
 633 300 l 1,28,29
 719 295 719 295 782.5 323 c 128,-1,30
 846 351 846 351 894 372 c 1,31,-1
 985 414 l 1,32,-1
 1046 455 l 1,33,-1
 1112 331 l 1,34,-1
 1080 297 l 1,0,-1
EndSplineSet
Validated: 33
EndChar

StartChar: l.nine
Encoding: 2415 2415 158
Width: 1024
GlyphClass: 2
Flags: W
LayerCount: 2
Fore
SplineSet
902 77 m 1,0,1
 899 45 899 45 876 21 c 1,2,-1
 849 0 l 1,3,-1
 689 0 l 1,4,-1
 719 54 l 1,5,-1
 732 77 l 1,6,-1
 747 123 l 1,7,-1
 753 168 l 1,8,9
 753 254 753 254 593 405 c 1,10,-1
 427 559 l 1,11,12
 387 594 387 594 334.5 647.5 c 128,-1,13
 282 701 282 701 231.5 766 c 128,-1,14
 181 831 181 831 146.5 908.5 c 128,-1,15
 112 986 112 986 112 1073 c 0,16,17
 112 1235 112 1235 207.5 1335.5 c 128,-1,18
 303 1436 303 1436 495 1436 c 0,19,20
 583 1436 583 1436 656 1410.5 c 128,-1,21
 729 1385 729 1385 781 1338 c 128,-1,22
 833 1291 833 1291 861 1230 c 128,-1,23
 889 1169 889 1169 889 1098 c 0,24,25
 889 1021 889 1021 863.5 956.5 c 128,-1,26
 838 892 838 892 792.5 846.5 c 128,-1,27
 747 801 747 801 687.5 775.5 c 128,-1,28
 628 750 628 750 561 750 c 1,29,-1
 427 760 l 1,30,-1
 612 597 l 1,31,-1
 694 516 l 1,32,33
 727 487 727 487 765 442 c 128,-1,34
 803 397 803 397 835 346.5 c 128,-1,35
 867 296 867 296 889.5 244 c 128,-1,36
 912 192 912 192 912 150 c 0,37,38
 912 98 912 98 902 77 c 1,0,1
711 1172 m 1,39,40
 693 1225 693 1225 632.5 1263.5 c 128,-1,41
 572 1302 572 1302 498 1302 c 1,42,-1
 439 1294 l 1,43,-1
 364 1263 l 1,44,-1
 325 1235 l 1,45,46
 295 1209 295 1209 277.5 1163.5 c 128,-1,47
 260 1118 260 1118 260 1073 c 0,48,49
 260 991 260 991 322 930 c 1,50,-1
 401 887 l 1,51,-1
 498 874 l 1,52,53
 541 874 541 874 582 887 c 128,-1,54
 623 900 623 900 654.5 928 c 128,-1,55
 686 956 686 956 706.5 996 c 128,-1,56
 727 1036 727 1036 727 1090 c 0,57,58
 727 1139 727 1139 711 1172 c 1,39,40
EndSplineSet
Validated: 1
EndChar

StartChar: vs.abbr.sign
Encoding: 2416 2416 159
Width: 841
GlyphClass: 2
Flags: W
LayerCount: 2
Fore
SplineSet
543 716 m 0,0,1
 490 692 490 692 424 692 c 0,2,3
 365 692 365 692 309 713.5 c 128,-1,4
 253 735 253 735 209 776 c 128,-1,5
 165 817 165 817 138.5 877 c 128,-1,6
 112 937 112 937 112 1012 c 0,7,8
 112 1071 112 1071 137 1125.5 c 128,-1,9
 162 1180 162 1180 205 1221 c 128,-1,10
 248 1262 248 1262 305.5 1287.5 c 128,-1,11
 363 1313 363 1313 424 1313 c 0,12,13
 480 1313 480 1313 535.5 1288.5 c 128,-1,14
 591 1264 591 1264 633.5 1223.5 c 128,-1,15
 676 1183 676 1183 702.5 1128 c 128,-1,16
 729 1073 729 1073 729 1012 c 0,17,18
 729 916 729 916 676 833.5 c 128,-1,19
 623 751 623 751 543 716 c 0,0,1
490 1172 m 0,20,21
 467 1183 467 1183 424 1185 c 1,22,23
 299 1185 299 1185 253 1076 c 1,24,-1
 243 1010 l 1,25,26
 243 936 243 936 284 883 c 128,-1,27
 325 830 325 830 424 820 c 1,28,29
 490 820 490 820 543.5 874.5 c 128,-1,30
 597 929 597 929 597 1010 c 0,31,32
 597 1124 597 1124 490 1172 c 0,20,21
EndSplineSet
Validated: 1
EndChar

StartChar: uni0971
Encoding: 2417 2417 160
Width: 157
GlyphClass: 2
Flags: W
LayerCount: 2
Fore
SplineSet
5 1327 m 1,0,-1
 139 1459 l 1,1,-1
 274 1322 l 1,2,-1
 144 1193 l 1,3,-1
 5 1327 l 1,0,-1
EndSplineSet
Validated: 1
EndChar

StartChar: l.chandra.a
Encoding: 2418 2418 161
Width: 1748
GlyphClass: 2
Flags: W
LayerCount: 2
Fore
SplineSet
1596 1645 m 1,0,1
 1476 1607 1476 1607 1403 1607 c 0,2,3
 1169 1607 1169 1607 1038 1701 c 128,-1,4
 907 1795 907 1795 907 1962 c 2,5,-1
 907 1999 l 1,6,-1
 908 2027 l 1,7,-1
 1072 2029 l 1,8,9
 1072 1909 1072 1909 1131 1847.5 c 128,-1,10
 1190 1786 1190 1786 1317 1760 c 1,11,-1
 1406 1752 l 1,12,13
 1582 1752 1582 1752 1659 1884 c 1,14,-1
 1688 2029 l 1,15,-1
 1859 2029 l 1,16,-1
 1865 1991 l 1,17,18
 1865 1739 1865 1739 1596 1645 c 1,0,1
1493 1364 m 1,19,-1
 1493 182 l 1,20,-1
 1322 182 l 1,21,-1
 1322 786 l 1,22,-1
 1078 786 l 1,23,-1
 1078 927 l 1,24,-1
 1322 927 l 1,25,-1
 1322 1364 l 1,26,-1
 1101 1364 l 1,27,-1
 1101 1498 l 1,28,-1
 1748 1498 l 1,29,-1
 1748 1364 l 1,30,-1
 1493 1364 l 1,19,-1
852 288 m 1,31,32
 814 276 814 276 769 263.5 c 128,-1,33
 724 251 724 251 667 246 c 1,34,-1
 559 240 l 1,35,36
 447 240 447 240 358 262.5 c 128,-1,37
 269 285 269 285 207 331.5 c 128,-1,38
 145 378 145 378 112 448.5 c 128,-1,39
 79 519 79 519 79 616 c 2,40,-1
 79 650 l 1,41,-1
 239 650 l 1,42,43
 239 590 239 590 252.5 546.5 c 128,-1,44
 266 503 266 503 295 473.5 c 128,-1,45
 324 444 324 444 369.5 427 c 128,-1,46
 415 410 415 410 479 403 c 1,47,-1
 654 398 l 2,48,49
 664 398 664 398 685.5 401.5 c 128,-1,50
 707 405 707 405 734 414 c 128,-1,51
 761 423 761 423 789.5 437.5 c 128,-1,52
 818 452 818 452 841.5 474.5 c 128,-1,53
 865 497 865 497 880 527.5 c 128,-1,54
 895 558 895 558 895 599 c 0,55,56
 895 663 895 663 868 712.5 c 128,-1,57
 841 762 841 762 792.5 796 c 128,-1,58
 744 830 744 830 675.5 848 c 128,-1,59
 607 866 607 866 524 866 c 1,60,-1
 450 860 l 1,61,62
 435 860 435 860 428 855 c 1,63,-1
 417 850 l 1,64,-1
 417 1023 l 1,65,-1
 438 1015 l 1,66,-1
 491 1015 l 1,67,-1
 601 1023 l 1,68,69
 651 1031 651 1031 693 1048.5 c 128,-1,70
 735 1066 735 1066 765 1091.5 c 128,-1,71
 795 1117 795 1117 812 1150.5 c 128,-1,72
 829 1184 829 1184 829 1226 c 0,73,74
 829 1335 829 1335 679 1383 c 1,75,-1
 590 1394 l 1,76,-1
 579 1394 l 2,77,78
 568 1394 568 1394 556 1394.5 c 128,-1,79
 544 1395 544 1395 530 1395 c 0,80,81
 506 1395 506 1395 480 1391.5 c 128,-1,82
 454 1388 454 1388 428.5 1375.5 c 128,-1,83
 403 1363 403 1363 380 1339 c 128,-1,84
 357 1315 357 1315 338 1274 c 1,85,-1
 321 1221 l 1,86,-1
 164 1223 l 1,87,88
 179 1311 179 1311 215.5 1369 c 128,-1,89
 252 1427 252 1427 306 1462 c 128,-1,90
 360 1497 360 1497 429.5 1511.5 c 128,-1,91
 499 1526 499 1526 580 1526 c 0,92,93
 659 1526 659 1526 734 1510 c 128,-1,94
 809 1494 809 1494 867 1458 c 128,-1,95
 925 1422 925 1422 960 1364 c 128,-1,96
 995 1306 995 1306 995 1221 c 0,97,98
 995 1182 995 1182 986 1145 c 128,-1,99
 977 1108 977 1108 959 1075.5 c 128,-1,100
 941 1043 941 1043 913 1016.5 c 128,-1,101
 885 990 885 990 846 972 c 1,102,-1
 766 944 l 1,103,104
 822 936 822 936 876.5 908.5 c 128,-1,105
 931 881 931 881 974 836 c 128,-1,106
 1017 791 1017 791 1043.5 730.5 c 128,-1,107
 1070 670 1070 670 1070 597 c 0,108,109
 1070 377 1070 377 852 288 c 1,31,32
EndSplineSet
Validated: 1
EndChar

StartChar: uni0973
Encoding: 2419 2419 162
Width: 1747
GlyphClass: 2
Flags: W
LayerCount: 2
Fore
SplineSet
1322 1480 m 1,0,-1
 1322 1899 l 1,1,-1
 1494 1899 l 1,2,-1
 1494 1480 l 1,3,-1
 1448 1480 l 1,4,-1
 1322 1480 l 1,0,-1
1493 1364 m 1,5,-1
 1493 182 l 1,6,-1
 1322 182 l 1,7,-1
 1322 786 l 1,8,-1
 1078 786 l 1,9,-1
 1078 927 l 1,10,-1
 1322 927 l 1,11,-1
 1322 1364 l 1,12,-1
 1101 1364 l 1,13,-1
 1101 1498 l 1,14,-1
 1748 1498 l 1,15,-1
 1748 1364 l 1,16,-1
 1493 1364 l 1,5,-1
852 288 m 1,17,18
 814 276 814 276 769 263.5 c 128,-1,19
 724 251 724 251 667 246 c 1,20,-1
 559 240 l 1,21,22
 447 240 447 240 358 262.5 c 128,-1,23
 269 285 269 285 207 331.5 c 128,-1,24
 145 378 145 378 112 448.5 c 128,-1,25
 79 519 79 519 79 616 c 2,26,-1
 79 650 l 1,27,-1
 239 650 l 1,28,29
 239 590 239 590 252.5 546.5 c 128,-1,30
 266 503 266 503 295 473.5 c 128,-1,31
 324 444 324 444 369.5 427 c 128,-1,32
 415 410 415 410 479 403 c 1,33,-1
 654 398 l 2,34,35
 664 398 664 398 685.5 401.5 c 128,-1,36
 707 405 707 405 734 414 c 128,-1,37
 761 423 761 423 789.5 437.5 c 128,-1,38
 818 452 818 452 841.5 474.5 c 128,-1,39
 865 497 865 497 880 527.5 c 128,-1,40
 895 558 895 558 895 599 c 0,41,42
 895 663 895 663 868 712.5 c 128,-1,43
 841 762 841 762 792.5 796 c 128,-1,44
 744 830 744 830 675.5 848 c 128,-1,45
 607 866 607 866 524 866 c 1,46,-1
 450 860 l 1,47,48
 435 860 435 860 428 855 c 1,49,-1
 417 850 l 1,50,-1
 417 1023 l 1,51,-1
 438 1015 l 1,52,-1
 491 1015 l 1,53,-1
 601 1023 l 1,54,55
 651 1031 651 1031 693 1048.5 c 128,-1,56
 735 1066 735 1066 765 1091.5 c 128,-1,57
 795 1117 795 1117 812 1150.5 c 128,-1,58
 829 1184 829 1184 829 1226 c 0,59,60
 829 1335 829 1335 679 1383 c 1,61,-1
 590 1394 l 1,62,-1
 579 1394 l 2,63,64
 568 1394 568 1394 556 1394.5 c 128,-1,65
 544 1395 544 1395 530 1395 c 0,66,67
 506 1395 506 1395 480 1391.5 c 128,-1,68
 454 1388 454 1388 428.5 1375.5 c 128,-1,69
 403 1363 403 1363 380 1339 c 128,-1,70
 357 1315 357 1315 338 1274 c 1,71,-1
 321 1221 l 1,72,-1
 164 1223 l 1,73,74
 179 1311 179 1311 215.5 1369 c 128,-1,75
 252 1427 252 1427 306 1462 c 128,-1,76
 360 1497 360 1497 429.5 1511.5 c 128,-1,77
 499 1526 499 1526 580 1526 c 0,78,79
 659 1526 659 1526 734 1510 c 128,-1,80
 809 1494 809 1494 867 1458 c 128,-1,81
 925 1422 925 1422 960 1364 c 128,-1,82
 995 1306 995 1306 995 1221 c 0,83,84
 995 1182 995 1182 986 1145 c 128,-1,85
 977 1108 977 1108 959 1075.5 c 128,-1,86
 941 1043 941 1043 913 1016.5 c 128,-1,87
 885 990 885 990 846 972 c 1,88,-1
 766 944 l 1,89,90
 822 936 822 936 876.5 908.5 c 128,-1,91
 931 881 931 881 974 836 c 128,-1,92
 1017 791 1017 791 1043.5 730.5 c 128,-1,93
 1070 670 1070 670 1070 597 c 0,94,95
 1070 377 1070 377 852 288 c 1,17,18
EndSplineSet
Validated: 5
EndChar

StartChar: uni0974
Encoding: 2420 2420 163
Width: 2286
GlyphClass: 2
Flags: W
LayerCount: 2
Fore
SplineSet
1861 1480 m 1,0,-1
 1861 1899 l 1,1,-1
 2033 1899 l 1,2,-1
 2033 1480 l 1,3,-1
 1987 1480 l 1,4,-1
 1861 1480 l 1,0,-1
2032 1364 m 1,5,-1
 2032 182 l 1,6,-1
 1861 182 l 1,7,-1
 1861 1364 l 1,8,-1
 1640 1364 l 1,9,-1
 1640 1498 l 1,10,-1
 2287 1498 l 1,11,-1
 2287 1364 l 1,12,-1
 2032 1364 l 1,5,-1
1493 1364 m 1,13,-1
 1493 182 l 1,14,-1
 1322 182 l 1,15,-1
 1322 786 l 1,16,-1
 1078 786 l 1,17,-1
 1078 927 l 1,18,-1
 1322 927 l 1,19,-1
 1322 1364 l 1,20,-1
 1101 1364 l 1,21,-1
 1101 1498 l 1,22,-1
 1748 1498 l 1,23,-1
 1748 1364 l 1,24,-1
 1493 1364 l 1,13,-1
852 288 m 1,25,26
 814 276 814 276 769 263.5 c 128,-1,27
 724 251 724 251 667 246 c 1,28,-1
 559 240 l 1,29,30
 447 240 447 240 358 262.5 c 128,-1,31
 269 285 269 285 207 331.5 c 128,-1,32
 145 378 145 378 112 448.5 c 128,-1,33
 79 519 79 519 79 616 c 2,34,-1
 79 650 l 1,35,-1
 239 650 l 1,36,37
 239 590 239 590 252.5 546.5 c 128,-1,38
 266 503 266 503 295 473.5 c 128,-1,39
 324 444 324 444 369.5 427 c 128,-1,40
 415 410 415 410 479 403 c 1,41,-1
 654 398 l 2,42,43
 664 398 664 398 685.5 401.5 c 128,-1,44
 707 405 707 405 734 414 c 128,-1,45
 761 423 761 423 789.5 437.5 c 128,-1,46
 818 452 818 452 841.5 474.5 c 128,-1,47
 865 497 865 497 880 527.5 c 128,-1,48
 895 558 895 558 895 599 c 0,49,50
 895 663 895 663 868 712.5 c 128,-1,51
 841 762 841 762 792.5 796 c 128,-1,52
 744 830 744 830 675.5 848 c 128,-1,53
 607 866 607 866 524 866 c 1,54,-1
 450 860 l 1,55,56
 435 860 435 860 428 855 c 1,57,-1
 417 850 l 1,58,-1
 417 1023 l 1,59,-1
 438 1015 l 1,60,-1
 491 1015 l 1,61,-1
 601 1023 l 1,62,63
 651 1031 651 1031 693 1048.5 c 128,-1,64
 735 1066 735 1066 765 1091.5 c 128,-1,65
 795 1117 795 1117 812 1150.5 c 128,-1,66
 829 1184 829 1184 829 1226 c 0,67,68
 829 1335 829 1335 679 1383 c 1,69,-1
 590 1394 l 1,70,-1
 579 1394 l 2,71,72
 568 1394 568 1394 556 1394.5 c 128,-1,73
 544 1395 544 1395 530 1395 c 0,74,75
 506 1395 506 1395 480 1391.5 c 128,-1,76
 454 1388 454 1388 428.5 1375.5 c 128,-1,77
 403 1363 403 1363 380 1339 c 128,-1,78
 357 1315 357 1315 338 1274 c 1,79,-1
 321 1221 l 1,80,-1
 164 1223 l 1,81,82
 179 1311 179 1311 215.5 1369 c 128,-1,83
 252 1427 252 1427 306 1462 c 128,-1,84
 360 1497 360 1497 429.5 1511.5 c 128,-1,85
 499 1526 499 1526 580 1526 c 0,86,87
 659 1526 659 1526 734 1510 c 128,-1,88
 809 1494 809 1494 867 1458 c 128,-1,89
 925 1422 925 1422 960 1364 c 128,-1,90
 995 1306 995 1306 995 1221 c 0,91,92
 995 1182 995 1182 986 1145 c 128,-1,93
 977 1108 977 1108 959 1075.5 c 128,-1,94
 941 1043 941 1043 913 1016.5 c 128,-1,95
 885 990 885 990 846 972 c 1,96,-1
 766 944 l 1,97,98
 822 936 822 936 876.5 908.5 c 128,-1,99
 931 881 931 881 974 836 c 128,-1,100
 1017 791 1017 791 1043.5 730.5 c 128,-1,101
 1070 670 1070 670 1070 597 c 0,102,103
 1070 377 1070 377 852 288 c 1,25,26
EndSplineSet
Validated: 5
EndChar

StartChar: l.aw
Encoding: 2421 2421 164
Width: 2286
GlyphClass: 2
Flags: W
LayerCount: 2
Fore
SplineSet
2055 1397 m 1,0,-1
 1975 1444 l 1,1,-1
 2046 1567 l 2,2,3
 2060 1591 2060 1591 2053 1624 c 0,4,5
 2038 1696 2038 1696 1979 1749 c 1,6,7
 1901 1802 1901 1802 1847 1840 c 1,8,9
 1731 1917 1731 1917 1708 1995 c 1,10,11
 1679 2087 1679 2087 1756 2217 c 1,12,-1
 1824 2335 l 1,13,-1
 1923 2278 l 1,14,-1
 1870 2186 l 1,15,16
 1801 2050 1801 2050 1888 2000 c 0,17,18
 1898 1994 1898 1994 2040 1884 c 0,19,20
 2094 1843 2094 1843 2125 1766 c 1,21,22
 2162 1664 2162 1664 2149 1594 c 0,23,24
 2139 1543 2139 1543 2125 1518 c 2,25,-1
 2055 1397 l 1,0,-1
1993 1419 m 1,26,-1
 1901 1410 l 1,27,-1
 1888 1552 l 2,28,29
 1886 1580 1886 1580 1862 1603 c 0,30,31
 1808 1653 1808 1653 1729 1662 c 1,32,33
 1636 1661 1636 1661 1570 1662 c 1,34,35
 1429 1658 1429 1658 1366 1709 c 1,36,37
 1290 1768 1290 1768 1278 1918 c 1,38,-1
 1266 2054 l 1,39,-1
 1380 2063 l 1,40,-1
 1389 1958 l 1,41,42
 1411 1807 1411 1807 1511 1816 c 0,43,44
 1523 1817 1523 1817 1702 1809 c 0,45,46
 1773 1806 1773 1806 1839 1760 c 0,47,48
 1928 1698 1928 1698 1958 1633 c 0,49,50
 1979 1586 1979 1586 1981 1557 c 2,51,-1
 1993 1419 l 1,26,-1
2032 1364 m 1,52,-1
 2032 182 l 1,53,-1
 1861 182 l 1,54,-1
 1861 1364 l 1,55,-1
 1640 1364 l 1,56,-1
 1640 1498 l 1,57,-1
 2287 1498 l 1,58,-1
 2287 1364 l 1,59,-1
 2032 1364 l 1,52,-1
1493 1364 m 1,60,-1
 1493 182 l 1,61,-1
 1322 182 l 1,62,-1
 1322 786 l 1,63,-1
 1078 786 l 1,64,-1
 1078 927 l 1,65,-1
 1322 927 l 1,66,-1
 1322 1364 l 1,67,-1
 1101 1364 l 1,68,-1
 1101 1498 l 1,69,-1
 1748 1498 l 1,70,-1
 1748 1364 l 1,71,-1
 1493 1364 l 1,60,-1
852 288 m 1,72,73
 814 276 814 276 769 263.5 c 128,-1,74
 724 251 724 251 667 246 c 1,75,-1
 559 240 l 1,76,77
 447 240 447 240 358 262.5 c 128,-1,78
 269 285 269 285 207 331.5 c 128,-1,79
 145 378 145 378 112 448.5 c 128,-1,80
 79 519 79 519 79 616 c 2,81,-1
 79 650 l 1,82,-1
 239 650 l 1,83,84
 239 590 239 590 252.5 546.5 c 128,-1,85
 266 503 266 503 295 473.5 c 128,-1,86
 324 444 324 444 369.5 427 c 128,-1,87
 415 410 415 410 479 403 c 1,88,-1
 654 398 l 2,89,90
 664 398 664 398 685.5 401.5 c 128,-1,91
 707 405 707 405 734 414 c 128,-1,92
 761 423 761 423 789.5 437.5 c 128,-1,93
 818 452 818 452 841.5 474.5 c 128,-1,94
 865 497 865 497 880 527.5 c 128,-1,95
 895 558 895 558 895 599 c 0,96,97
 895 663 895 663 868 712.5 c 128,-1,98
 841 762 841 762 792.5 796 c 128,-1,99
 744 830 744 830 675.5 848 c 128,-1,100
 607 866 607 866 524 866 c 1,101,-1
 450 860 l 1,102,103
 435 860 435 860 428 855 c 1,104,-1
 417 850 l 1,105,-1
 417 1023 l 1,106,-1
 438 1015 l 1,107,-1
 491 1015 l 1,108,-1
 601 1023 l 1,109,110
 651 1031 651 1031 693 1048.5 c 128,-1,111
 735 1066 735 1066 765 1091.5 c 128,-1,112
 795 1117 795 1117 812 1150.5 c 128,-1,113
 829 1184 829 1184 829 1226 c 0,114,115
 829 1335 829 1335 679 1383 c 1,116,-1
 590 1394 l 1,117,-1
 579 1394 l 2,118,119
 568 1394 568 1394 556 1394.5 c 128,-1,120
 544 1395 544 1395 530 1395 c 0,121,122
 506 1395 506 1395 480 1391.5 c 128,-1,123
 454 1388 454 1388 428.5 1375.5 c 128,-1,124
 403 1363 403 1363 380 1339 c 128,-1,125
 357 1315 357 1315 338 1274 c 1,126,-1
 321 1221 l 1,127,-1
 164 1223 l 1,128,129
 179 1311 179 1311 215.5 1369 c 128,-1,130
 252 1427 252 1427 306 1462 c 128,-1,131
 360 1497 360 1497 429.5 1511.5 c 128,-1,132
 499 1526 499 1526 580 1526 c 0,133,134
 659 1526 659 1526 734 1510 c 128,-1,135
 809 1494 809 1494 867 1458 c 128,-1,136
 925 1422 925 1422 960 1364 c 128,-1,137
 995 1306 995 1306 995 1221 c 0,138,139
 995 1182 995 1182 986 1145 c 128,-1,140
 977 1108 977 1108 959 1075.5 c 128,-1,141
 941 1043 941 1043 913 1016.5 c 128,-1,142
 885 990 885 990 846 972 c 1,143,-1
 766 944 l 1,144,145
 822 936 822 936 876.5 908.5 c 128,-1,146
 931 881 931 881 974 836 c 128,-1,147
 1017 791 1017 791 1043.5 730.5 c 128,-1,148
 1070 670 1070 670 1070 597 c 0,149,150
 1070 377 1070 377 852 288 c 1,72,73
EndSplineSet
Validated: 37
EndChar

